<svg width="750" height="1624" viewBox="0 0 750 1624" fill="none" xmlns="http://www.w3.org/2000/svg">
<g clip-path="url(#clip0_30_40)">
<rect width="750" height="1624" fill="white"/>
<rect y="-176" width="750" height="1800" fill="url(#paint0_linear_30_40)"/>
<rect x="-54.1953" y="777.609" width="695.736" height="687.312" transform="rotate(15.624 -54.1953 777.609)" fill="#FFB3A1"/>
<path opacity="0.6" d="M134.438 900.038L-24.2656 858.199L-33.4805 1017.89L135.336 905.436C137.489 904.002 136.939 900.698 134.438 900.038Z" fill="#EC68AE"/>
<path d="M115.844 906.508L115.867 906.514V883.293L96.2715 898.931L-23.5735 977.249L-38.7852 1010.54L-23.5735 1000.49L114.297 909.416C115.368 908.709 115.86 907.601 115.844 906.508Z" fill="#FF5C88"/>
<path d="M114.599 882.051L-31.5786 843.09L-39.575 987.444L115.453 887.471C117.641 886.059 117.116 882.721 114.599 882.051Z" fill="#FFC4D6"/>
<path d="M-98.9609 947.668L-8.31247 887.247L19.8288 894.146L-70.8196 954.567L-98.9609 947.668Z" fill="#FF5C88"/>
<path d="M-83.7656 942.168L-4.77435 889.517L0.1084 891.311L-78.8828 943.962L-83.7656 942.168Z" fill="#DEE1FF"/>
<g style="mix-blend-mode:multiply">
<path d="M128.332 993.685L-35.3177 1109.02L-52.3126 1083.12L109.388 973.687L146.862 965.54C148.715 965.137 150.036 967.3 148.831 968.765L128.332 993.685Z" fill="#DFCFFF"/>
</g>
<path d="M72.8532 973.523L-40.4515 1049.06L-48.4023 1107.37L93.3945 1007.98L131.829 959.938C133.051 958.41 131.579 956.217 129.702 956.77L72.8532 973.523Z" fill="#FF5C88"/>
<path d="M94.3937 1006.73C99.3606 988.884 91.9064 971.944 72.5651 973.713L-34.32 1044.97C-34.825 1048.29 -35.4424 1051.83 -36.0733 1055.44C-39.143 1073.02 -42.5314 1092.43 -34.8403 1097.86L93.3904 1007.98L94.3937 1006.73Z" fill="#E9EBFF"/>
<path d="M94.3937 1006.73C99.3606 988.884 91.9064 971.944 72.5651 973.713L-34.32 1044.97C-34.825 1048.29 -35.4424 1051.83 -36.0733 1055.44C-39.143 1073.02 -42.5314 1092.43 -34.8403 1097.86L93.3904 1007.98L94.3937 1006.73Z" fill="#EC68AE"/>
<path d="M99.9922 965.522C105.013 965.973 108.439 968.145 110.735 971.049C113.061 973.989 114.369 977.873 113.437 982.921L116.276 979.373C116.299 975.443 115.183 971.996 113.023 969.265C111.097 966.83 108.409 965.05 105.131 964.008L99.9922 965.522Z" fill="#D8B2FF"/>
<path d="M99.9922 965.522C105.013 965.973 108.439 968.145 110.735 971.049C113.061 973.989 114.369 977.873 113.437 982.921L116.276 979.373C116.299 975.443 115.183 971.996 113.023 969.265C111.097 966.83 108.409 965.05 105.131 964.008L99.9922 965.522Z" fill="#FFB3A1"/>
<path d="M425.63 1041.99L-141.051 1400.2L163.603 1653.78L964.065 1665.26C965.386 1425.68 1103.6 756.86 1100.43 700.558C1063.97 698.83 1052.44 665.91 1027.76 660.477C982.417 650.497 774.071 599.568 676.977 578.82C752.844 697.027 694.073 789.076 658.563 852.67C633.909 896.824 532.271 983.903 425.63 1041.99Z" fill="#EC68AE"/>
<path d="M383.318 1051.85L-183.363 1410.07L121.291 1663.64L921.752 1675.13C923.073 1435.55 1061.29 766.727 1058.12 710.425C1021.66 708.698 1009.58 683.222 985.102 676.914C919.969 660.127 731.956 610.438 634.665 588.688C710.531 706.894 651.761 798.943 616.251 862.538C591.596 906.691 489.959 993.77 383.318 1051.85Z" fill="#FF5C88"/>
<path d="M347.974 1060.48L-218.707 1418.69L85.9469 1672.27L886.408 1683.75C887.729 1444.18 1025.95 775.353 1022.78 719.051C909.897 674.9 719.085 633.727 593.575 606.734C669.442 724.941 616.417 807.57 580.907 871.164C556.252 915.318 454.615 1002.4 347.974 1060.48Z" fill="#FFB3A1"/>
<path d="M305.877 1083.48L-260.805 1441.69L43.8492 1695.27L844.311 1706.75C845.632 1467.18 986.3 786.104 983.129 729.802C866.979 697.954 676.987 656.727 551.477 629.734C627.344 747.941 574.319 830.57 538.809 894.164C514.155 938.318 412.518 1025.4 305.877 1083.48Z" fill="#FFC4D6"/>
<path d="M270.938 1053.29L-303.246 1461.52L27.0634 1733.07L827.525 1744.56C828.846 1504.98 967.065 836.159 963.894 779.857C927.429 778.13 898.818 708.053 876.621 720.143C854.425 732.232 615.859 675.816 500.075 651.648C560.964 732.125 545.026 823.952 455.525 909.617C425.206 938.636 370.28 980.248 270.938 1053.29Z" fill="#FFF8F7"/>
</g>
<defs>
<linearGradient id="paint0_linear_30_40" x1="375" y1="-176" x2="375" y2="1055.4" gradientUnits="userSpaceOnUse">
<stop stop-color="#F572B7"/>
<stop offset="1" stop-color="#FA9FD1"/>
</linearGradient>
<clipPath id="clip0_30_40">
<rect width="750" height="1624" fill="white"/>
</clipPath>
</defs>
</svg>
