<svg width="750" height="1624" viewBox="0 0 750 1624" fill="none" xmlns="http://www.w3.org/2000/svg">
<g clip-path="url(#clip0_8_542)">
<rect width="750" height="1624" fill="white"/>
<rect width="750" height="1624" fill="#6D5CF8"/>
<path d="M748.779 0.273438H6.62811V1624.27H377.704C377.704 1624.27 573.146 1642.3 712.887 1570.79C766.928 1473.63 748.779 1189.94 748.779 1189.94V0.273438Z" fill="#E6E9FF"/>
<path d="M748.779 0.273438H6.62811V1624.27H377.704C377.704 1624.27 573.146 1642.3 712.887 1570.79C766.928 1473.63 748.779 1189.94 748.779 1189.94V0.273438Z" fill="#E6E9FF"/>
<path d="M748.779 0.273438H6.62811V1624.27H377.704C377.704 1624.27 573.146 1642.3 712.887 1570.79C766.928 1473.63 748.779 1189.94 748.779 1189.94V0.273438Z" fill="#C0C8FF"/>
<path d="M748.779 0.273438H6.62811V1624.27H377.704C377.704 1624.27 573.146 1642.3 712.887 1570.79C766.928 1473.63 748.779 1189.94 748.779 1189.94V0.273438Z" fill="#7E68FF"/>
<path d="M750.108 35.7344H3.62842V1626.49C3.62842 1626.49 225.914 1620.75 376.615 1626.49C483.776 1630.57 597.174 1620.51 667.867 1549.28C764.829 1453.94 750.108 1355.37 750.108 1267.19C750.108 772.937 750.108 35.7344 750.108 35.7344Z" fill="#E6E9FF"/>
<path d="M750.108 35.7344H3.62842V1626.49C3.62842 1626.49 225.914 1620.75 376.615 1626.49C483.776 1630.57 597.174 1620.51 667.867 1549.28C764.829 1453.94 750.108 1355.37 750.108 1267.19C750.108 772.937 750.108 35.7344 750.108 35.7344Z" fill="#D6DCFF"/>
<path d="M750.108 35.7344H3.62842V1626.49C3.62842 1626.49 225.914 1620.75 376.615 1626.49C483.776 1630.57 597.174 1620.51 667.867 1549.28C764.829 1453.94 750.108 1355.37 750.108 1267.19C750.108 772.937 750.108 35.7344 750.108 35.7344Z" fill="#C7B3FF"/>
<path d="M572.768 1606.18C668.812 1576.13 726.382 1494.68 742.072 1421.84C742.072 1421.84 717.417 1499.73 635.246 1508.39C634.39 1521.05 625.033 1578.07 572.768 1606.18Z" fill="#8C9BFF"/>
<path d="M572.768 1606.18C668.812 1576.13 726.382 1494.68 742.072 1421.84C742.072 1421.84 717.417 1499.73 635.246 1508.39C634.39 1521.05 625.033 1578.07 572.768 1606.18Z" fill="#A08FFF"/>
<path d="M749.701 -0.078125H-0.912109V1624.69H412C412 1624.69 604.402 1638.24 592.737 1459.23C765.648 1477.13 749.701 1316.78 749.701 1316.78V-0.078125Z" fill="#E6E9FF"/>
<path d="M749.701 -0.078125H-0.912109V1624.69H412C412 1624.69 604.402 1638.24 592.737 1459.23C765.648 1477.13 749.701 1316.78 749.701 1316.78V-0.078125Z" fill="#E6E9FF"/>
<path d="M749.701 -0.078125H-0.912109V1624.69H412C412 1624.69 604.402 1638.24 592.737 1459.23C765.648 1477.13 749.701 1316.78 749.701 1316.78V-0.078125Z" fill="#F8F9FF"/>
<path d="M749.701 -0.078125H-0.912109V1624.69H412C412 1624.69 604.402 1638.24 592.737 1459.23C765.648 1477.13 749.701 1316.78 749.701 1316.78V-0.078125Z" fill="#F8F1FF"/>
<path d="M749.701 -0.078125H-0.912109V1624.69H412C412 1624.69 604.402 1638.24 592.737 1459.23C765.648 1477.13 749.701 1316.78 749.701 1316.78V-0.078125Z" fill="url(#paint0_linear_8_542)"/>
<g opacity="0.8">
<path d="M-1281.73 1524.8C-1296.53 1536.75 -1295.22 1554.1 -1279.12 1559.52L-125.054 1947.92C-113.173 1951.92 -97.3009 1947.8 -87.6168 1938.22L619.094 1238.67C631.68 1226.21 628.428 1210.25 612.407 1205.85L-488.673 903.716C-499.279 900.805 -512.637 903.927 -522.032 911.511L-1281.73 1524.8Z" fill="#E5CAFF"/>
<path d="M-1271.73 1485.8C-1286.53 1497.75 -1285.22 1515.1 -1269.12 1520.52L-115.054 1908.92C-103.173 1912.91 -87.3009 1908.8 -77.6168 1899.22L629.094 1199.67C641.68 1187.21 638.428 1171.25 622.407 1166.85L-478.673 864.715C-489.279 861.804 -502.637 864.926 -512.032 872.51L-1271.73 1485.8Z" fill="#FCF9FF"/>
<path d="M579.234 1246.56L-142.067 1035.59" stroke="#D1BFFF" stroke-opacity="0.6" stroke-width="3" stroke-linecap="round"/>
<path d="M488.153 1336.2L-231.579 1125.31" stroke="#D1BFFF" stroke-opacity="0.6" stroke-width="3" stroke-linecap="round"/>
<path d="M382.935 1440.4L-339.161 1230.22" stroke="#D1BFFF" stroke-opacity="0.6" stroke-width="3" stroke-linecap="round"/>
<path d="M273.261 1551.01L-452.156 1339.71" stroke="#D1BFFF" stroke-opacity="0.6" stroke-width="3" stroke-linecap="round"/>
<path d="M419.421 1199.24L-151.482 1751.54" stroke="#D1BFFF" stroke-opacity="0.6" stroke-width="3"/>
<line x1="268.377" y1="1155.66" x2="-304.326" y2="1709.13" stroke="#D1BFFF" stroke-opacity="0.6" stroke-width="3"/>
<path d="M124.838 1113.87L-450.263 1669.87" stroke="#D1BFFF" stroke-opacity="0.6" stroke-width="3" stroke-linecap="round"/>
</g>
<path d="M309.449 1207.32L313.828 1208.91L285.249 1233.61L279.426 1231.51L302.362 1211.68C298.661 1212.26 294.813 1212.29 290.768 1211.76L295.411 1207.75C297.324 1208.05 299.576 1208.17 302.168 1208.13C304.84 1208.01 307.254 1207.76 309.449 1207.32Z" fill="#C2B1FC"/>
<path opacity="0.3" d="M145.951 1158.31C149.577 1159.48 151.898 1161.05 152.774 1163.04C153.6 1165.02 152.87 1167.13 150.495 1169.39C147.508 1172.24 143.502 1173.49 138.527 1173.16C140.144 1174.31 141.079 1175.54 141.192 1176.85C141.367 1178.22 140.631 1179.7 139.022 1181.23C136.494 1183.64 133.268 1185.24 129.342 1186.03C125.278 1186.82 121.261 1186.6 117.332 1185.34C113.605 1184.14 111.31 1182.47 110.499 1180.36C109.589 1178.01 110.553 1175.3 113.314 1172.28L119.308 1174.21C117.648 1175.92 116.974 1177.46 117.427 1178.83C117.805 1180.07 119.008 1181.04 121.073 1181.71C123.34 1182.44 125.652 1182.54 127.919 1182.05C129.958 1181.59 131.635 1180.76 132.937 1179.52C134.507 1178.02 135.001 1176.71 134.52 1175.63C134.077 1174.51 132.659 1173.62 130.341 1172.87L127.823 1172.06L131.193 1168.85L133.712 1169.66C135.827 1170.34 137.784 1170.53 139.581 1170.23C141.329 1169.91 142.917 1169.1 144.257 1167.82C145.598 1166.55 146.09 1165.44 145.822 1164.47C145.453 1163.47 144.237 1162.64 142.171 1161.98C140.056 1161.3 138.061 1161.14 136.098 1161.54C134.085 1161.92 132.154 1162.86 130.306 1164.36L124.513 1162.5C127.572 1159.97 131.027 1158.35 134.977 1157.66C138.775 1156.93 142.425 1157.18 145.951 1158.31ZM175.802 1167.91C179.983 1169.26 181.955 1171.55 181.642 1174.87C181.33 1177.99 179.03 1181.6 174.741 1185.68C170.451 1189.77 165.935 1192.67 161.191 1194.36C156.181 1196.12 151.566 1196.35 147.385 1195C143.154 1193.64 141.22 1191.31 141.545 1188.05C141.857 1184.92 144.157 1181.32 148.446 1177.23C152.736 1173.14 157.252 1170.25 161.996 1168.55C166.994 1166.74 171.571 1166.55 175.802 1167.91ZM172.01 1171.53C169.139 1170.6 165.937 1171.09 162.327 1173.05C159.875 1174.36 157.212 1176.39 154.34 1179.12C151.506 1181.83 149.649 1184.11 148.77 1185.98C147.516 1188.65 148.305 1190.46 151.177 1191.39C153.998 1192.29 157.238 1191.77 160.86 1189.86C163.351 1188.52 166.013 1186.49 168.847 1183.79C171.72 1181.05 173.576 1178.77 174.417 1176.94C175.659 1174.21 174.831 1172.43 172.01 1171.53Z" fill="#C2B1FC"/>
<path opacity="0.3" d="M2.97596 1114.67C6.45823 1115.76 8.57327 1117.41 9.32109 1119.59C10.0184 1121.76 9.18663 1123.98 6.74947 1126.33C4.38848 1128.61 1.04474 1130.29 -3.21888 1131.43C-5.77439 1132.09 -9.74484 1132.69 -15.0674 1133.3C-20.5794 1133.9 -24.3993 1134.75 -26.5777 1135.82L-8.81309 1141.41L-12.7354 1145.2L-37.8683 1137.28C-35.0884 1134.6 -31.5286 1132.65 -27.0498 1131.43C-24.5952 1130.74 -20.1439 1130 -13.7845 1129.22C-10.2444 1128.78 -7.60129 1128.29 -5.79225 1127.84C-2.89493 1127.05 -0.640387 1125.91 0.882834 1124.44C2.36798 1123 2.91717 1121.76 2.63135 1120.75C2.29506 1119.72 1.07328 1118.89 -0.99589 1118.24C-3.21647 1117.54 -5.45311 1117.57 -7.70581 1118.32C-9.88236 1119 -12.1254 1120.39 -14.3589 1122.41L-20.2636 1120.55C-17.1667 1117.63 -13.5688 1115.64 -9.38131 1114.57C-5.02914 1113.41 -0.910052 1113.44 2.97596 1114.67ZM32.278 1123.9C36.6686 1125.28 38.8695 1127.49 38.7919 1130.53C38.7524 1133.54 36.6763 1137.03 32.4875 1141.07C28.0701 1145.33 23.1908 1148.43 18.0265 1150.31C12.8118 1152.17 8.11005 1152.45 3.9717 1151.14C-3.14424 1148.9 -4.65595 1145.26 -0.563422 1140.21L5.18989 1142.02C3.38312 1144.67 4.19564 1146.53 7.67791 1147.63C10.0499 1148.38 12.8816 1148.1 16.0969 1146.87C19.135 1145.69 21.936 1143.89 24.4493 1141.46L24.7921 1141.13L24.5397 1141.05C22.3756 1141.78 20.2761 1142.2 18.2794 1142.25C16.3713 1142.28 14.4897 1142.03 12.6729 1141.46C9.14016 1140.34 7.13935 1138.59 6.77142 1136.23C6.32732 1133.95 7.48856 1131.54 10.1542 1128.97C12.896 1126.32 16.354 1124.54 20.5281 1123.61C24.7404 1122.65 28.6443 1122.75 32.278 1123.9ZM28.786 1127.53C26.6664 1126.86 24.4173 1126.83 22.0389 1127.45C19.6605 1128.06 17.684 1129.19 16.0085 1130.81C14.3329 1132.43 13.6057 1133.9 13.9278 1135.27C14.1489 1136.61 15.3317 1137.66 17.5522 1138.36C19.7223 1139.05 21.9714 1139.07 24.2232 1138.52C26.4626 1137.91 28.4895 1136.79 30.2412 1135.1C31.993 1133.41 32.6697 1131.92 32.3476 1130.55C32.0256 1129.18 30.8047 1128.16 28.786 1127.53Z" fill="#C2B1FC"/>
<path d="M466.908 1249.69C470.43 1250.66 472.607 1252.21 473.438 1254.37C474.219 1256.51 473.473 1258.76 471.128 1261.21C468.857 1263.57 465.58 1265.38 461.364 1266.68C458.836 1267.44 454.891 1268.19 449.597 1269.01C444.112 1269.82 440.327 1270.81 438.192 1271.97L456.159 1276.87L452.386 1280.81L426.966 1273.86C429.64 1271.08 433.122 1268.99 437.551 1267.6C439.977 1266.82 444.396 1265.9 450.721 1264.88C454.241 1264.3 456.864 1263.72 458.654 1263.2C461.519 1262.29 463.728 1261.06 465.193 1259.54C466.622 1258.05 467.123 1256.79 466.798 1255.78C466.422 1254.76 465.169 1253.99 463.077 1253.42C460.831 1252.8 458.597 1252.92 456.375 1253.75C454.226 1254.52 452.038 1255.99 449.885 1258.1L443.912 1256.47C446.894 1253.43 450.413 1251.31 454.556 1250.08C458.86 1248.75 462.977 1248.62 466.908 1249.69Z" fill="#C2B1FC"/>
<path d="M365.878 1346.25C370.258 1347.67 372.442 1349.89 372.342 1352.93C372.28 1355.94 370.178 1359.42 365.959 1363.43C361.509 1367.65 356.607 1370.71 351.429 1372.55C346.2 1374.38 341.497 1374.62 337.368 1373.28C330.269 1370.99 328.785 1367.33 332.915 1362.32L338.655 1364.17C336.828 1366.81 337.627 1368.68 341.101 1369.8C343.467 1370.57 346.301 1370.31 349.525 1369.1C352.572 1367.94 355.386 1366.16 357.918 1363.76L358.263 1363.43L358.011 1363.35C355.842 1364.06 353.739 1364.46 351.742 1364.5C349.834 1364.51 347.954 1364.25 346.142 1363.66C342.617 1362.52 340.63 1360.76 340.279 1358.4C339.852 1356.11 341.032 1353.71 343.717 1351.15C346.478 1348.53 349.949 1346.77 354.13 1345.87C358.35 1344.94 362.253 1345.08 365.878 1346.25ZM362.359 1349.85C360.244 1349.17 357.995 1349.13 355.612 1349.72C353.229 1350.32 351.244 1351.44 349.557 1353.04C347.869 1354.65 347.131 1356.12 347.443 1357.49C347.654 1358.83 348.829 1359.89 351.044 1360.61C353.209 1361.31 355.458 1361.35 357.714 1360.81C359.958 1360.22 361.993 1359.11 363.757 1357.44C365.521 1355.76 366.209 1354.27 365.898 1352.9C365.586 1351.53 364.373 1350.5 362.359 1349.85Z" fill="#C2B1FC"/>
<path d="M80.7865 1404.41L85.2261 1405.81L58.0061 1432.01L52.1035 1430.14L73.9481 1409.12C70.292 1409.86 66.4622 1410.07 62.4082 1409.71L66.8305 1405.45C68.7498 1405.67 70.9988 1405.7 73.5775 1405.54C76.2324 1405.31 78.6227 1404.94 80.7865 1404.41ZM94.4157 1408.72L116.361 1415.66L112.434 1419.44L95.2312 1414L86.7501 1420.87L86.9014 1420.92C88.85 1420.46 90.7212 1420.27 92.5655 1420.37C94.2584 1420.42 95.912 1420.7 97.5264 1421.21C100.906 1422.28 102.842 1423.96 103.284 1426.25C103.725 1428.53 102.51 1431.12 99.5743 1433.95C96.7531 1436.66 93.0532 1438.42 88.4362 1439.25C84.2117 1439.96 80.3337 1439.76 76.7518 1438.62C73.4726 1437.59 71.3337 1436.03 70.3473 1434.01C69.2108 1431.75 69.8187 1429.36 72.0826 1426.86L77.8843 1428.69C76.6497 1430.21 76.3009 1431.51 76.8882 1432.62C77.3881 1433.56 78.609 1434.38 80.5765 1435.01C82.6953 1435.68 85.0071 1435.77 87.4613 1435.28C89.8651 1434.78 91.9562 1433.73 93.6336 1432.12C95.4635 1430.36 96.2563 1428.75 96.0749 1427.38C95.9316 1425.97 94.611 1424.92 92.2903 1424.18C90.7264 1423.69 89.1737 1423.44 87.6444 1423.49C85.9257 1423.54 84.281 1423.89 82.6216 1424.59L77.1226 1422.85L94.4157 1408.72Z" fill="#C2B1FC"/>
<path d="M239.797 1454.46L244.234 1455.88L216.959 1482.02L211.061 1480.14L232.949 1459.16C229.291 1459.9 225.461 1460.09 221.408 1459.73L225.839 1455.48C227.758 1455.7 230.007 1455.73 232.586 1455.58C235.241 1455.35 237.632 1454.99 239.797 1454.46ZM264.943 1461.79C272.001 1464.04 273.501 1467.69 269.442 1472.74L263.695 1470.91C265.51 1468.27 264.653 1466.38 261.225 1465.29C258.805 1464.52 256.011 1464.75 252.804 1466.02C249.711 1467.18 246.955 1468.99 244.434 1471.41L244.09 1471.73L244.342 1471.81C246.496 1471.04 248.559 1470.67 250.606 1470.64C252.553 1470.58 254.395 1470.87 256.21 1471.45C259.739 1472.57 261.722 1474.28 262.121 1476.6C262.519 1478.92 261.362 1481.39 258.688 1483.95C255.938 1486.58 252.424 1488.34 248.247 1489.26C244.069 1490.17 240.128 1490.08 236.548 1488.94C232.112 1487.53 229.956 1485.28 230.044 1482.24C230.093 1479.23 232.231 1475.76 236.394 1471.77C240.864 1467.49 245.665 1464.43 250.885 1462.58C256.056 1460.72 260.758 1460.46 264.943 1461.79ZM251.321 1474.53C249.102 1473.82 246.892 1473.75 244.65 1474.35C242.397 1474.9 240.378 1476.06 238.621 1477.75C236.902 1479.4 236.182 1480.92 236.5 1482.29C236.818 1483.66 237.985 1484.67 240.052 1485.33C242.169 1486 244.368 1486.02 246.748 1485.41C249.129 1484.8 251.159 1483.7 252.84 1482.08C254.521 1480.47 255.202 1478.98 254.986 1477.65C254.706 1476.24 253.489 1475.22 251.321 1474.53Z" fill="#C2B1FC"/>
<path opacity="0.5" d="M129.266 1563.69C132.776 1564.69 134.932 1566.28 135.736 1568.44C136.489 1570.59 135.715 1572.84 133.339 1575.25C131.038 1577.59 127.738 1579.35 123.505 1580.6C120.968 1581.32 117.014 1582.03 111.709 1582.78C106.214 1583.52 102.417 1584.46 100.267 1585.59L118.17 1590.73L114.346 1594.61L89.018 1587.34C91.7279 1584.59 95.2364 1582.55 99.6822 1581.21C102.118 1580.46 106.549 1579.61 112.886 1578.67C116.414 1578.13 119.044 1577.58 120.84 1577.08C123.716 1576.21 125.941 1575.01 127.426 1573.51C128.873 1572.04 129.39 1570.78 129.078 1569.77C128.716 1568.75 127.473 1567.96 125.388 1567.36C123.15 1566.72 120.915 1566.8 118.682 1567.61C116.524 1568.35 114.317 1569.79 112.137 1571.88L106.186 1570.17C109.207 1567.17 112.752 1565.09 116.911 1563.91C121.232 1562.64 125.35 1562.56 129.266 1563.69ZM159.559 1572.38C163.221 1573.43 165.591 1574.93 166.53 1576.89C167.417 1578.84 166.754 1580.97 164.453 1583.31C161.557 1586.25 157.593 1587.63 152.609 1587.46C154.263 1588.56 155.236 1589.76 155.39 1591.06C155.608 1592.43 154.919 1593.92 153.36 1595.51C150.91 1597.99 147.736 1599.69 143.837 1600.61C139.8 1601.53 135.779 1601.44 131.812 1600.3C128.048 1599.22 125.702 1597.63 124.823 1595.54C123.84 1593.22 124.717 1590.48 127.382 1587.37L133.434 1589.11C131.828 1590.87 131.204 1592.44 131.7 1593.79C132.117 1595.02 133.35 1595.95 135.436 1596.55C137.724 1597.21 140.038 1597.24 142.288 1596.68C144.312 1596.15 145.962 1595.27 147.224 1593.99C148.746 1592.44 149.198 1591.12 148.683 1590.05C148.205 1588.95 146.759 1588.1 144.419 1587.43L141.876 1586.7L145.143 1583.38L147.686 1584.11C149.822 1584.72 151.784 1584.85 153.571 1584.49C155.307 1584.12 156.869 1583.26 158.168 1581.94C159.467 1580.62 159.924 1579.5 159.626 1578.54C159.226 1577.55 157.983 1576.76 155.898 1576.16C153.762 1575.55 151.763 1575.46 149.814 1575.92C147.814 1576.36 145.914 1577.36 144.114 1578.92L138.265 1577.25C141.243 1574.62 144.644 1572.89 148.57 1572.08C152.344 1571.23 155.999 1571.36 159.559 1572.38Z" fill="#C2B1FC"/>
<path d="M-28.8028 1508.13C-25.3236 1509.23 -23.2133 1510.88 -22.4716 1513.07C-21.7804 1515.24 -22.6185 1517.46 -25.0623 1519.8C-27.4297 1522.07 -30.7782 1523.74 -35.045 1524.87C-37.6024 1525.52 -41.5745 1526.11 -46.8987 1526.71C-52.4124 1527.3 -56.2347 1528.13 -58.4161 1529.19L-40.6674 1534.84L-44.6004 1538.61L-69.7108 1530.62C-66.9233 1527.95 -63.358 1526.01 -58.8758 1524.8C-56.4193 1524.12 -51.9659 1523.39 -45.6044 1522.63C-42.063 1522.2 -39.4185 1521.72 -37.6082 1521.28C-34.7087 1520.49 -32.4509 1519.36 -30.9235 1517.89C-29.4343 1516.46 -28.8816 1515.22 -29.1646 1514.21C-29.498 1513.17 -30.7174 1512.35 -32.7847 1511.69C-35.0033 1510.98 -37.24 1511 -39.4949 1511.75C-41.6733 1512.42 -43.9203 1513.8 -46.1595 1515.82L-52.0589 1513.95C-48.9537 1511.03 -45.3502 1509.06 -41.1598 1508C-36.8043 1506.85 -32.6853 1506.89 -28.8028 1508.13ZM1.43101 1517.75C4.91017 1518.85 7.02056 1520.5 7.76221 1522.69C8.45343 1524.86 7.61533 1527.08 5.17153 1529.42C2.80411 1531.69 -0.544347 1533.36 -4.81118 1534.49C-7.36854 1535.14 -11.3407 1535.73 -16.6649 1536.33C-22.1786 1536.92 -26.0009 1537.75 -28.1823 1538.81L-10.4336 1544.46L-14.3666 1548.23L-39.477 1540.24C-36.6895 1537.57 -33.1242 1535.63 -28.642 1534.42C-26.1855 1533.74 -21.7321 1533.01 -15.3705 1532.25C-11.8292 1531.82 -9.18471 1531.34 -7.3744 1530.89C-4.47485 1530.11 -2.21709 1528.97 -0.689717 1527.51C0.79947 1526.08 1.35216 1524.84 1.06921 1523.83C0.735842 1522.79 -0.483597 1521.97 -2.55092 1521.31C-4.76951 1520.6 -7.00622 1520.62 -9.26104 1521.37C-11.4395 1522.04 -13.6865 1523.42 -15.9257 1525.44L-21.8251 1523.57C-18.7199 1520.65 -15.1164 1518.68 -10.9259 1517.62C-6.57051 1516.47 -2.45152 1516.51 1.43101 1517.75Z" fill="#C2B1FC"/>
<path d="M49.9152 1251.82L74.4938 1258.83L71.0109 1262.38L35.3167 1282.17L29.0067 1280.37L64.5616 1261.12L45.9877 1255.83L49.9152 1251.82Z" fill="#C2B1FC"/>
<g style="mix-blend-mode:multiply" opacity="0.8">
<path d="M330.975 1410.17C308.654 1430.27 320.148 1502.6 273.102 1549.16C285.583 1547.97 298.098 1547.69 307.755 1546.9C368.133 1507.56 450.435 1463.96 450.435 1463.96C442.576 1462.08 433.646 1400.63 428.379 1399.33C391.028 1403.65 339.669 1408.63 330.975 1410.17Z" fill="url(#paint1_linear_8_542)"/>
</g>
<g style="mix-blend-mode:multiply" opacity="0.6">
<path d="M263.292 1250.54C240.971 1270.64 256.612 1332.43 209.565 1379C222.047 1377.81 234.561 1377.53 244.219 1376.74C286.41 1361.92 367.847 1336.18 367.847 1336.18C359.988 1334.3 357.878 1261.29 352.611 1260C315.26 1264.31 271.986 1249 263.292 1250.54Z" fill="url(#paint2_linear_8_542)"/>
</g>
<g style="mix-blend-mode:multiply" opacity="0.6">
<path d="M-50.4572 1195.79C-72.7785 1215.88 -51.1105 1224.94 -98.1567 1271.5C-85.6755 1270.31 -73.1607 1270.03 -63.5029 1269.24C-21.3121 1254.43 57.7413 1225.55 57.7413 1225.55C49.882 1223.67 47.5513 1188.49 42.2844 1187.19C4.93382 1191.51 -41.7631 1194.24 -50.4572 1195.79Z" fill="url(#paint3_linear_8_542)"/>
</g>
<path d="M173.308 1246.44C175.473 1244.34 178.979 1243.41 181.71 1244.21L319.975 1284.64C323.641 1285.71 324.354 1289.37 321.446 1292.18L223.014 1387.39C220.85 1389.49 217.349 1390.41 214.62 1389.62L76.2688 1349.33C72.5982 1348.26 71.8811 1344.61 74.7895 1341.79L173.308 1246.44Z" fill="#7148DF"/>
<path d="M73.1587 1323.16L72.9316 1345.51L219.873 1375.29L323.235 1288.3L323.038 1265.18L216.028 1338.33L73.1587 1323.16Z" fill="#7148DF"/>
<path d="M173.386 1223.56C175.551 1221.47 179.058 1220.54 181.79 1221.33L319.9 1261.72C323.59 1262.8 324.283 1266.49 321.324 1269.3L222.705 1363.1C220.553 1365.15 217.119 1366.06 214.417 1365.3L76.3822 1326.55C72.6651 1325.51 71.9151 1321.83 74.8412 1319L173.386 1223.56Z" fill="#7F66FB"/>
<path d="M213.468 1274.79C217.307 1275.99 219.628 1277.69 220.395 1279.93C221.048 1281.88 220.4 1283.87 218.349 1285.86C216.982 1287.19 215.401 1288.2 213.643 1288.87C211.746 1289.55 209.636 1289.91 207.336 1289.87L207.26 1289.95C208.585 1290.8 209.29 1291.99 209.325 1293.51C209.398 1295.19 208.624 1296.85 206.953 1298.47C204.523 1300.83 201.373 1302.33 197.531 1303.08C193.676 1303.78 189.582 1303.47 185.289 1302.13C180.945 1300.78 178.37 1299 177.528 1296.84C176.673 1294.62 177.448 1292.38 179.879 1290.02C181.55 1288.4 183.687 1287.17 186.393 1286.36C188.783 1285.6 190.956 1285.3 193.016 1285.5L193.092 1285.43C191.805 1284.35 191.289 1283.16 191.418 1281.94C191.559 1280.77 192.332 1279.5 193.699 1278.17C195.75 1276.18 198.469 1274.84 201.908 1274.16C205.738 1273.36 209.578 1273.58 213.468 1274.79ZM209.936 1278.22C207.814 1277.56 205.679 1277.43 203.543 1277.88C201.672 1278.27 200.205 1278.98 199.104 1280.05C197.851 1281.27 197.318 1282.37 197.505 1283.35C197.743 1284.54 199.055 1285.54 201.581 1286.33C204.056 1287.1 206.33 1287.22 208.315 1286.72C209.946 1286.31 211.388 1285.49 212.641 1284.27C213.742 1283.21 214.098 1282.15 213.746 1281.07C213.307 1279.81 212.057 1278.88 209.936 1278.22ZM198.277 1289.53C195.751 1288.74 193.376 1288.59 191.151 1289.06C188.965 1289.5 187.181 1290.45 185.738 1291.85C184.371 1293.18 183.926 1294.45 184.455 1295.69C184.932 1296.91 186.384 1297.9 188.859 1298.67C191.283 1299.43 193.658 1299.58 195.908 1299.21C198.007 1298.8 199.727 1297.97 201.094 1296.64C202.537 1295.24 203.058 1293.9 202.681 1292.71C202.266 1291.36 200.803 1290.32 198.277 1289.53Z" fill="white"/>
<path d="M221.89 1390.82C224.055 1388.72 227.561 1387.79 230.292 1388.59L383.786 1433.47C387.418 1434.54 388.159 1438.14 385.322 1440.95L278.951 1546.35C276.809 1548.47 273.29 1549.43 270.533 1548.65L114.059 1504.21C110.356 1503.15 109.617 1499.48 112.539 1496.66L221.89 1390.82Z" fill="#5967FF"/>
<path d="M221.89 1390.82C224.055 1388.72 227.561 1387.79 230.292 1388.59L383.786 1433.47C387.418 1434.54 388.159 1438.14 385.322 1440.95L278.951 1546.35C276.809 1548.47 273.29 1549.43 270.533 1548.65L114.059 1504.21C110.356 1503.15 109.617 1499.48 112.539 1496.66L221.89 1390.82Z" fill="#4C6FFF"/>
<path d="M110.866 1477.92L110.866 1500.33L273.075 1533.01L386.902 1436.73L386.644 1413.81L267.261 1511.85L110.866 1477.92Z" fill="#5967FF"/>
<path d="M110.866 1477.92L110.866 1500.33L273.075 1533.01L386.902 1436.73L386.644 1413.81L267.261 1511.85L110.866 1477.92Z" fill="#4C6FFF"/>
<path d="M221.89 1368.32C224.055 1366.22 227.561 1365.29 230.292 1366.09L383.603 1410.92C387.295 1412 387.986 1415.69 385.023 1418.51L276.068 1521.98C273.923 1524.02 270.506 1524.93 267.808 1524.18L114.145 1481.68C110.409 1480.64 109.647 1476.95 112.582 1474.11L221.89 1368.32Z" fill="#9985FF"/>
<path d="M221.89 1368.32C224.055 1366.22 227.561 1365.29 230.292 1366.09L383.603 1410.92C387.295 1412 387.986 1415.69 385.023 1418.51L276.068 1521.98C273.923 1524.02 270.506 1524.93 267.808 1524.18L114.145 1481.68C110.409 1480.64 109.647 1476.95 112.582 1474.11L221.89 1368.32Z" fill="#70D4F3" fill-opacity="0.8"/>
<path d="M247.012 1425.61L251.448 1427.02L224.174 1453.17L218.275 1451.29L240.163 1430.31C236.506 1431.04 232.675 1431.24 228.622 1430.87L233.053 1426.63C234.972 1426.85 237.221 1426.88 239.8 1426.73C242.456 1426.5 244.847 1426.14 247.012 1425.61ZM272.157 1432.94C279.215 1435.19 280.715 1438.84 276.657 1443.89L270.909 1442.06C272.725 1439.41 271.868 1437.53 268.44 1436.44C266.02 1435.67 263.225 1435.9 260.018 1437.17C256.926 1438.33 254.169 1440.14 251.648 1442.55L251.304 1442.88L251.556 1442.96C253.711 1442.19 255.773 1441.82 257.821 1441.79C259.767 1441.73 261.61 1442.02 263.425 1442.6C266.954 1443.72 268.936 1445.43 269.335 1447.75C269.733 1450.07 268.577 1452.53 265.903 1455.1C263.152 1457.73 259.638 1459.49 255.461 1460.4C251.284 1461.32 247.342 1461.23 243.762 1460.09C239.326 1458.68 237.17 1456.43 237.258 1453.38C237.307 1450.38 239.445 1446.91 243.609 1442.92C248.078 1438.64 252.879 1435.58 258.1 1433.73C263.27 1431.86 267.973 1431.61 272.157 1432.94ZM258.535 1445.68C256.317 1444.97 254.106 1444.9 251.865 1445.5C249.611 1446.05 247.593 1447.21 245.836 1448.9C244.117 1450.55 243.397 1452.07 243.714 1453.44C244.032 1454.81 245.199 1455.82 247.266 1456.48C249.384 1457.15 251.582 1457.17 253.963 1456.56C256.343 1455.95 258.374 1454.84 260.054 1453.23C261.735 1451.62 262.417 1450.13 262.2 1448.79C261.921 1447.39 260.703 1446.37 258.535 1445.68Z" fill="white"/>
<g opacity="0.8">
<path d="M525.137 1015.66C526.457 1010.91 530.951 1007.84 535.839 1008.33L661.465 1021.06C667.841 1021.71 672.149 1028.03 670.428 1034.22L645.89 1122.46C644.543 1127.31 639.9 1130.4 634.926 1129.76L510.179 1113.85C503.925 1113.05 499.785 1106.8 501.478 1100.72L525.137 1015.66Z" fill="#977EFF"/>
<path d="M503.362 1110L494.666 1097.99L660.746 1014.11L669.127 1025.75L503.362 1110Z" fill="#977EFF"/>
<path d="M517.227 1004.67C518.547 999.929 523.041 996.852 527.929 997.347L653.555 1010.08C659.931 1010.72 664.239 1017.05 662.517 1023.24L637.98 1111.48C636.633 1116.32 631.99 1119.41 627.016 1118.78L502.269 1102.87C496.015 1102.07 491.875 1095.82 493.568 1089.73L517.227 1004.67Z" fill="white"/>
<path d="M552.34 1026.86C553.212 1023.99 556.336 1021.92 559.318 1022.24L597.115 1026.26C600.097 1026.58 601.807 1029.16 600.936 1032.03L599.061 1038.2L608.553 1034.66C612.745 1033.09 616.432 1036.07 615.224 1040.04L607.994 1063.84C606.786 1067.82 601.578 1069.84 598.571 1067.51L591.76 1062.23L589.885 1068.4C589.013 1071.27 585.889 1073.34 582.907 1073.02L545.111 1069C542.129 1068.68 540.418 1066.09 541.29 1063.22L552.34 1026.86ZM563.803 1044.17C566.785 1044.49 569.909 1042.42 570.781 1039.55C571.653 1036.68 569.942 1034.09 566.96 1033.78C563.978 1033.46 560.854 1035.53 559.982 1038.4C559.11 1041.27 560.821 1043.85 563.803 1044.17Z" fill="white"/>
<path d="M552.34 1026.86C553.212 1023.99 556.336 1021.92 559.318 1022.24L597.115 1026.26C600.097 1026.58 601.807 1029.16 600.936 1032.03L599.061 1038.2L608.553 1034.66C612.745 1033.09 616.432 1036.07 615.224 1040.04L607.994 1063.84C606.786 1067.82 601.578 1069.84 598.571 1067.51L591.76 1062.23L589.885 1068.4C589.013 1071.27 585.889 1073.34 582.907 1073.02L545.111 1069C542.129 1068.68 540.418 1066.09 541.29 1063.22L552.34 1026.86ZM563.803 1044.17C566.785 1044.49 569.909 1042.42 570.781 1039.55C571.653 1036.68 569.942 1034.09 566.96 1033.78C563.978 1033.46 560.854 1035.53 559.982 1038.4C559.11 1041.27 560.821 1043.85 563.803 1044.17Z" fill="#977EFF"/>
</g>
<rect width="127.119" height="132.932" rx="11.1853" transform="matrix(0.888785 0.458324 -0.780202 0.625528 583.416 909.217)" fill="#C7B3FF"/>
<rect width="127.119" height="132.932" rx="11.1853" transform="matrix(0.888785 0.458324 -0.780202 0.625528 583.416 909.217)" fill="#8C70FF"/>
<rect width="127.119" height="132.932" rx="11.1853" transform="matrix(0.888785 0.458324 -0.780202 0.625528 583.416 909.217)" fill="#F775BA"/>
<rect width="127.119" height="132.932" rx="11.1853" transform="matrix(0.888785 0.458324 -0.780202 0.625528 583.416 909.217)" fill="#9EA6FF"/>
<path d="M485.102 992.307L483.034 979.38L688.784 955.87L690.882 967.489L592.601 1038.48L485.102 992.307Z" fill="#9EA6FF"/>
<rect width="127.119" height="132.932" rx="11.1853" transform="matrix(0.888785 0.458324 -0.780202 0.625528 581.313 897.07)" fill="white"/>
<path d="M583.567 933.188C584.705 932.148 586.75 931.933 588.136 932.709L622.239 951.802C625.835 953.815 628.161 956.774 628.704 960.026C629.247 963.279 627.963 966.559 625.134 969.145L592.533 998.953C591.395 999.993 589.349 1000.21 587.964 999.432L553.861 980.339C550.264 978.326 547.939 975.367 547.396 972.115C546.853 968.862 548.137 965.582 550.966 962.996L583.567 933.188ZM583.121 951.162C581.983 952.202 582.184 953.675 583.569 954.45L604.892 966.388C606.278 967.164 608.323 966.949 609.461 965.909C610.599 964.869 610.398 963.396 609.013 962.621L587.69 950.683C586.304 949.907 584.259 950.122 583.121 951.162ZM574.88 958.697C573.742 959.738 573.942 961.21 575.328 961.985L596.651 973.923C598.037 974.699 600.082 974.484 601.22 973.444C602.358 972.404 602.157 970.931 600.772 970.156L579.449 958.218C578.063 957.442 576.017 957.657 574.88 958.697ZM571.207 965.753C569.822 964.977 567.776 965.192 566.638 966.232C565.501 967.273 565.701 968.745 567.087 969.52L578.375 975.841C579.761 976.616 581.807 976.402 582.944 975.361C584.082 974.321 583.882 972.849 582.496 972.073L571.207 965.753Z" fill="#92A7FF"/>
<rect width="162.936" height="149.915" rx="11.205" transform="matrix(0.977162 0.212497 -0.458164 0.888867 337.572 1097.24)" fill="#C7B3FF"/>
<path d="M273.779 1228.49L266.173 1213.89L484.538 1119.94L491.638 1133.49L273.779 1228.49Z" fill="#C7B3FF"/>
<rect width="162.936" height="149.915" rx="11.205" transform="matrix(0.977162 0.212497 -0.458164 0.888867 330.235 1083.23)" fill="white"/>
<path d="M339.04 1182.29L333.072 1186.3C330.1 1188.29 330.414 1191.85 333.617 1192.48L358.991 1197.5C358.991 1197.5 359.004 1197.5 359.028 1197.5C359.223 1197.54 360.152 1197.72 360.849 1197.86L361.543 1198C362.995 1198.29 364.466 1198.49 365.95 1198.62L365.959 1198.62C384.779 1200.21 405.533 1189.09 413.915 1172.28C416.149 1167.8 417.6 1161.28 417.62 1161.07C418.188 1155.14 416.817 1149.56 413.784 1144.87C409.946 1138.69 403.244 1134.09 394.292 1132.32C394.181 1132.3 394.07 1132.28 393.958 1132.26C393.845 1132.24 393.731 1132.21 393.616 1132.19C373.162 1128.15 349.25 1139.57 340.206 1157.71C339.899 1158.32 339.613 1158.94 339.348 1159.55C335.82 1167.67 335.931 1175.67 339.04 1182.29ZM396.464 1161.96C395.684 1163.52 393.579 1164.82 391.476 1164.41L367.545 1159.68C365.414 1159.25 364.829 1157.42 365.609 1155.86C366.547 1153.98 368.883 1153.07 370.597 1153.41L394.595 1158.15C396.309 1158.49 397.402 1160.08 396.464 1161.96ZM378.032 1168.62C380.148 1169.04 380.721 1170.87 379.941 1172.43C379.161 1174 377.029 1175.29 374.953 1174.88L361.24 1172.17C359.526 1171.83 358.433 1170.25 359.371 1168.37C360.31 1166.48 362.645 1165.58 364.359 1165.92L378.032 1168.62Z" fill="#D29EFF"/>
<path d="M-118.722 1159.91C-116.556 1157.81 -113.051 1156.88 -110.32 1157.68L27.9454 1198.11C31.6115 1199.18 32.3243 1202.84 29.4163 1205.65L-69.016 1300.86C-71.1795 1302.96 -74.6802 1303.89 -77.4096 1303.09L-215.761 1262.8C-219.431 1261.73 -220.148 1258.08 -217.24 1255.26L-118.722 1159.91Z" fill="#9487FF"/>
<path d="M-218.872 1236.63L-219.099 1258.99L-72.1571 1288.76L31.2048 1201.77L31.0071 1178.65L-76.0024 1251.81L-218.872 1236.63Z" fill="#9487FF"/>
<path d="M-118.643 1137.03C-116.478 1134.94 -112.971 1134.01 -110.24 1134.81L27.8703 1175.19C31.5603 1176.27 32.2535 1179.96 29.2949 1182.77L-69.3248 1276.57C-71.4763 1278.62 -74.9102 1279.53 -77.612 1278.77L-215.647 1240.02C-219.364 1238.98 -220.114 1235.3 -217.188 1232.47L-118.643 1137.03Z" fill="#B9B2FF"/>
<g opacity="0.6">
<rect x="653.465" y="748.981" width="140.74" height="140.729" rx="13" transform="rotate(-19.6457 653.465 748.981)" fill="#B4A2FE"/>
<rect x="653.465" y="748.981" width="140.74" height="140.729" rx="13" transform="rotate(-19.6457 653.465 748.981)" fill="#FFA3D4"/>
<rect x="650.471" y="746.554" width="136.263" height="136.263" rx="13" transform="rotate(-19.6457 650.471 746.554)" fill="white"/>
<path d="M717.237 773.985C720.683 772.778 723.879 772.78 726.826 773.99C729.723 775.218 731.714 777.38 732.834 780.576C733.918 783.672 733.699 786.888 732.294 790.24C731.421 792.228 729.589 795 726.915 798.572C724.11 802.246 722.647 805.113 722.478 807.191L740.056 801.033L741.858 806.176L716.989 814.888C715.712 811.243 715.758 807.694 717.211 804.158C717.984 802.205 719.961 799.046 723.109 794.747C724.846 792.345 725.972 790.436 726.603 789.038C727.539 786.748 727.673 784.57 726.973 782.573C726.291 780.625 725.235 779.369 723.903 778.77C722.522 778.189 720.817 778.282 718.769 778.999C716.572 779.769 715.187 781.095 714.613 782.978C714.004 784.761 714.157 787.119 715.037 789.95L709.194 791.997C707.844 787.984 707.873 784.386 709.313 781.134C710.751 777.715 713.392 775.332 717.237 773.985ZM747.13 763.513C754.122 761.064 759.204 762.928 762.377 769.105L756.684 771.099C754.83 768.048 752.156 767.135 748.76 768.325C746.363 769.165 744.868 770.978 744.292 773.815C743.663 776.502 743.976 779.476 745.131 782.772L745.288 783.221L745.538 783.134C746.012 781.286 746.893 779.8 748.146 778.576C749.299 777.387 750.792 776.527 752.59 775.898C756.086 774.673 759.267 774.792 762.152 776.304C765.036 777.817 767.1 780.346 768.324 783.842C769.584 787.437 769.368 790.821 767.775 793.958C766.183 797.094 763.607 799.343 760.061 800.585C755.666 802.124 751.761 801.698 748.362 799.357C744.98 797.065 742.394 793.206 740.487 787.762C738.441 781.92 737.995 776.806 739.182 772.353C740.319 767.918 742.986 764.965 747.13 763.513ZM753.004 781.079C750.806 781.849 749.336 783.093 748.61 784.861C747.816 786.597 747.864 788.654 748.669 790.951C749.456 793.199 750.735 794.769 752.488 795.612C754.242 796.456 756.117 796.528 758.164 795.811C760.262 795.076 761.665 793.799 762.473 791.946C763.282 790.093 763.301 788.068 762.532 785.871C761.762 783.674 760.5 782.153 758.847 781.275C757.076 780.381 755.151 780.327 753.004 781.079Z" fill="#FF88A8"/>
</g>
<ellipse cx="660.484" cy="1360.77" rx="53.3452" ry="14.3476" transform="rotate(-13.4808 660.484 1360.77)" fill="url(#paint4_linear_8_542)"/>
<circle cx="623.57" cy="1342.09" r="36.9128" fill="#46EEB5"/>
<circle cx="623.57" cy="1342.09" r="36.9128" fill="url(#paint5_radial_8_542)" fill-opacity="0.3"/>
<path fill-rule="evenodd" clip-rule="evenodd" d="M588.283 1352.96C603.244 1357.86 620.398 1353.05 630.661 1339.75C637.898 1330.36 640.181 1318.74 637.902 1308.06C633.495 1306.2 628.652 1305.18 623.569 1305.18C603.183 1305.18 586.656 1321.7 586.656 1342.09C586.656 1345.87 587.226 1349.52 588.283 1352.96Z" fill="#EFEFEF"/>
<path fill-rule="evenodd" clip-rule="evenodd" d="M588.283 1352.96C603.244 1357.86 620.398 1353.05 630.661 1339.75C637.898 1330.36 640.181 1318.74 637.902 1308.06C633.495 1306.2 628.652 1305.18 623.569 1305.18C603.183 1305.18 586.656 1321.7 586.656 1342.09C586.656 1345.87 587.226 1349.52 588.283 1352.96Z" fill="#E73001"/>
<path fill-rule="evenodd" clip-rule="evenodd" d="M588.283 1352.96C603.244 1357.86 620.398 1353.05 630.661 1339.75C637.898 1330.36 640.181 1318.74 637.902 1308.06C633.495 1306.2 628.652 1305.18 623.569 1305.18C603.183 1305.18 586.656 1321.7 586.656 1342.09C586.656 1345.87 587.226 1349.52 588.283 1352.96Z" fill="#32DEA4"/>
<path fill-rule="evenodd" clip-rule="evenodd" d="M588.283 1352.96C603.244 1357.86 620.398 1353.05 630.661 1339.75C637.898 1330.36 640.181 1318.74 637.902 1308.06C633.495 1306.2 628.652 1305.18 623.569 1305.18C603.183 1305.18 586.656 1321.7 586.656 1342.09C586.656 1345.87 587.226 1349.52 588.283 1352.96Z" fill="#EFB4F6"/>
<path fill-rule="evenodd" clip-rule="evenodd" d="M588.283 1352.96C603.244 1357.86 620.398 1353.05 630.661 1339.75C637.898 1330.36 640.181 1318.74 637.902 1308.06C633.495 1306.2 628.652 1305.18 623.569 1305.18C603.183 1305.18 586.656 1321.7 586.656 1342.09C586.656 1345.87 587.226 1349.52 588.283 1352.96Z" fill="#46EEB5"/>
</g>
<defs>
<linearGradient id="paint0_linear_8_542" x1="374.588" y1="-0.078125" x2="374.588" y2="1624.92" gradientUnits="userSpaceOnUse">
<stop stop-color="#F8F1FF"/>
<stop offset="1" stop-color="#F8F1FF"/>
</linearGradient>
<linearGradient id="paint1_linear_8_542" x1="347.854" y1="1454.96" x2="435.138" y2="1438.77" gradientUnits="userSpaceOnUse">
<stop stop-color="#E5CAFF"/>
<stop offset="1" stop-color="#E5CAFF" stop-opacity="0"/>
</linearGradient>
<linearGradient id="paint2_linear_8_542" x1="245.429" y1="1334.61" x2="346.831" y2="1314.71" gradientUnits="userSpaceOnUse">
<stop stop-color="#E5CAFF"/>
<stop offset="1" stop-color="#E5CAFF" stop-opacity="0"/>
</linearGradient>
<linearGradient id="paint3_linear_8_542" x1="-62.2935" y1="1227.11" x2="39.1091" y2="1207.22" gradientUnits="userSpaceOnUse">
<stop stop-color="#E5CAFF"/>
<stop offset="1" stop-color="#E5CAFF" stop-opacity="0"/>
</linearGradient>
<linearGradient id="paint4_linear_8_542" x1="635.542" y1="1368.88" x2="714.536" y2="1356.33" gradientUnits="userSpaceOnUse">
<stop stop-color="#E5CAFF"/>
<stop offset="1" stop-color="#E5CAFF" stop-opacity="0"/>
</linearGradient>
<radialGradient id="paint5_radial_8_542" cx="0" cy="0" r="1" gradientUnits="userSpaceOnUse" gradientTransform="translate(614.677 1332.67) rotate(42.2208) scale(47.3643 50.8563)">
<stop stop-color="#46EEB5"/>
<stop offset="0.604476" stop-color="#3BEEB8"/>
<stop offset="0.973958" stop-color="#0874C2" stop-opacity="0.76"/>
</radialGradient>
<clipPath id="clip0_8_542">
<rect width="750" height="1624" fill="white"/>
</clipPath>
</defs>
</svg>
