<svg width="750" height="1624" viewBox="0 0 750 1624" fill="none" xmlns="http://www.w3.org/2000/svg">
<g clip-path="url(#clip0_8_831)">
<rect width="750" height="1624" fill="white"/>
<rect y="-19.8984" width="750" height="1643.9" fill="#394CF9"/>
<rect y="-19.8984" width="750" height="1643.9" fill="#EBF0FF"/>
<path d="M-19.5859 987.348L330.689 1072.69V1236.31L-19.5859 1152.12V987.348Z" fill="#E9EBFF"/>
<path d="M330.46 1072.86L435.533 994.887L435.533 1158.22L330.798 1236.24L330.46 1072.86Z" fill="#BFC7FC"/>
<path d="M89.2464 909.867L435.658 994.695L330.168 1072.61L-19.5859 988.398L89.2464 909.867Z" fill="white"/>
<circle cx="740.782" cy="681.876" r="71.7822" fill="#FFBC2A"/>
<circle cx="740.782" cy="681.876" r="71.7822" fill="#FE9201" fill-opacity="0.6"/>
<g style="mix-blend-mode:multiply">
<circle cx="740.782" cy="681.876" r="71.7822" fill="url(#paint0_linear_8_831)"/>
</g>
<path opacity="0.6" d="M823.793 1297.46C823.793 1297.46 451.207 1405.55 349.949 1433.21C393.832 1364.83 408.119 1303.22 430.861 1259.81L502.821 1278.24L650.883 1161.43L799.838 1130.35L823.793 1297.46Z" fill="url(#paint1_linear_8_831)"/>
<path d="M405.086 1090.09L560.172 1127.6V1292.19L405.086 1254.43V1090.09Z" fill="#4E44FF"/>
<path d="M405.086 1090.09L560.172 1127.6V1292.19L405.086 1254.43V1090.09Z" fill="#4F5FFB"/>
<path d="M559.754 1127.28L659.55 1048.11L658.175 1211.54L559.754 1291.77V1127.28Z" fill="#5549FF"/>
<path d="M559.754 1127.28L659.55 1048.11L658.175 1211.54L559.754 1291.77V1127.28Z" fill="#2B38BA"/>
<path d="M507.624 1011.1L659.429 1048.22L559.755 1127.46L405.086 1090.23L507.624 1011.1Z" fill="#6457FF"/>
<path d="M507.624 1011.1L659.429 1048.22L559.755 1127.46L405.086 1090.23L507.624 1011.1Z" fill="#6775FF"/>
<path d="M260.739 1015.9L310.147 1028.54C310.147 1028.54 344.648 999.587 345.58 998.805C346.512 998.023 349.681 996.297 352.962 997.136C349.681 996.297 354.738 997.591 352.962 997.136C356.243 997.976 354.696 1000.17 353.815 1000.91C353.024 1001.58 316.09 1032.57 315.158 1033.36C314.226 1034.14 310.986 1035.82 307.817 1035.01C304.649 1034.2 254.292 1021.31 254.292 1021.31L244.839 1029.25C243.473 1030.39 240.691 1030.5 240.224 1029.42L233.471 1013.81C233.128 1013.02 234.315 1012.02 235.947 1011.73L268.053 1006.06C270.269 1005.67 271.558 1006.82 270.192 1007.97L260.739 1015.9Z" fill="#5767FE"/>
<ellipse cx="535.912" cy="1516.2" rx="91.2979" ry="31.0527" transform="rotate(-12.8222 535.912 1516.2)" fill="url(#paint2_linear_8_831)"/>
<path fill-rule="evenodd" clip-rule="evenodd" d="M439.698 1495.09C426.783 1505.39 421.274 1516.43 422.735 1526.11L409.869 1530.11C403.463 1532.1 401.833 1536.69 407.034 1538.09L448.23 1549.21L448.282 1549.17C449.198 1549.45 450.139 1549.73 451.103 1549.99C452.777 1550.44 454.491 1550.84 456.239 1551.2C457.555 1544.74 462.213 1537.88 470.368 1531.38C493.011 1513.32 534.036 1504.79 561.998 1512.34C565.361 1513.25 568.382 1514.35 571.054 1515.61C583.628 1497.66 570.205 1478.49 548.187 1472.55C515.079 1463.61 466.507 1473.71 439.698 1495.09Z" fill="#FFB937"/>
<path d="M559.836 1529.31C532.631 1550.36 483.766 1559.76 450.694 1550.31C417.622 1540.85 412.866 1516.13 440.072 1495.08C467.277 1474.03 516.142 1464.63 549.214 1474.09C578.042 1482.33 587.042 1508.27 559.836 1529.31Z" fill="#FFB937"/>
<path d="M403.887 1535.27L404.08 1519.19L576.439 1481.92L576.165 1504.67L502.044 1543.65L403.887 1535.27Z" fill="#FFB937"/>
<path fill-rule="evenodd" clip-rule="evenodd" d="M438.906 1478.08C425.991 1488.38 420.482 1499.42 421.943 1509.1L409.077 1513.1C402.671 1515.09 401.041 1519.68 406.242 1521.08L447.438 1532.2L447.49 1532.15C448.406 1532.44 449.347 1532.71 450.311 1532.98C451.985 1533.43 453.699 1533.83 455.447 1534.19C456.763 1527.72 461.421 1520.87 469.576 1514.37C492.219 1496.31 533.244 1487.78 561.206 1495.33C564.569 1496.24 567.59 1497.33 570.262 1498.6C582.836 1480.65 574.498 1462.85 547.395 1455.54C514.287 1446.6 465.715 1456.69 438.906 1478.08Z" fill="#FCE65C"/>
<path d="M559.304 1510.41C532.414 1531.86 483.694 1541.98 450.485 1533.02C417.277 1524.06 412.155 1499.41 439.045 1477.96C465.936 1456.51 514.656 1446.39 547.864 1455.35C581.073 1464.31 586.195 1488.96 559.304 1510.41Z" fill="#FCE65C"/>
<path d="M479.199 1479.73L536.166 1495.1" stroke="white" stroke-width="6" stroke-linecap="round"/>
<path d="M461.932 1493.51L504.213 1504.92" stroke="white" stroke-width="6" stroke-linecap="round"/>
<path d="M40.6191 1193.79L195.705 1230.95V1393.97L40.6191 1353.53V1193.79Z" fill="#4E44FF"/>
<path d="M40.6191 1193.79L195.705 1230.95V1393.97L40.6191 1353.53V1193.79Z" fill="#4F5FFB"/>
<path d="M195.291 1230.63L295.087 1152.22L293.713 1314.09L195.291 1393.55V1230.63Z" fill="#5549FF"/>
<path d="M195.291 1230.63L295.087 1152.22L293.713 1314.09L195.291 1393.55V1230.63Z" fill="#2B38BA"/>
<path d="M143.158 1115.56L294.962 1152.33L195.288 1230.81L40.6191 1193.94L143.158 1115.56Z" fill="#6457FF"/>
<path d="M143.158 1115.56L294.962 1152.33L195.288 1230.81L40.6191 1193.94L143.158 1115.56Z" fill="#6775FF"/>
<path d="M192.492 1230.29L347.578 1269.05V1433.31L192.492 1393.08V1230.29Z" fill="#4E44FF"/>
<path d="M192.492 1230.29L347.578 1269.05V1433.31L192.492 1393.08V1230.29Z" fill="#4F5FFB"/>
<path d="M347.164 1268.73L446.96 1189.55L445.586 1352.99L347.164 1433.21V1268.73Z" fill="#5549FF"/>
<path d="M347.164 1268.73L446.96 1189.55L445.586 1352.99L347.164 1433.21V1268.73Z" fill="#2B38BA"/>
<path d="M292.65 1151.7L446.835 1189.66L347.162 1268.9L192.752 1230.57L292.65 1151.7Z" fill="#6457FF"/>
<path d="M292.65 1151.7L446.835 1189.66L347.162 1268.9L192.752 1230.57L292.65 1151.7Z" fill="#6775FF"/>
<path d="M562.93 1047.32C564.935 1047.84 565.972 1048.69 566.263 1049.93C566.641 1051.1 566.002 1052.4 564.433 1053.75C562.865 1055.1 560.976 1055.98 558.593 1056.54C556.298 1057.02 554.215 1057.07 552.21 1056.56C550.205 1056.04 549.056 1055.16 548.79 1054.02C548.499 1052.77 549.162 1051.58 550.73 1050.23C552.299 1048.87 554.163 1047.89 556.459 1047.41C558.73 1046.82 560.924 1046.8 562.93 1047.32ZM530.882 1075.06C533.333 1075.69 534.554 1076.88 534.458 1078.71C534.424 1080.36 533.2 1082.28 530.585 1084.54C526.75 1087.84 521.903 1090.4 516.131 1092.13C510.445 1093.79 504.629 1094.43 498.904 1094.13L503.261 1090.38C506.855 1090.52 510.502 1090 514.115 1088.88C517.529 1087.81 520.226 1086.36 522.318 1084.55C521.698 1084.59 520.719 1084.43 519.605 1084.15C517.711 1083.66 516.674 1082.81 516.408 1081.67C516.117 1080.42 516.755 1079.12 518.237 1077.85C519.893 1076.42 521.757 1075.44 524.053 1074.96C526.436 1074.4 528.654 1074.48 530.882 1075.06Z" fill="white"/>
<circle cx="12.7474" cy="12.7474" r="12.7474" transform="matrix(0.968441 0.249243 -0.757596 0.652724 517 1068.61)" fill="white"/>
<circle cx="12.7474" cy="12.7474" r="12.7474" transform="matrix(0.968441 0.249243 -0.757596 0.652724 549.792 1040.36)" fill="white"/>
<path d="M179.593 1174.38L131.668 1161.76C129.687 1161.24 126.818 1161.89 125.259 1163.22C123.7 1164.55 124.042 1166.05 126.022 1166.57L173.943 1179.18L148.635 1184.95C146.133 1185.52 144.351 1187.05 144.648 1188.36C144.945 1189.66 147.208 1190.26 149.706 1189.69L188.234 1180.91C188.835 1180.77 189.383 1180.51 189.757 1180.2C190.131 1179.88 190.301 1179.52 190.23 1179.21L185.638 1159.06C185.342 1157.76 183.061 1157.17 180.575 1157.74C178.084 1158.3 176.279 1159.83 176.576 1161.13L179.593 1174.38ZM183.633 1197.47C185.613 1198 188.482 1197.34 190.041 1196.01L218.268 1171.96C219.827 1170.63 219.485 1169.14 217.505 1168.61C215.524 1168.09 212.655 1168.75 211.096 1170.08L182.869 1194.13C181.31 1195.45 181.652 1196.95 183.633 1197.47Z" fill="white"/>
</g>
<defs>
<linearGradient id="paint0_linear_8_831" x1="768.709" y1="698.684" x2="678.66" y2="666.977" gradientUnits="userSpaceOnUse">
<stop stop-color="#FFBC2A"/>
<stop offset="1" stop-color="#FFCC5D" stop-opacity="0.33"/>
</linearGradient>
<linearGradient id="paint1_linear_8_831" x1="494.587" y1="1322.5" x2="865.978" y2="1207.75" gradientUnits="userSpaceOnUse">
<stop stop-color="#5E78FC"/>
<stop offset="1" stop-color="#5E78FC" stop-opacity="0"/>
</linearGradient>
<linearGradient id="paint2_linear_8_831" x1="546.985" y1="1524.07" x2="657.545" y2="1516.07" gradientUnits="userSpaceOnUse">
<stop stop-color="#B6C3FE"/>
<stop offset="1" stop-color="#B6C3FE" stop-opacity="0"/>
</linearGradient>
<clipPath id="clip0_8_831">
<rect width="750" height="1624" fill="white"/>
</clipPath>
</defs>
</svg>
