<svg width="750" height="1624" viewBox="0 0 750 1624" fill="none" xmlns="http://www.w3.org/2000/svg">
<g clip-path="url(#clip0_8_1048)">
<rect width="750" height="1624" fill="white"/>
<rect y="-176" width="750" height="1800" fill="url(#paint0_linear_8_1048)"/>
<rect x="-54.1953" y="777.609" width="695.736" height="687.312" transform="rotate(15.624 -54.1953 777.609)" fill="#7D7FFF"/>
<path opacity="0.6" d="M134.438 900.038L-24.2656 858.199L-33.4805 1017.89L135.336 905.436C137.489 904.002 136.939 900.698 134.438 900.038Z" fill="#4C52F8"/>
<path d="M115.844 906.508L115.867 906.514V883.293L96.2715 898.931L-23.5735 977.249L-38.7852 1010.54L-23.5735 1000.49L114.297 909.416C115.368 908.709 115.86 907.601 115.844 906.508Z" fill="#7F7CFE"/>
<path d="M114.599 882.051L-31.5786 843.09L-39.575 987.444L115.453 887.471C117.641 886.059 117.116 882.721 114.599 882.051Z" fill="#9AA7FF"/>
<path d="M-98.9609 947.668L-8.31247 887.247L19.8288 894.146L-70.8196 954.567L-98.9609 947.668Z" fill="#7F8FFF"/>
<path d="M-83.7656 942.168L-4.77435 889.517L0.1084 891.311L-78.8828 943.962L-83.7656 942.168Z" fill="#DEE1FF"/>
<g style="mix-blend-mode:multiply">
<path d="M128.332 993.685L-35.3177 1109.02L-52.3126 1083.12L109.388 973.687L146.862 965.54C148.715 965.137 150.036 967.3 148.831 968.765L128.332 993.685Z" fill="#DAE0FE"/>
</g>
<path d="M72.8532 973.523L-40.4515 1049.06L-48.4023 1107.37L93.3945 1007.98L131.829 959.938C133.051 958.41 131.579 956.217 129.702 956.77L72.8532 973.523Z" fill="#BFC5FF"/>
<path d="M94.3937 1006.73C99.3606 988.884 91.9064 971.944 72.5651 973.713L-34.32 1044.97C-34.825 1048.29 -35.4424 1051.83 -36.0733 1055.44C-39.143 1073.02 -42.5314 1092.43 -34.8403 1097.86L93.3904 1007.98L94.3937 1006.73Z" fill="#E9EBFF"/>
<path d="M94.3937 1006.73C99.3606 988.884 91.9064 971.944 72.5651 973.713L-34.32 1044.97C-34.825 1048.29 -35.4424 1051.83 -36.0733 1055.44C-39.143 1073.02 -42.5314 1092.43 -34.8403 1097.86L93.3904 1007.98L94.3937 1006.73Z" fill="url(#paint1_linear_8_1048)"/>
<path d="M99.9922 965.522C105.013 965.973 108.439 968.145 110.735 971.049C113.061 973.989 114.369 977.873 113.437 982.921L116.276 979.373C116.299 975.443 115.183 971.996 113.023 969.265C111.097 966.83 108.409 965.05 105.131 964.008L99.9922 965.522Z" fill="#F4F5FF"/>
<path opacity="0.8" d="M425.63 1041.99L-141.051 1400.2L163.603 1653.78L964.065 1665.26C965.386 1425.68 1103.6 756.86 1100.43 700.558C1063.97 698.83 1052.44 665.91 1027.76 660.477C982.417 650.497 774.071 599.568 676.977 578.82C752.844 697.027 694.073 789.076 658.563 852.67C633.909 896.824 532.271 983.903 425.63 1041.99Z" fill="#506CFF"/>
<path d="M383.318 1051.85L-183.363 1410.07L121.291 1663.64L921.752 1675.13C923.073 1435.55 1061.29 766.727 1058.12 710.425C1021.66 708.698 1009.58 683.222 985.102 676.914C919.969 660.127 731.956 610.438 634.665 588.688C710.531 706.894 651.761 798.943 616.251 862.538C591.596 906.691 489.959 993.77 383.318 1051.85Z" fill="#5174FF"/>
<path d="M347.974 1060.48L-218.707 1418.69L85.9469 1672.27L886.408 1683.75C887.729 1444.18 1025.95 775.353 1022.78 719.051C909.897 674.9 719.085 633.727 593.575 606.734C669.442 724.941 616.417 807.57 580.907 871.164C556.252 915.318 454.615 1002.4 347.974 1060.48Z" fill="#6F8DFF"/>
<path d="M305.877 1083.48L-260.805 1441.69L43.8492 1695.27L844.311 1706.75C845.632 1467.18 986.3 786.104 983.129 729.802C866.979 697.954 676.987 656.727 551.477 629.734C627.344 747.941 574.319 830.57 538.809 894.164C514.155 938.318 412.518 1025.4 305.877 1083.48Z" fill="#ABBEFF"/>
<path d="M270.938 1053.29L-303.246 1461.52L27.0634 1733.07L827.525 1744.56C828.846 1504.98 967.065 836.159 963.894 779.857C927.429 778.13 898.818 708.053 876.621 720.143C854.425 732.232 615.859 675.816 500.075 651.648C560.964 732.125 545.026 823.952 455.525 909.617C425.206 938.636 370.28 980.248 270.938 1053.29Z" fill="#E9EEFF"/>
<g opacity="0.6">
<path d="M788.796 1363.11C788.796 1363.11 712.867 1380.31 593.373 1415.86C587.881 1379.42 606.548 1298.14 606.548 1298.14L629.153 1206.23H784.951L788.796 1363.11Z" fill="#607AFC"/>
<path d="M788.796 1363.11C788.796 1363.11 712.867 1380.31 593.373 1415.86C587.881 1379.42 606.548 1298.14 606.548 1298.14L629.153 1206.23H784.951L788.796 1363.11Z" fill="url(#paint2_linear_8_1048)" fill-opacity="0.2"/>
<path d="M788.796 1363.11C788.796 1363.11 712.867 1380.31 593.373 1415.86C587.881 1379.42 606.548 1298.14 606.548 1298.14L629.153 1206.23H784.951L788.796 1363.11Z" fill="#5E78FC"/>
</g>
<path opacity="0.6" d="M415.805 1367.55L305.792 1449.73L521.651 1396.58L415.805 1367.55Z" fill="#607AFC"/>
<path d="M378.118 1533.08C375.121 1507.15 337.65 1502.32 337.65 1502.32L174.788 1480.22L348.853 1563.96C348.853 1563.96 380.651 1555 378.118 1533.08Z" fill="#91A4FD"/>
<path d="M243.959 949.867L418.127 1001.32L416.48 1180.69L243.959 1129.95V949.867Z" fill="#E9EBFF"/>
<path d="M130.928 1213.6L306.244 1266.16V1449.96L130.928 1398.25V1213.6Z" fill="#3245F6" fill-opacity="0.8"/>
<path d="M130.928 1213.6L306.244 1266.16V1449.96L130.928 1398.25V1213.6Z" fill="#C1CFFF"/>
<path d="M130.928 1213.6L306.244 1266.16V1449.96L130.928 1398.25V1213.6Z" fill="#4F5FFB"/>
<path d="M404.721 1178.15L593.599 1229.66V1416.12L404.721 1364.61V1178.15Z" fill="#3B4DFF"/>
<path opacity="0.3" d="M593.374 1217.42L410.819 1168.45L593.374 1400.3V1217.42Z" fill="#1225E2"/>
<path d="M306.237 1266.24L416.155 1182.36V1367.93L306.237 1449.96V1266.24Z" fill="#3D4CE2"/>
<path d="M306.237 1266.24L416.155 1182.36V1367.93L306.237 1449.96V1266.24Z" fill="#828FFF" fill-opacity="0.5"/>
<path d="M306.237 1266.24L416.155 1182.36V1367.93L306.237 1449.96V1266.24Z" fill="#2B38BA"/>
<path d="M243.481 1130.61L422.013 1178.49L306.151 1266.17L130.928 1213.77L243.481 1130.61Z" fill="#7784FF"/>
<path d="M243.481 1130.61L422.013 1178.49L306.151 1266.17L130.928 1213.77L243.481 1130.61Z" fill="#DFE1FF"/>
<path d="M243.481 1130.61L422.013 1178.49L306.151 1266.17L130.928 1213.77L243.481 1130.61Z" fill="#6775FF"/>
<path d="M242.074 1216.12C281.57 1222.97 361.265 1202.95 361.265 1202.95V1171.5L278.078 1158.54C278.078 1158.54 232.891 1173.9 242.074 1216.12Z" fill="#2F41F6"/>
<circle cx="452.23" cy="1352.02" r="102.993" fill="#FFBC2A"/>
<circle cx="452.23" cy="1352.02" r="102.993" fill="#FE9201" fill-opacity="0.6"/>
<g style="mix-blend-mode:multiply">
<circle cx="452.23" cy="1352.02" r="102.993" fill="url(#paint3_linear_8_1048)"/>
</g>
<path d="M481.659 1137.2L594.019 1054.25L594.342 1237L481.659 1319.41V1137.2Z" fill="#BFC7FC"/>
<path d="M481.659 1137.2L594.019 1054.25L594.342 1237L481.659 1319.41V1137.2Z" fill="#BFC7FC"/>
<path d="M594.006 1054.28L699.079 974.555V1159.59L594.343 1237.01L594.006 1054.28Z" fill="#BFC7FC"/>
<path d="M593.374 1237.71L699.078 1159.56V1336.39L593.374 1415.68V1237.71Z" fill="#28318C"/>
<path d="M593.374 1237.71L699.078 1159.56V1336.39L593.374 1415.68V1237.71Z" fill="#424FD2"/>
<path d="M593.374 1237.71L699.078 1159.56V1336.39L593.374 1415.68V1237.71Z" fill="#2B38BA"/>
<path d="M528.163 924.203L699.077 974.555L593.939 1053.27L418.956 1001.12L528.163 924.203Z" fill="white"/>
<path d="M352.792 871.342L528.16 924.198L419.221 1001.24L243.959 949.872L352.792 871.332V871.342Z" fill="white"/>
<path fill-rule="evenodd" clip-rule="evenodd" d="M614.184 949.781L699.111 974.564L637.837 1021.05C633.488 1021.54 627.731 1022.26 623.172 1022.46C577.13 1024.43 543.813 1009.99 542.948 989.755C542.168 971.492 569.712 955.294 609.376 950.817L614.184 949.781Z" fill="url(#paint4_linear_8_1048)" fill-opacity="0.8"/>
<path d="M418.132 1001.33L593.899 1053.23L481.643 1137.4L306.225 1084.89L418.132 1001.33Z" fill="white"/>
<path d="M306.239 1084.88L481.657 1137.39V1318.71L306.151 1266.17L306.239 1084.88Z" fill="#F4F5FF"/>
<g clip-path="url(#clip1_8_1048)">
<path fill-rule="evenodd" clip-rule="evenodd" d="M342.002 1186.33C342.002 1197.26 346.062 1208.52 352.683 1218.03L348.858 1222.71C346.953 1225.04 348.961 1229.68 352.352 1230.78L379.201 1239.5L379.199 1239.45C379.821 1239.69 380.446 1239.91 381.074 1240.11C382.165 1240.46 383.246 1240.77 384.314 1241.02C381.01 1234.55 379.094 1227.49 379.094 1220.59C379.094 1201.43 393.869 1190.69 412.094 1196.62C414.285 1197.33 416.427 1198.25 418.499 1199.35C413.666 1180.86 398.739 1163.68 381.074 1157.95C359.495 1150.93 342.002 1163.64 342.002 1186.33Z" fill="#427BFF"/>
<path d="M420.379 1211.67C420.379 1234.43 402.833 1247.18 381.189 1240.15C359.545 1233.12 341.999 1208.97 341.999 1186.21C341.999 1163.45 359.545 1150.7 381.189 1157.73C402.833 1164.77 420.379 1188.92 420.379 1211.67Z" fill="#427BFF"/>
<path fill-rule="evenodd" clip-rule="evenodd" d="M430.894 1253.77C434.709 1250.34 437.014 1245.01 437.014 1238.37C437.014 1223.61 425.637 1207.96 411.603 1203.4C397.57 1198.84 386.194 1207.1 386.194 1221.86C386.194 1236.61 397.57 1252.27 411.603 1256.83C412.142 1257.01 412.677 1257.16 413.208 1257.3V1257.35L428.967 1262.47C432.371 1263.58 434.377 1260.21 432.444 1256.64L430.894 1253.77Z" fill="#45CAFF"/>
</g>
<path d="M471.044 1064.05C474.373 1067.63 475.291 1071.59 473.275 1075.71C471.326 1079.57 467.381 1082.93 461.071 1085.74C451.497 1089.99 441.044 1091.65 429.712 1090.7C418.814 1089.56 408.731 1085.99 399.981 1080.21L410.643 1075.48C416.536 1078.84 422.978 1080.81 429.751 1081.48C436.59 1081.89 442.436 1080.9 447.658 1078.58C446.618 1078.13 444.972 1077.02 443.458 1075.39C440.886 1072.62 440.073 1069.76 440.868 1066.64C441.663 1063.53 444.018 1061.1 447.717 1059.46C451.851 1057.62 456.023 1057.15 460.233 1058.04C464.66 1058.83 468.017 1060.79 471.044 1064.05Z" fill="#5767FE"/>
<ellipse cx="26.196" cy="20.2525" rx="26.196" ry="20.2525" transform="matrix(0.958931 0.283639 -0.354087 0.935212 434.28 1037.28)" fill="#5767FE"/>
<path d="M397.867 908.205L415.928 916.097L364.024 942.312L358.15 937.715L397.867 908.205Z" fill="#7C87F2"/>
<ellipse cx="11.1119" cy="5.23294" rx="11.1119" ry="5.23294" transform="matrix(0.993724 0.111789 -0.113234 0.993577 339.088 940.18)" fill="#7C87F2"/>
<ellipse cx="11.1119" cy="5.23294" rx="11.1119" ry="5.23294" transform="matrix(0.993724 0.111789 -0.113234 0.993577 396.502 905.75)" fill="#7C87F2"/>
<circle cx="569.61" cy="897.322" r="103.314" fill="#FFBC2A"/>
<circle cx="569.61" cy="897.322" r="103.314" fill="#FFDB50"/>
<g style="mix-blend-mode:multiply">
<circle cx="569.61" cy="897.322" r="103.314" fill="url(#paint5_linear_8_1048)"/>
</g>
<path opacity="0.7" d="M468.591 870.356C469.861 870.128 470.712 868.951 470.492 867.728C470.272 866.504 469.064 865.698 467.794 865.926C466.524 866.155 465.673 867.332 465.893 868.555C466.113 869.778 467.321 870.585 468.591 870.356Z" fill="#D07000"/>
<path opacity="0.7" d="M481.809 864.28C483.079 864.052 483.921 862.827 483.691 861.545C483.46 860.263 482.244 859.409 480.974 859.637C479.704 859.866 478.861 861.09 479.092 862.372C479.323 863.654 480.539 864.508 481.809 864.28Z" fill="#D07000"/>
<path opacity="0.7" d="M478.712 874.66C479.982 874.432 480.825 873.206 480.594 871.923C480.363 870.639 479.146 869.784 477.876 870.012C476.606 870.241 475.764 871.466 475.995 872.75C476.226 874.033 477.442 874.889 478.712 874.66Z" fill="#D07000"/>
<ellipse cx="520.736" cy="846.182" rx="31.9658" ry="34.914" transform="rotate(21.228 520.736 846.182)" fill="white"/>
<path fill-rule="evenodd" clip-rule="evenodd" d="M503.922 876.276C520.217 880.914 537.907 870.842 543.977 853.153C549.503 837.047 543.551 820.013 530.585 812.303C531.09 812.447 531.595 812.605 532.097 812.777C548.796 818.507 557.259 837.938 551 856.176C544.742 874.415 526.132 884.555 509.433 878.825C507.48 878.155 505.64 877.297 503.922 876.276Z" fill="url(#paint6_linear_8_1048)"/>
<ellipse cx="582.994" cy="851.372" rx="36.3504" ry="37.2716" transform="rotate(16.2405 582.994 851.372)" fill="white"/>
<path opacity="0.8" fill-rule="evenodd" clip-rule="evenodd" d="M559.722 876.98C577.796 885.72 599.712 877.782 608.673 859.25C614.577 847.041 613.384 833.279 606.715 822.811C617.291 831.941 622.141 846.962 617.894 861.542C612.137 881.305 591.845 892.775 572.571 887.161C564.163 884.712 557.338 879.416 552.792 872.584C554.883 874.279 557.199 875.76 559.722 876.98Z" fill="url(#paint7_linear_8_1048)"/>
<path fill-rule="evenodd" clip-rule="evenodd" d="M630.952 901.693C630.952 901.693 647.703 877.182 630.952 863.683C607.17 847.115 587.607 872.599 596.141 889.838" fill="url(#paint8_radial_8_1048)"/>
<path fill-rule="evenodd" clip-rule="evenodd" d="M630.952 901.693C630.952 901.693 647.703 877.182 630.952 863.683C607.17 847.115 587.607 872.599 596.141 889.838" fill="#FFD85A"/>
<path fill-rule="evenodd" clip-rule="evenodd" d="M630.952 901.693C630.952 901.693 647.703 877.182 630.952 863.683C607.17 847.115 587.607 872.599 596.141 889.838" fill="url(#paint9_linear_8_1048)"/>
<path opacity="0.7" d="M623.931 885.018C625.389 885.018 626.571 883.848 626.571 882.405C626.571 880.963 625.389 879.793 623.931 879.793C622.473 879.793 621.292 880.963 621.292 882.405C621.292 883.848 622.473 885.018 623.931 885.018Z" fill="#D78100"/>
<path opacity="0.7" d="M609.7 876.561C611.134 876.561 612.297 875.391 612.297 873.948C612.297 872.506 611.134 871.336 609.7 871.336C608.266 871.336 607.104 872.506 607.104 873.948C607.104 875.391 608.266 876.561 609.7 876.561Z" fill="#D78100"/>
<path opacity="0.7" d="M613.826 886.971C615.353 886.971 616.591 885.801 616.591 884.358C616.591 882.916 615.353 881.746 613.826 881.746C612.299 881.746 611.061 882.916 611.061 884.358C611.061 885.801 612.299 886.971 613.826 886.971Z" fill="#D78100"/>
<path d="M517.237 861.541C521.386 865.886 528.477 865.06 533.074 859.697C537.672 854.333 538.035 846.462 533.886 842.117C529.737 837.772 522.647 838.598 518.049 843.962C513.452 849.326 513.088 857.196 517.237 861.541Z" fill="url(#paint10_linear_8_1048)"/>
<path d="M517.237 861.541C521.386 865.886 528.477 865.06 533.074 859.697C537.672 854.333 538.035 846.462 533.886 842.117C529.737 837.772 522.647 838.598 518.049 843.962C513.452 849.326 513.088 857.196 517.237 861.541Z" fill="#741007"/>
<path d="M517.237 861.541C521.386 865.886 528.477 865.06 533.074 859.697C537.672 854.333 538.035 846.462 533.886 842.117C529.737 837.772 522.647 838.598 518.049 843.962C513.452 849.326 513.088 857.196 517.237 861.541Z" stroke="url(#paint11_radial_8_1048)" stroke-width="5.82013" stroke-miterlimit="10"/>
<path d="M524.267 846.79C525.453 848.031 527.478 847.795 528.792 846.263C530.106 844.73 530.209 842.481 529.024 841.24C527.838 839.999 525.813 840.235 524.499 841.767C523.185 843.3 523.082 845.548 524.267 846.79Z" fill="white"/>
<path d="M516.334 854.282C516.927 854.902 517.94 854.784 518.596 854.018C519.253 853.252 519.305 852.127 518.712 851.507C518.12 850.886 517.107 851.004 516.45 851.77C515.793 852.537 515.741 853.661 516.334 854.282Z" fill="white"/>
<path d="M522.083 856.087C523.861 857.949 526.9 857.595 528.87 855.296C530.841 852.998 530.996 849.625 529.218 847.762C527.44 845.9 524.401 846.254 522.431 848.553C520.461 850.852 520.305 854.225 522.083 856.087Z" fill="#731007"/>
<path d="M522.083 856.087C523.861 857.949 526.9 857.595 528.87 855.296C530.841 852.998 530.996 849.625 529.218 847.762C527.44 845.9 524.401 846.254 522.431 848.553C520.461 850.852 520.305 854.225 522.083 856.087Z" fill="#640B03"/>
<path d="M477.763 882.83L485.041 879.296" stroke="#731007" stroke-width="4.8953" stroke-miterlimit="10" stroke-linecap="round" stroke-linejoin="round"/>
<path d="M600.316 889.695L614.448 897.546" stroke="#731007" stroke-width="4.8953" stroke-miterlimit="10" stroke-linecap="round" stroke-linejoin="round"/>
<path fill-rule="evenodd" clip-rule="evenodd" d="M511.861 918.251L509.645 935.325L520.361 938.491C520.361 938.491 521.279 926.559 521.954 922.253C517.946 921.281 511.861 918.251 511.861 918.251Z" fill="white"/>
<path fill-rule="evenodd" clip-rule="evenodd" d="M538.626 924.746L537.677 940.665L524.692 939C524.692 939 525.734 927.071 526.178 922.883C530.847 924.033 538.626 924.746 538.626 924.746Z" fill="white"/>
<path d="M481.569 881.648C485.371 898.069 500.468 919.108 524.806 924.211C549.144 929.315 581.865 924.211 605.42 894.603" stroke="#731007" stroke-width="4.8953"/>
<path d="M561.48 863.624C565.847 867.881 573.133 866.909 577.755 861.45C582.376 855.992 582.582 848.116 578.215 843.858C573.847 839.6 566.561 840.573 561.94 846.031C557.318 851.489 557.112 859.366 561.48 863.624Z" fill="url(#paint12_linear_8_1048)"/>
<path d="M561.48 863.624C565.847 867.881 573.133 866.909 577.755 861.45C582.376 855.992 582.582 848.116 578.215 843.858C573.847 839.6 566.561 840.573 561.94 846.031C557.318 851.489 557.112 859.366 561.48 863.624Z" fill="#741108"/>
<path d="M561.48 863.624C565.847 867.881 573.133 866.909 577.755 861.45C582.376 855.992 582.582 848.116 578.215 843.858C573.847 839.6 566.561 840.573 561.94 846.031C557.318 851.489 557.112 859.366 561.48 863.624Z" stroke="url(#paint13_radial_8_1048)" stroke-width="5.82012" stroke-miterlimit="10"/>
<path d="M568.577 848.89C569.731 850.015 571.667 849.746 572.901 848.288C574.135 846.831 574.2 844.737 573.045 843.612C571.891 842.486 569.955 842.756 568.721 844.213C567.487 845.671 567.423 847.764 568.577 848.89Z" fill="white"/>
<path d="M574.831 856.405C575.455 857.014 576.496 856.875 577.156 856.095C577.816 855.315 577.846 854.19 577.222 853.582C576.598 852.974 575.557 853.113 574.897 853.892C574.237 854.672 574.207 855.797 574.831 856.405Z" fill="white"/>
<path d="M566.092 857.81C568.108 859.774 571.347 859.471 573.327 857.132C575.308 854.792 575.28 851.303 573.265 849.339C571.249 847.374 568.01 847.678 566.03 850.017C564.049 852.356 564.077 855.845 566.092 857.81Z" fill="#640B03"/>
<path fill-rule="evenodd" clip-rule="evenodd" d="M553.185 877.387C553.185 877.387 549.19 857.734 539.913 855.676C527.632 851.704 521.519 862.009 520.823 866.437C517.434 881.81 539.913 897.304 539.913 897.304" fill="url(#paint14_radial_8_1048)"/>
<path fill-rule="evenodd" clip-rule="evenodd" d="M553.185 877.387C553.185 877.387 549.19 857.734 539.913 855.676C527.632 851.704 521.519 862.009 520.823 866.437C517.434 881.81 539.913 897.304 539.913 897.304" fill="#FFCC3F"/>
<path fill-rule="evenodd" clip-rule="evenodd" d="M553.185 877.387C553.185 877.387 549.19 857.734 539.913 855.676C527.632 851.704 521.519 862.009 520.823 866.437C517.434 881.81 539.913 897.304 539.913 897.304" fill="url(#paint15_linear_8_1048)"/>
<path fill-rule="evenodd" clip-rule="evenodd" d="M553.184 877.387C553.184 877.387 549.19 857.734 539.912 855.676C527.632 851.704 521.519 862.009 520.823 866.437C517.434 881.81 539.912 897.304 539.912 897.304" fill="url(#paint16_linear_8_1048)"/>
<circle cx="564.584" cy="897.445" r="103.118" transform="rotate(1.88019 564.584 897.445)" fill="#FFD521"/>
<circle cx="564.584" cy="897.445" r="103.118" transform="rotate(1.88019 564.584 897.445)" fill="#FDE040"/>
<g style="mix-blend-mode:multiply">
<circle cx="564.584" cy="897.445" r="103.118" transform="rotate(1.88019 564.584 897.445)" fill="url(#paint17_radial_8_1048)" fill-opacity="0.6"/>
</g>
<g style="mix-blend-mode:multiply">
<circle cx="564.584" cy="897.445" r="103.118" transform="rotate(1.88019 564.584 897.445)" fill="url(#paint18_radial_8_1048)" fill-opacity="0.6"/>
</g>
<g style="mix-blend-mode:multiply">
<path fill-rule="evenodd" clip-rule="evenodd" d="M535.007 987.363C591.927 989.232 639.584 944.604 641.452 887.684C642.696 849.803 623.345 816.024 593.483 797.115C640.227 808.197 674.284 850.958 672.646 900.829C670.778 957.748 623.121 1002.38 566.201 1000.51C547.163 999.883 529.5 994.135 514.491 984.632C521.098 986.198 527.958 987.132 535.007 987.363Z" fill="url(#paint19_linear_8_1048)" fill-opacity="0.6"/>
</g>
<path d="M503.158 823.46C514.275 825.608 525.972 832.486 531.333 837.945C514.928 837.406 502.562 841.632 492.718 847.042" stroke="#731007" stroke-width="6" stroke-linecap="round" stroke-linejoin="round"/>
<path d="M604.229 838.181C593.255 836.041 573.847 839.646 568.322 844.724C584.483 847.875 595.058 853.45 605.333 861.493" stroke="#731007" stroke-width="6" stroke-linecap="round" stroke-linejoin="round"/>
<path fill-rule="evenodd" clip-rule="evenodd" d="M531.761 951.935C565.512 958.397 598.111 936.274 604.573 902.523C606.038 894.869 606.033 887.273 604.756 880.029C590.2 870.484 573.571 863.572 555.414 860.096C531.802 855.575 508.447 857.409 487.112 864.398C484.964 868.989 483.345 873.918 482.349 879.124C475.887 912.875 498.01 945.474 531.761 951.935Z" fill="#731007"/>
<path fill-rule="evenodd" clip-rule="evenodd" d="M587.762 934.524C573.664 948.79 552.94 955.99 531.762 951.935C510.754 947.914 494.252 933.766 486.343 915.518C493.901 906.296 505.794 900.922 518.543 902.23C525.837 902.978 532.414 905.811 537.741 910.077C543.237 907.816 549.354 906.842 555.68 907.491C571.358 909.098 583.763 920.212 587.762 934.524Z" fill="#F24817"/>
<path fill-rule="evenodd" clip-rule="evenodd" d="M594.177 926.897C580.497 946.105 556.437 956.659 531.762 951.935C510.694 947.902 494.157 933.685 486.275 915.36C493.837 906.221 505.677 900.905 518.364 902.206C526.981 903.09 534.595 906.883 540.333 912.51C547.262 907.923 555.761 905.616 564.673 906.53C577.815 907.877 588.658 915.905 594.177 926.897Z" fill="url(#paint20_linear_8_1048)"/>
<mask id="mask0_8_1048" style="mask-type:alpha" maskUnits="userSpaceOnUse" x="481" y="857" width="125" height="97">
<path fill-rule="evenodd" clip-rule="evenodd" d="M530.384 951.679C563.981 958.901 597.071 937.52 604.293 903.923C605.99 896.032 606.108 888.169 604.861 880.662C590.046 870.741 573.037 863.566 554.422 860.002C531.266 855.569 508.357 857.247 487.359 863.905C485.285 868.233 483.682 872.872 482.629 877.77C475.407 911.366 496.788 944.457 530.384 951.679Z" fill="#731007"/>
</mask>
<g mask="url(#mask0_8_1048)">
<rect x="523.146" y="852.816" width="40.1701" height="24.6084" transform="rotate(5.39987 523.146 852.816)" fill="white"/>
<path d="M543.233 853.587L539.154 894.76" stroke="#731007" stroke-width="5"/>
</g>
<path opacity="0.5" d="M279.934 1136.36C266.201 1112.88 167.862 1047.38 70.9012 1050.74C38.4729 1057.19 -19.7212 1060.13 19.3015 1112.88C59.5436 1106.6 170.608 1159.57 204.01 1203.45C235.093 1211.95 272.41 1181.07 279.934 1136.36Z" fill="url(#paint21_linear_8_1048)"/>
<circle cx="239.634" cy="1167.48" r="51.1937" transform="rotate(143.736 239.634 1167.48)" fill="url(#paint22_linear_8_1048)"/>
<circle cx="239.634" cy="1167.48" r="51.1937" transform="rotate(143.736 239.634 1167.48)" fill="white" fill-opacity="0.1"/>
<path d="M154.374 1492.99L154.918 1475.82L362.5 1520.5L363.971 1536.78L154.374 1492.99Z" fill="#D6DDFF"/>
<rect width="217.489" height="60.8606" rx="30.4303" transform="matrix(0.960141 0.279517 -0.391075 0.920359 164.731 1461.36)" fill="#D6DDFF"/>
<rect width="215.97" height="60.8606" rx="30.4303" transform="matrix(0.960141 0.279517 -0.391075 0.920359 164.903 1447.58)" fill="white"/>
<path d="M203.923 1470.03L172.833 1498.32" stroke="#9DA7FF" stroke-width="0.97906"/>
<ellipse cx="7.83248" cy="7.83248" rx="7.83248" ry="7.83248" transform="matrix(0.902462 0.43077 -0.606772 0.794876 221.926 1488.19)" fill="#9AADFA"/>
<ellipse cx="7.83248" cy="7.83248" rx="7.83248" ry="7.83248" transform="matrix(0.873721 0.486427 -0.655348 0.755327 256.122 1496.76)" fill="#9AADFA"/>
<ellipse cx="7.83248" cy="7.83248" rx="7.83248" ry="7.83248" transform="matrix(0.873721 0.486427 -0.655348 0.755327 289.864 1506.64)" fill="#9AADFA"/>
</g>
<defs>
<linearGradient id="paint0_linear_8_1048" x1="375" y1="-176" x2="375" y2="1624" gradientUnits="userSpaceOnUse">
<stop stop-color="#384BF9"/>
<stop offset="1" stop-color="#7176FA"/>
</linearGradient>
<linearGradient id="paint1_linear_8_1048" x1="30.187" y1="1038.66" x2="36.2603" y2="1047.97" gradientUnits="userSpaceOnUse">
<stop stop-color="#B2B9FF"/>
<stop offset="1" stop-color="#BCC6FF"/>
</linearGradient>
<linearGradient id="paint2_linear_8_1048" x1="639.288" y1="1378.38" x2="757.362" y2="1277.18" gradientUnits="userSpaceOnUse">
<stop stop-color="#DAE0FE"/>
<stop offset="1" stop-color="#DAE0FE"/>
</linearGradient>
<linearGradient id="paint3_linear_8_1048" x1="492.298" y1="1376.14" x2="363.097" y2="1330.64" gradientUnits="userSpaceOnUse">
<stop stop-color="#FFBC2A"/>
<stop offset="1" stop-color="#FFCC5D" stop-opacity="0.33"/>
</linearGradient>
<linearGradient id="paint4_linear_8_1048" x1="613.861" y1="987.775" x2="710.368" y2="964.858" gradientUnits="userSpaceOnUse">
<stop stop-color="#C8CCFC"/>
<stop offset="1" stop-color="#E1E4FF"/>
</linearGradient>
<linearGradient id="paint5_linear_8_1048" x1="627.95" y1="958.266" x2="569.61" y2="891.785" gradientUnits="userSpaceOnUse">
<stop stop-color="#FFBC2A"/>
<stop offset="1" stop-color="#FFCC5D" stop-opacity="0.33"/>
</linearGradient>
<linearGradient id="paint6_linear_8_1048" x1="548.073" y1="859.931" x2="536.4" y2="828.964" gradientUnits="userSpaceOnUse">
<stop stop-color="#FFF1C1"/>
<stop offset="1" stop-color="#FFF1C1" stop-opacity="0"/>
</linearGradient>
<linearGradient id="paint7_linear_8_1048" x1="607.5" y1="879.65" x2="596.386" y2="852.844" gradientUnits="userSpaceOnUse">
<stop stop-color="#FFEEB1"/>
<stop offset="1" stop-color="#FFEEB1" stop-opacity="0"/>
</linearGradient>
<radialGradient id="paint8_radial_8_1048" cx="0" cy="0" r="1" gradientUnits="userSpaceOnUse" gradientTransform="translate(628.715 870.492) rotate(122.852) scale(25.8185 25.1752)">
<stop stop-color="#FFF6A9"/>
<stop offset="0.1348" stop-color="#FFF4A2"/>
<stop offset="0.33" stop-color="#FFF08F"/>
<stop offset="0.5619" stop-color="#FFE86F"/>
<stop offset="0.82" stop-color="#FFDD44"/>
<stop offset="1" stop-color="#FFD521"/>
</radialGradient>
<linearGradient id="paint9_linear_8_1048" x1="621.656" y1="862.982" x2="630.315" y2="900.378" gradientUnits="userSpaceOnUse">
<stop stop-color="#FFDB60"/>
<stop offset="1" stop-color="#FFB322"/>
</linearGradient>
<linearGradient id="paint10_linear_8_1048" x1="533.063" y1="859.711" x2="516.626" y2="845.622" gradientUnits="userSpaceOnUse">
<stop stop-color="#882D0C"/>
<stop offset="1" stop-color="#731007"/>
</linearGradient>
<radialGradient id="paint11_radial_8_1048" cx="0" cy="0" r="1" gradientUnits="userSpaceOnUse" gradientTransform="translate(-1943.56 3732.47) rotate(-133.679) scale(12.4323 29.0919)">
<stop stop-color="#882D0C"/>
<stop offset="1" stop-color="#731007"/>
</radialGradient>
<linearGradient id="paint12_linear_8_1048" x1="577.743" y1="861.465" x2="560.927" y2="847.227" gradientUnits="userSpaceOnUse">
<stop stop-color="#882D0C"/>
<stop offset="1" stop-color="#731007"/>
</linearGradient>
<radialGradient id="paint13_radial_8_1048" cx="0" cy="0" r="1" gradientUnits="userSpaceOnUse" gradientTransform="translate(-1912.04 3785.06) rotate(-135.726) scale(12.6216 29.5257)">
<stop stop-color="#882D0C"/>
<stop offset="1" stop-color="#731007"/>
</radialGradient>
<radialGradient id="paint14_radial_8_1048" cx="0" cy="0" r="1" gradientUnits="userSpaceOnUse" gradientTransform="translate(532.686 862.011) rotate(156.475) scale(18.0304 18.0766)">
<stop stop-color="#FFF6A9"/>
<stop offset="0.1348" stop-color="#FFF4A2"/>
<stop offset="0.33" stop-color="#FFF08F"/>
<stop offset="0.5619" stop-color="#FFE86F"/>
<stop offset="0.82" stop-color="#FFDD44"/>
<stop offset="1" stop-color="#FFD521"/>
</radialGradient>
<linearGradient id="paint15_linear_8_1048" x1="530.269" y1="855.785" x2="542.964" y2="880.874" gradientUnits="userSpaceOnUse">
<stop stop-color="#FFF855"/>
<stop offset="0.239583" stop-color="#FFF473" stop-opacity="0.84456"/>
<stop offset="0.520833" stop-color="#FFEC68" stop-opacity="0.588542"/>
<stop offset="1" stop-color="#FFF3A1" stop-opacity="0"/>
</linearGradient>
<linearGradient id="paint16_linear_8_1048" x1="521.515" y1="861.876" x2="544.632" y2="884.419" gradientUnits="userSpaceOnUse">
<stop stop-color="#FFAA17"/>
<stop offset="1" stop-color="#FFCC3E"/>
</linearGradient>
<radialGradient id="paint17_radial_8_1048" cx="0" cy="0" r="1" gradientUnits="userSpaceOnUse" gradientTransform="translate(625.267 972.709) rotate(-134.999) scale(85.8207 242.727)">
<stop stop-color="#FFBC2A"/>
<stop offset="1" stop-color="#FFCC5D" stop-opacity="0.33"/>
</radialGradient>
<radialGradient id="paint18_radial_8_1048" cx="0" cy="0" r="1" gradientUnits="userSpaceOnUse" gradientTransform="translate(625.267 972.709) rotate(-134.999) scale(85.8207 242.727)">
<stop stop-color="#FF9D2A"/>
<stop offset="1" stop-color="#FFCC5D" stop-opacity="0.33"/>
</radialGradient>
<linearGradient id="paint19_linear_8_1048" x1="639.146" y1="960.698" x2="610.983" y2="943.609" gradientUnits="userSpaceOnUse">
<stop stop-color="#FF9D2A"/>
<stop offset="1" stop-color="#FFCC5D" stop-opacity="0"/>
</linearGradient>
<linearGradient id="paint20_linear_8_1048" x1="565.777" y1="946.919" x2="525.157" y2="902.759" gradientUnits="userSpaceOnUse">
<stop stop-color="#DA3100"/>
<stop offset="1" stop-color="#F24817" stop-opacity="0"/>
</linearGradient>
<linearGradient id="paint21_linear_8_1048" x1="226.21" y1="1161.13" x2="87.6197" y2="1081.52" gradientUnits="userSpaceOnUse">
<stop stop-color="#FFC2E1"/>
<stop offset="0.8125" stop-color="#FFD1BE" stop-opacity="0"/>
</linearGradient>
<linearGradient id="paint22_linear_8_1048" x1="228.834" y1="1118.41" x2="243.96" y2="1225.2" gradientUnits="userSpaceOnUse">
<stop stop-color="#FEC69A"/>
<stop offset="0.572051" stop-color="#FF84E3"/>
<stop offset="0.984375" stop-color="#C67EFF"/>
</linearGradient>
<clipPath id="clip0_8_1048">
<rect width="750" height="1624" fill="white"/>
</clipPath>
<clipPath id="clip1_8_1048">
<rect width="100.122" height="89.2176" fill="white" transform="matrix(0.951057 0.309017 0 1 341.999 1145)"/>
</clipPath>
</defs>
</svg>
