<svg width="750" height="1624" viewBox="0 0 750 1624" fill="none" xmlns="http://www.w3.org/2000/svg">
<g clip-path="url(#clip0_8_1842)">
<rect width="750" height="1624" fill="white"/>
<rect y="-176" width="750" height="1800" fill="url(#paint0_linear_8_1842)"/>
<rect x="-54.1953" y="777.609" width="695.736" height="687.312" transform="rotate(15.624 -54.1953 777.609)" fill="#56C9FF"/>
<g style="mix-blend-mode:multiply" opacity="0.5">
<path d="M136.054 904.373L-1.41152 868.133L-9.44141 1007.29L136.952 909.771C139.105 908.336 138.555 905.032 136.054 904.373Z" fill="#2996CA"/>
</g>
<path d="M120.681 910.23L120.702 910.235V890L103.626 903.627L-0.807013 971.873L-14.0625 1000.88L-0.807013 992.126L119.334 912.764C120.267 912.148 120.695 911.182 120.681 910.23Z" fill="#5CB8E3"/>
<path d="M118.752 888.686L-7.78519 854.96L-14.7533 980.75L119.606 894.106C121.794 892.694 121.269 889.356 118.752 888.686Z" fill="#93DCFF"/>
<path d="M-62.6523 934.984L0.410009 892.951L19.9874 897.75L-43.075 939.784L-62.6523 934.984Z" fill="#5CBEEC"/>
<g style="mix-blend-mode:multiply" opacity="0.6">
<path d="M125.76 992.853L-5.6721 1085.48L-19.3212 1064.68L110.545 976.791L139.533 970.489C141.387 970.086 142.707 972.249 141.502 973.714L125.76 992.853Z" fill="#32A0E5"/>
</g>
<path d="M81.2039 976.664L-9.79419 1037.33L-16.1797 1084.16L97.7012 1004.34L127.787 966.731C129.009 965.203 127.537 963.01 125.66 963.563L81.2039 976.664Z" fill="#93DCFF"/>
<path d="M98.504 1003.33C102.493 988.998 96.5064 975.392 80.9728 976.813L-4.86938 1034.04C-5.27498 1036.71 -5.77084 1039.55 -6.27752 1042.45C-8.74289 1056.57 -11.4642 1072.16 -5.28724 1076.52L97.6982 1004.33L98.504 1003.33Z" fill="#CCF0CB"/>
<path d="M98.504 1003.33C102.493 988.998 96.5064 975.392 80.9728 976.813L-4.86938 1034.04C-5.27498 1036.71 -5.77084 1039.55 -6.27752 1042.45C-8.74289 1056.57 -11.4642 1072.16 -5.28724 1076.52L97.6982 1004.33L98.504 1003.33Z" fill="url(#paint1_linear_8_1842)"/>
<path d="M103 970.24C107.033 970.602 109.783 972.346 111.628 974.679C113.496 977.04 114.546 980.159 113.798 984.213L116.078 981.363C116.096 978.207 115.2 975.439 113.465 973.246C111.919 971.29 109.76 969.861 107.127 969.023L103 970.24Z" fill="#B3ECF8"/>
<path d="M425.63 1041.99L-141.051 1400.2L163.603 1653.78L964.065 1665.26C965.386 1425.68 1103.6 756.86 1100.43 700.558C1063.97 698.83 1052.44 665.91 1027.76 660.477C982.417 650.497 774.071 599.568 676.977 578.82C752.844 697.027 694.073 789.076 658.563 852.67C633.909 896.824 532.271 983.903 425.63 1041.99Z" fill="#19ADFF"/>
<path d="M383.318 1051.85L-183.363 1410.07L121.291 1663.64L921.752 1675.13C923.073 1435.55 1061.29 766.727 1058.12 710.425C1021.66 708.698 1009.58 683.222 985.102 676.914C919.969 660.127 731.956 610.438 634.665 588.688C710.531 706.894 651.761 798.943 616.251 862.538C591.596 906.691 489.959 993.77 383.318 1051.85Z" fill="#6ECBFF"/>
<path d="M347.974 1060.48L-218.707 1418.69L85.9469 1672.27L886.408 1683.75C887.729 1444.18 1025.95 775.353 1022.78 719.051C909.897 674.9 719.085 633.727 593.575 606.734C669.442 724.941 616.417 807.57 580.907 871.164C556.252 915.318 454.615 1002.4 347.974 1060.48Z" fill="#9CDAFD"/>
<path d="M305.877 1083.48L-260.805 1441.69L43.8492 1695.27L844.311 1706.75C845.632 1467.18 986.3 786.104 983.129 729.802C866.979 697.954 676.987 656.727 551.477 629.734C627.344 747.941 574.319 830.57 538.809 894.164C514.155 938.318 412.518 1025.4 305.877 1083.48Z" fill="#BCE2FF"/>
<path d="M270.938 1053.29L-303.246 1461.52L27.0634 1733.07L827.525 1744.56C828.846 1504.98 967.065 836.159 963.894 779.857C927.429 778.13 898.818 708.053 876.621 720.143C854.425 732.232 615.859 675.816 500.075 651.648C560.964 732.125 545.026 823.952 455.525 909.617C425.206 938.636 370.28 980.248 270.938 1053.29Z" fill="#D8EEFF"/>
<path d="M-50.5607 1125.38L247.034 1225.25L451.883 1609.48L74.7977 1496.35L-50.5607 1125.38Z" fill="#A0D7FF"/>
<path d="M74.5156 1172.78L381.196 1218.55L782.297 1501.84L396.778 1439.15L74.5156 1172.78Z" fill="#C4E6FF"/>
<path d="M205.234 1132.36L458.113 1149.29L927.944 1327.64L618.12 1308.28L205.234 1132.36Z" fill="#E6F5FF"/>
<path d="M205.562 1132.34L620.764 1308.15L615.419 1327.8L200.218 1152L205.562 1132.34Z" fill="#5BCAFF"/>
<path d="M777.894 1318.13L620.681 1308.69L615.243 1327.98L774.321 1339L777.894 1318.13Z" fill="#0FAEFB"/>
<path d="M778.687 1501.17L396.855 1439.23L384.88 1455.99L772.968 1521.9L778.687 1501.17Z" fill="#2EB0EE"/>
<path d="M451.972 1609.5L74.7571 1496.34L61.2147 1512.15L444.696 1629.38L451.972 1609.5Z" fill="#10A3E9"/>
<path d="M74.8359 1172.66L397.014 1439.25L384.93 1456.36L63.9758 1189.89L74.8359 1172.66Z" fill="#5BCAFF"/>
<path d="M-51.375 1124.44L74.7767 1496.31L60.5153 1513.07L-65.2547 1139.35L-51.375 1124.44Z" fill="#44BDF7"/>
<path d="M302.699 1063.79L450.753 1060.37L830.627 1120.82L740.889 1144.35L302.699 1063.79Z" fill="#F2FAFF"/>
<path d="M456.035 1001.18L541.323 994.215L803.312 1009.2L747.995 1017.27L456.035 1001.18Z" fill="#C4F2E8"/>
<path d="M456.035 1001.18L541.323 994.215L803.312 1009.2L747.995 1017.27L456.035 1001.18Z" fill="#F2FAFF"/>
<path opacity="0.8" d="M568.617 918.484L786.874 921.755L787.379 941.631L569.122 938.361L568.617 918.484Z" fill="#99DEFF"/>
<path d="M587.02 911.752L787.379 913.758L787.379 921.804L568.633 918.371L587.02 911.752Z" fill="#B9F1DE"/>
<path d="M587.02 911.752L787.379 913.758L787.379 921.804L568.633 918.371L587.02 911.752Z" fill="white"/>
<path d="M456.039 1001.23L754.477 1017.28L755.022 1037.16L456.584 1021.1L456.039 1001.23Z" fill="#7DD3FF"/>
<path d="M302.668 1063.75L740.803 1144.35V1166.76L304.295 1083.86C303.351 1083.68 302.668 1082.85 302.668 1081.89V1063.75Z" fill="#5BCAFF"/>
<path fill-rule="evenodd" clip-rule="evenodd" d="M247.337 1424.47L240.367 1434.88L264.584 1451.09L264.999 1450.47C288.147 1459.08 327.323 1436.02 356.675 1395.15C388.661 1350.6 396.867 1301.76 375.004 1286.07C373.861 1285.24 372.659 1284.53 371.401 1283.92L350.718 1270.07L340.955 1284.65C320.472 1292.15 296.852 1311.35 277.502 1338.3C255.39 1369.09 244.643 1401.94 247.337 1424.47Z" fill="#E3FEFD"/>
<path fill-rule="evenodd" clip-rule="evenodd" d="M247.337 1424.47L240.367 1434.88L264.584 1451.09L264.999 1450.47C288.147 1459.08 327.323 1436.02 356.675 1395.15C388.661 1350.6 396.867 1301.76 375.004 1286.07C373.861 1285.24 372.659 1284.53 371.401 1283.92L350.718 1270.07L340.955 1284.65C320.472 1292.15 296.852 1311.35 277.502 1338.3C255.39 1369.09 244.643 1401.94 247.337 1424.47Z" fill="#DAFFE6" fill-opacity="0.6"/>
<path fill-rule="evenodd" clip-rule="evenodd" d="M247.337 1424.47L240.367 1434.88L264.584 1451.09L264.999 1450.47C288.147 1459.08 327.323 1436.02 356.675 1395.15C388.661 1350.6 396.867 1301.76 375.004 1286.07C373.861 1285.24 372.659 1284.53 371.401 1283.92L350.718 1270.07L340.955 1284.65C320.472 1292.15 296.852 1311.35 277.502 1338.3C255.39 1369.09 244.643 1401.94 247.337 1424.47Z" fill="#3370FF"/>
<path opacity="0.6" fill-rule="evenodd" clip-rule="evenodd" d="M619.29 1087.47L696.522 1099.76C691.31 1103.01 682.761 1105.55 670.466 1107.44C646.575 1111.11 598.274 1112.27 596.882 1103.22C596.036 1097.71 605.987 1091.96 619.29 1087.47Z" fill="#A0D6FD"/>
<ellipse cx="296.206" cy="1352.93" rx="48.7343" ry="99.2971" transform="rotate(35.68 296.206 1352.93)" fill="white"/>
<path d="M298.669 1327.24C308.536 1325.73 318.158 1316.58 320.159 1306.8C322.161 1297.03 315.784 1290.32 305.917 1291.83C296.05 1293.33 286.428 1302.48 284.427 1312.26C282.426 1322.04 288.802 1328.75 298.669 1327.24Z" fill="#3370FF"/>
<path d="M334.019 1342.51C334.157 1341.09 334.138 1339.73 333.975 1338.45C332.716 1328.69 322.097 1325.36 311.104 1330.62C300.21 1335.84 281.733 1344.72 279.09 1346.1C267.01 1352.44 258.216 1354.49 252.169 1354.8C245.129 1354.5 247.306 1347.44 247.306 1347.44C246.478 1349.6 245.774 1354.41 245.774 1354.41C244.601 1362.34 246.314 1370.39 256.516 1373.28C261.012 1374.56 266.265 1374.36 271.673 1372.96C273.97 1372.37 276.401 1371.61 278.996 1370.7C281.925 1369.68 284.857 1368.32 287.79 1366.94C290.04 1365.88 292.313 1364.95 294.572 1363.97C298.056 1362.45 301.565 1360.81 305.065 1359.5C305.065 1359.5 318.233 1354.24 321.596 1358.09C321.608 1358.1 321.625 1358.12 321.637 1358.13C321.68 1358.18 321.718 1358.24 321.761 1358.3C321.818 1358.38 321.876 1358.46 321.923 1358.54C321.948 1358.59 321.973 1358.63 321.994 1358.68C322.062 1358.81 322.118 1358.94 322.17 1359.07C322.168 1359.08 322.177 1359.09 322.18 1359.1C322.663 1360.48 322.304 1362.33 321.44 1364.18C320.349 1366.28 318.522 1368.99 315.494 1372.37L318.971 1368.48C320.243 1367.07 321.073 1366.14 321.073 1366.14C321.74 1365.39 322.383 1364.64 323.02 1363.86C323.02 1363.86 323.136 1363.73 323.139 1363.72C325.872 1360.4 328.292 1356.89 330.287 1353.27C330.31 1353.23 330.327 1353.19 330.35 1353.15C331.596 1351.05 332.582 1348.83 333.237 1346.54C333.266 1346.45 333.285 1346.36 333.308 1346.27C333.704 1344.91 333.926 1343.66 334.013 1342.51L334.019 1342.51Z" fill="#00D6B9"/>
<path d="M321.439 1364.18C322.303 1362.32 322.662 1360.47 322.179 1359.09C322.179 1359.09 322.172 1359.07 322.169 1359.07C322.119 1358.93 322.061 1358.8 321.993 1358.67C321.968 1358.63 321.948 1358.58 321.922 1358.54C321.871 1358.45 321.818 1358.37 321.76 1358.29C321.722 1358.23 321.68 1358.18 321.636 1358.12C321.624 1358.11 321.608 1358.09 321.596 1358.08C318.228 1354.23 305.064 1359.5 305.064 1359.5C301.563 1360.81 298.055 1362.44 294.572 1363.96C292.312 1364.95 290.034 1365.88 287.789 1366.93C287.789 1366.93 287.789 1366.93 287.784 1366.93L270.239 1385.77C263.412 1392.96 262.254 1402.45 267.674 1406.81C272.83 1410.97 282.044 1408.94 288.649 1402.35C289.14 1401.86 289.6 1401.34 290.062 1400.82L315.5 1372.36C318.528 1368.97 320.348 1366.27 321.439 1364.18Z" fill="#3370FF"/>
<path fill-rule="evenodd" clip-rule="evenodd" d="M387.701 1149.84L473.613 1155.6L555.485 1186.68C542.553 1191.91 524.668 1195.12 502.57 1195.12C453.988 1195.12 361.703 1187.28 361.703 1168.86C361.703 1161.08 372.068 1154.67 387.701 1149.84Z" fill="#A0D6FD"/>
<path fill-rule="evenodd" clip-rule="evenodd" d="M424.181 999.544C422.252 994.31 414.85 994.31 412.921 999.544L352.91 1162.4C352.316 1163.28 351.976 1164.19 351.91 1165.11L351.703 1165.67H351.904C352.375 1175.19 381.965 1182.87 418.398 1182.87C454.832 1182.87 484.422 1175.19 484.892 1165.67H485.399L424.181 999.544Z" fill="#336FFF"/>
<circle cx="417.285" cy="943.73" r="51.8867" fill="#BFE101"/>
<path fill-rule="evenodd" clip-rule="evenodd" d="M379.801 907.849C383.628 907.211 387.559 906.879 391.566 906.879C428.064 906.879 458.131 934.41 462.133 969.837C453.138 985.254 436.422 995.613 417.285 995.613C388.629 995.613 365.398 972.383 365.398 943.727C365.398 929.807 370.88 917.167 379.801 907.849Z" fill="#6BC820"/>
<path d="M740.805 1144.35L770.031 1136.46V1158.87L740.805 1166.76V1144.35Z" fill="#0FAEFB"/>
<circle cx="598.098" cy="804.887" r="51.8867" fill="#53A6C4"/>
<circle cx="598.098" cy="804.887" r="51.8867" fill="#FD7C5F"/>
<circle cx="598.098" cy="804.887" r="51.8867" fill="#FDB595"/>
<circle cx="598.098" cy="804.887" r="51.8867" fill="#FDAF25"/>
<circle cx="598.098" cy="804.887" r="51.8867" fill="#FFCF00"/>
<path fill-rule="evenodd" clip-rule="evenodd" d="M564.515 765.333C604.266 766.543 636.351 798.229 638.197 837.817C628.681 849.392 614.251 856.773 598.098 856.773C569.441 856.773 546.211 833.543 546.211 804.887C546.211 789.039 553.316 774.85 564.515 765.333Z" fill="#53A6C4"/>
<path fill-rule="evenodd" clip-rule="evenodd" d="M564.515 765.333C604.266 766.543 636.351 798.229 638.197 837.817C628.681 849.392 614.251 856.773 598.098 856.773C569.441 856.773 546.211 833.543 546.211 804.887C546.211 789.039 553.316 774.85 564.515 765.333Z" fill="#FD7C5F"/>
<path fill-rule="evenodd" clip-rule="evenodd" d="M564.515 765.333C604.266 766.543 636.351 798.229 638.197 837.817C628.681 849.392 614.251 856.773 598.098 856.773C569.441 856.773 546.211 833.543 546.211 804.887C546.211 789.039 553.316 774.85 564.515 765.333Z" fill="#FFA800"/>
<path fill-rule="evenodd" clip-rule="evenodd" d="M652.349 908.953C649.619 881.398 626.372 859.875 598.098 859.875C569.824 859.875 546.577 881.398 543.846 908.953H543.578V914.395V1094.83H543.579C543.578 1094.85 543.578 1094.88 543.578 1094.91C543.578 1101.97 567.987 1107.7 598.098 1107.7C628.208 1107.7 652.617 1101.97 652.617 1094.91C652.617 1094.88 652.617 1094.85 652.616 1094.83H652.617V914.395V908.953H652.349Z" fill="#FF7401"/>
<path opacity="0.5" d="M79.4723 1140.93C65.1375 1117.13 -36.1595 1051.54 -135.141 1056.24C-168.175 1063.26 -227.57 1067.03 -187.022 1120.38C-146.005 1113.44 -31.8767 1166.08 2.81458 1210.45C34.6724 1218.73 72.3769 1186.7 79.4723 1140.93Z" fill="url(#paint2_linear_8_1842)"/>
<circle cx="38.7289" cy="1173.25" r="52.2886" transform="rotate(142.997 38.7289 1173.25)" fill="url(#paint3_linear_8_1842)"/>
<circle cx="38.7289" cy="1173.25" r="52.2886" transform="rotate(142.997 38.7289 1173.25)" fill="white" fill-opacity="0.1"/>
</g>
<defs>
<linearGradient id="paint0_linear_8_1842" x1="375" y1="-176" x2="375" y2="1142.41" gradientUnits="userSpaceOnUse">
<stop stop-color="#009AF0"/>
<stop offset="1" stop-color="#17B4F8"/>
</linearGradient>
<linearGradient id="paint1_linear_8_1842" x1="46.9379" y1="1028.97" x2="51.8156" y2="1036.45" gradientUnits="userSpaceOnUse">
<stop stop-color="#A7E2FF"/>
<stop offset="1" stop-color="#5CB8E3"/>
</linearGradient>
<linearGradient id="paint2_linear_8_1842" x1="24.9302" y1="1166.94" x2="-117.661" y2="1087.46" gradientUnits="userSpaceOnUse">
<stop stop-color="#FFC2E1"/>
<stop offset="0.8125" stop-color="#FFD1BE" stop-opacity="0"/>
</linearGradient>
<linearGradient id="paint3_linear_8_1842" x1="63.5638" y1="1120.96" x2="23.48" y2="1241.7" gradientUnits="userSpaceOnUse">
<stop stop-color="#FEC69A"/>
<stop offset="0.671875" stop-color="#FE76E0"/>
<stop offset="0.984375" stop-color="#C67EFF"/>
</linearGradient>
<clipPath id="clip0_8_1842">
<rect width="750" height="1624" fill="white"/>
</clipPath>
</defs>
</svg>
