<svg width="750" height="1624" viewBox="0 0 750 1624" fill="none" xmlns="http://www.w3.org/2000/svg">
<g clip-path="url(#clip0_1_9370)">
<rect width="750" height="1624" fill="white"/>
<rect y="-176" width="750" height="1800" fill="url(#paint0_linear_1_9370)"/>
<rect x="-54.1953" y="777.609" width="695.736" height="687.312" transform="rotate(15.624 -54.1953 777.609)" fill="#9487FF"/>
<path opacity="0.6" d="M134.438 900.038L-24.2656 858.199L-33.4805 1017.89L135.336 905.436C137.489 904.002 136.939 900.698 134.438 900.038Z" fill="#4E38D6"/>
<path d="M115.844 906.508L115.867 906.514V883.293L96.2715 898.931L-23.5735 977.249L-38.7852 1010.54L-23.5735 1000.49L114.297 909.416C115.368 908.709 115.86 907.601 115.844 906.508Z" fill="#8960FF"/>
<path d="M114.599 882.051L-31.5786 843.09L-39.575 987.444L115.453 887.471C117.641 886.059 117.116 882.721 114.599 882.051Z" fill="#B9B2FF"/>
<path d="M-98.9609 947.668L-8.31247 887.247L19.8288 894.146L-70.8196 954.567L-98.9609 947.668Z" fill="#897FFE"/>
<path d="M-83.7656 942.168L-4.77435 889.517L0.108398 891.311L-78.8828 943.962L-83.7656 942.168Z" fill="#DEE1FF"/>
<g style="mix-blend-mode:multiply">
<path d="M128.332 993.685L-35.3177 1109.02L-52.3126 1083.12L109.388 973.687L146.862 965.54C148.715 965.137 150.036 967.3 148.831 968.765L128.332 993.685Z" fill="#DFCFFF"/>
</g>
<path d="M72.8532 973.523L-40.4515 1049.06L-48.4023 1107.37L93.3945 1007.98L131.829 959.938C133.051 958.41 131.579 956.217 129.702 956.77L72.8532 973.523Z" fill="#CAB7FF"/>
<path d="M94.3937 1006.73C99.3606 988.884 91.9064 971.944 72.5651 973.713L-34.32 1044.97C-34.825 1048.29 -35.4424 1051.83 -36.0733 1055.44C-39.143 1073.02 -42.5314 1092.43 -34.8403 1097.86L93.3904 1007.98L94.3937 1006.73Z" fill="#E9EBFF"/>
<path d="M94.3937 1006.73C99.3606 988.884 91.9064 971.944 72.5651 973.713L-34.32 1044.97C-34.825 1048.29 -35.4424 1051.83 -36.0733 1055.44C-39.143 1073.02 -42.5314 1092.43 -34.8403 1097.86L93.3904 1007.98L94.3937 1006.73Z" fill="#BCA4FF"/>
<path d="M99.9922 965.522C105.013 965.973 108.439 968.145 110.735 971.049C113.061 973.989 114.369 977.873 113.437 982.921L116.276 979.373C116.299 975.443 115.183 971.996 113.023 969.265C111.097 966.83 108.409 965.05 105.131 964.008L99.9922 965.522Z" fill="#D8B2FF"/>
<path d="M99.9922 965.522C105.013 965.973 108.439 968.145 110.735 971.049C113.061 973.989 114.369 977.873 113.437 982.921L116.276 979.373C116.299 975.443 115.183 971.996 113.023 969.265C111.097 966.83 108.409 965.05 105.131 964.008L99.9922 965.522Z" fill="#B38FFF"/>
<path d="M425.63 1041.99L-141.051 1400.2L163.603 1653.78L964.065 1665.26C965.386 1425.68 1103.6 756.86 1100.43 700.558C1063.97 698.83 1052.44 665.91 1027.76 660.477C982.417 650.497 774.071 599.568 676.977 578.82C752.844 697.027 694.073 789.076 658.563 852.67C633.909 896.824 532.271 983.903 425.63 1041.99Z" fill="#7862FF"/>
<path d="M383.318 1051.85L-183.363 1410.07L121.291 1663.64L921.752 1675.13C923.073 1435.55 1061.29 766.727 1058.12 710.425C1021.66 708.698 1009.58 683.222 985.102 676.914C919.969 660.127 731.956 610.438 634.665 588.688C710.531 706.894 651.761 798.943 616.251 862.538C591.596 906.691 489.959 993.77 383.318 1051.85Z" fill="#8A77FF"/>
<path d="M347.974 1060.48L-218.707 1418.69L85.9469 1672.27L886.408 1683.75C887.729 1444.18 1025.95 775.353 1022.78 719.051C909.897 674.9 719.085 633.727 593.575 606.734C669.442 724.941 616.417 807.57 580.907 871.164C556.252 915.318 454.615 1002.4 347.974 1060.48Z" fill="#AFA2FF"/>
<path d="M305.877 1083.48L-260.805 1441.69L43.8492 1695.27L844.311 1706.75C845.632 1467.18 986.3 786.104 983.129 729.802C866.979 697.954 676.987 656.727 551.477 629.734C627.344 747.941 574.319 830.57 538.809 894.164C514.155 938.318 412.518 1025.4 305.877 1083.48Z" fill="#DAC9FF"/>
<path d="M270.938 1053.29L-303.246 1461.52L27.0634 1733.07L827.525 1744.56C828.846 1504.98 967.065 836.159 963.894 779.857C927.429 778.13 898.818 708.053 876.621 720.143C854.425 732.232 615.859 675.816 500.075 651.648C560.964 732.125 545.026 823.952 455.525 909.617C425.206 938.636 370.28 980.248 270.938 1053.29Z" fill="#F8F1FF"/>
<ellipse cx="671.983" cy="1453.14" rx="3.7254" ry="2.62298" fill="#ACA9FE"/>
<g style="mix-blend-mode:darken" opacity="0.6">
<path d="M451.873 1430.11C623.266 1413.29 760.754 1365.2 760.754 1365.2L760.754 1275.88C760.754 1275.88 405.155 1304.83 214.871 1318.6C156.485 1322.83 399.274 1422.28 451.873 1430.11Z" fill="#DBBDF9"/>
</g>
<path d="M772.645 1366.37C773.095 1382.38 763.854 1398.14 746.212 1412.95C728.586 1427.75 702.77 1441.42 670.593 1453.22C606.253 1476.82 516.807 1492.84 417.519 1495.64C318.231 1498.43 228.025 1487.46 162.461 1467.51C129.671 1457.53 103.128 1445.34 84.6981 1431.55C66.252 1417.76 56.1397 1402.54 55.6896 1386.53C55.2394 1370.52 64.4807 1354.76 82.1226 1339.95C99.7488 1325.16 125.565 1311.49 157.742 1299.68C222.082 1276.08 311.528 1260.06 410.816 1257.27C510.104 1254.48 600.31 1265.45 665.874 1285.4C698.664 1295.37 725.207 1307.57 743.637 1321.35C762.083 1335.15 772.195 1350.36 772.645 1366.37Z" stroke="#ACA9FE" stroke-width="3"/>
<ellipse cx="55.1025" cy="1381.42" rx="4.16895" ry="2.93527" fill="#ACA9FE"/>
<ellipse cx="157.57" cy="1298.51" rx="3" ry="2.11224" fill="#8C72F9"/>
<ellipse cx="195.707" cy="1476.7" rx="3.69531" ry="2.60179" fill="#ACA9FE"/>
<ellipse cx="420.964" cy="1496.27" rx="3.81595" ry="2.68673" fill="#ACA9FE"/>
<path d="M12.8067 1388.68C17.0892 1387.2 22.4909 1389.18 27.4786 1394.12C32.6368 1399.23 32.5572 1402.79 28.4732 1404.2C24.4175 1405.6 19.0731 1403.94 13.8652 1398.82C8.98409 1393.98 8.46743 1390.18 12.8067 1388.68ZM15.3645 1391.21C13.2658 1391.94 13.9145 1394.02 17.4954 1397.57C21.1829 1401.22 23.8166 1402.39 25.9154 1401.66C27.9574 1400.96 27.5358 1399.03 23.8484 1395.37C20.2248 1391.79 17.4632 1390.49 15.3645 1391.21Z" fill="#8C72F9" fill-opacity="0.5"/>
<path d="M41.7347 1399.34L29.6491 1387.37L27.4394 1389.73L24.8603 1387.17L28.2742 1383.66L30.1461 1383.01L45.3649 1398.09L41.7347 1399.34Z" fill="#8C72F9" fill-opacity="0.5"/>
<g opacity="0.5">
<path d="M159.142 1501.59C162.019 1498.09 167.309 1497.89 173.541 1501.13C179.985 1504.47 181.458 1508.41 178.715 1511.74C175.991 1515.06 170.887 1515.58 164.397 1512.25C158.298 1509.09 156.228 1505.14 159.142 1501.59ZM162.338 1503.25C160.928 1504.96 162.361 1506.96 166.835 1509.28C171.442 1511.67 174.11 1511.8 175.519 1510.09C176.891 1508.42 175.709 1506.48 171.102 1504.09C166.575 1501.74 163.748 1501.53 162.338 1503.25Z" fill="#8C72F9"/>
<path d="M192.586 1494.41L184.356 1504.42L182.253 1503.33C181.281 1500.91 179.948 1497.07 179.223 1494.58C178.517 1492.3 177.655 1490.99 176.163 1490.22C174.699 1489.46 173.427 1489.76 172.341 1491.08C171.465 1492.14 170.866 1493.75 170.636 1495.65L167.12 1494.75C167.312 1492.67 167.984 1490.83 169.317 1489.21C171.699 1486.32 175.193 1485.48 178.602 1487.25C181.052 1488.52 182.275 1490.55 183.076 1493.41C183.581 1495.29 184.104 1496.92 184.704 1498.45L189.391 1492.75L192.586 1494.41Z" fill="#8C72F9"/>
</g>
<g opacity="0.5">
<path d="M413.86 1536.79C413.073 1532.33 416.658 1529.57 423.675 1529.36C430.931 1529.14 435.15 1531.86 435.899 1536.12C436.644 1540.34 433.456 1543.29 426.174 1543.54C419.307 1543.75 414.656 1541.31 413.86 1536.79ZM417.458 1536.68C417.843 1538.86 420.47 1539.91 425.508 1539.76C430.695 1539.6 432.686 1538.41 432.301 1536.23C431.926 1534.1 429.529 1532.98 424.341 1533.14C419.244 1533.3 417.073 1534.49 417.458 1536.68Z" fill="#8C72F9"/>
<path d="M432.925 1526.94L429.514 1526.06C429.953 1524.44 429.931 1522.78 429.723 1521.6C429.337 1519.41 428.089 1518.14 425.84 1518.21C423.981 1518.27 423.03 1519.54 423.348 1521.35L423.754 1523.65L420.155 1523.76L419.749 1521.46C419.479 1519.92 418.361 1518.89 416.532 1518.94C415.063 1518.99 414.479 1519.78 414.76 1521.37C414.984 1522.64 415.424 1524.11 416.425 1525.69L413.288 1526.7C412.05 1524.81 411.427 1522.99 411.136 1521.33C410.485 1517.64 412.178 1515.27 415.656 1515.17C417.725 1515.1 419.426 1516.03 420.892 1517.68C421.618 1515.64 422.954 1514.5 425.293 1514.43C429.491 1514.3 432.519 1516.94 433.259 1521.13C433.587 1523 433.565 1524.93 432.925 1526.94Z" fill="#8C72F9"/>
</g>
<g opacity="0.5">
<path d="M685.456 1487.64C682.255 1484.43 684.091 1480.94 690.543 1478.18C697.216 1475.32 702.67 1475.89 705.722 1478.95C708.753 1481.98 707.397 1485.48 700.717 1488.37C694.403 1491.08 688.699 1490.88 685.456 1487.64ZM688.765 1486.22C690.333 1487.79 693.372 1487.64 698.004 1485.65C702.774 1483.61 703.982 1481.94 702.413 1480.37C700.887 1478.84 698.026 1478.85 693.256 1480.9C688.569 1482.91 687.196 1484.65 688.765 1486.22Z" fill="#8C72F9"/>
<path d="M690.395 1463.99L693.108 1466.71L689.027 1468.46L695.216 1474.66L692.404 1475.86L673.484 1475.21L670.707 1472.43L683.005 1467.16L681.585 1465.74L684.894 1464.32L686.314 1465.74L690.395 1463.99ZM689.046 1473.21L685.718 1469.88L678.687 1472.89L689.046 1473.21Z" fill="#8C72F9"/>
</g>
<path d="M137.342 1273.01C140.886 1275.84 139.116 1278.73 132.429 1280.87C125.513 1283.08 119.716 1282.41 116.337 1279.72C112.982 1277.05 114.244 1274.13 121.165 1271.89C127.71 1269.8 133.752 1270.15 137.342 1273.01ZM133.913 1274.11C132.177 1272.73 128.97 1272.75 124.169 1274.29C119.225 1275.87 118.03 1277.24 119.767 1278.63C121.456 1279.97 124.481 1280.05 129.425 1278.47C134.283 1276.92 135.649 1275.49 133.913 1274.11Z" fill="#8C72F9"/>
<path d="M149.946 1283.05C153.489 1285.88 151.719 1288.77 145.032 1290.91C138.116 1293.12 132.319 1292.45 128.941 1289.76C125.585 1287.09 126.848 1284.17 133.769 1281.93C140.313 1279.84 146.356 1280.19 149.946 1283.05ZM146.516 1284.15C144.78 1282.77 141.573 1282.79 136.772 1284.33C131.828 1285.91 130.634 1287.28 132.37 1288.67C134.059 1290.01 137.084 1290.09 142.028 1288.51C146.887 1286.96 148.253 1285.53 146.516 1284.15Z" fill="#8C72F9"/>
<path fill-rule="evenodd" clip-rule="evenodd" d="M607.008 867.466L605.86 868.407L608.36 871.406C608.759 872.188 609.23 872.931 609.775 873.631C618.392 884.69 642.222 880.77 663.002 864.875C683.783 848.979 693.643 827.128 685.027 816.069C684.571 815.483 684.072 814.939 683.533 814.437L678.747 808.697L676.381 810.635C665.08 807.601 647.563 812.768 631.8 824.825C614.392 838.141 604.647 855.637 607.008 867.466Z" fill="#E3FEFD"/>
<path fill-rule="evenodd" clip-rule="evenodd" d="M607.008 867.466L605.86 868.407L608.36 871.406C608.759 872.188 609.23 872.931 609.775 873.631C618.392 884.69 642.222 880.77 663.002 864.875C683.783 848.979 693.643 827.128 685.027 816.069C684.571 815.483 684.072 814.939 683.533 814.437L678.747 808.697L676.381 810.635C665.08 807.601 647.563 812.768 631.8 824.825C614.392 838.141 604.647 855.637 607.008 867.466Z" fill="#C5F3B4"/>
<path fill-rule="evenodd" clip-rule="evenodd" d="M607.008 867.466L605.86 868.407L608.36 871.406C608.759 872.188 609.23 872.931 609.775 873.631C618.392 884.69 642.222 880.77 663.002 864.875C683.783 848.979 693.643 827.128 685.027 816.069C684.571 815.483 684.072 814.939 683.533 814.437L678.747 808.697L676.381 810.635C665.08 807.601 647.563 812.768 631.8 824.825C614.392 838.141 604.647 855.637 607.008 867.466Z" fill="#ADA0FF"/>
<ellipse cx="642.608" cy="839.058" rx="26.5121" ry="47.2012" transform="rotate(52.3321 642.608 839.058)" fill="#F8F1FF"/>
<ellipse cx="642.608" cy="839.058" rx="26.5121" ry="47.2012" transform="rotate(52.3321 642.608 839.058)" fill="white"/>
<g clip-path="url(#clip1_1_9370)">
<path d="M640.003 816.271C637.868 815.783 635.096 816.84 633.813 818.631L614.064 846.202C612.781 847.993 613.472 849.841 615.607 850.329L646.536 857.398L668.609 826.584C669.892 824.793 669.201 822.945 667.066 822.457L640.003 816.271Z" fill="#2667FF"/>
<path d="M640.003 816.271C637.868 815.783 635.096 816.84 633.813 818.631L614.064 846.202C612.781 847.993 613.472 849.841 615.607 850.329L646.536 857.398L668.609 826.584C669.892 824.793 669.201 822.945 667.066 822.457L640.003 816.271Z" fill="#B98DFF"/>
<path d="M636.897 826.885C637.538 825.989 638.924 825.461 639.992 825.705L651.203 828.267C652.271 828.511 652.616 829.435 651.975 830.331C651.333 831.226 649.948 831.755 648.88 831.511L637.668 828.948C636.601 828.704 636.255 827.78 636.897 826.885Z" fill="white"/>
<path d="M635.347 832.193C634.28 831.949 632.894 832.477 632.252 833.373C631.611 834.268 631.956 835.192 633.024 835.436L636.503 836.232C637.571 836.476 638.956 835.947 639.598 835.052C640.24 834.156 639.894 833.232 638.827 832.988L635.347 832.193Z" fill="white"/>
<path d="M646.112 857.577L647.904 857.986C651.249 858.751 655.602 857.077 657.628 854.248C659.538 851.583 658.642 848.829 655.787 847.893C658.022 844.129 656.77 840.507 652.277 839.48C648.586 838.637 643.897 839.817 640.619 842.243C636.689 841.528 631.756 843.481 629.434 846.722C627.04 850.065 628.329 853.514 632.313 854.424C632.36 854.435 632.406 854.445 632.453 854.455L632.452 854.457L646.111 857.579L646.112 857.577Z" fill="#FCD0FE"/>
</g>
<path d="M503.501 872.782L400.566 813.223C414.005 810.377 437.755 816.886 465.325 826.981C492.895 837.076 534.348 865.874 566.428 895.351L503.501 872.782Z" fill="#FFA285"/>
<path d="M503.501 872.782L400.566 813.223C414.005 810.377 437.755 816.886 465.325 826.981C492.895 837.076 534.348 865.874 566.428 895.351L503.501 872.782Z" fill="url(#paint1_linear_1_9370)" fill-opacity="0.2"/>
<path d="M260.633 1113.1C288.107 1037.16 328.932 971.889 376.024 937.643C352.113 925.237 307.887 896.855 273.791 879.006C223.917 913.318 176.736 970.191 147.442 1072.21C172.232 1079.79 221.512 1097.44 260.633 1113.1Z" fill="#BD8AFC"/>
<path d="M511.837 893.288L401.408 837.851C354.065 833.189 274.421 872.584 217.402 941.835C239.135 953.304 276.578 970.664 326.313 998.576C357.958 954.824 437.376 893.715 511.837 893.288Z" fill="#E68BFD"/>
<path d="M427.066 923.711L302.437 850.511C379.805 815.343 416.968 822.738 462.97 841.426C490.325 855.338 526.49 881.772 571.831 900.968C526.467 886.67 463.424 899.562 427.066 923.711Z" fill="#F595E5"/>
<path d="M617.059 912.692C612.753 910.628 589.597 899.005 538.067 867.188C513.925 852.282 492.266 839.352 478.434 832.65C524.578 856.038 553.997 922.755 554.607 945.22L658.099 987.092L617.059 912.692Z" fill="#FFC4D6"/>
<path d="M617.059 912.692C612.753 910.628 589.597 899.005 538.067 867.188C513.925 852.282 492.266 839.352 478.434 832.65C524.578 856.038 553.997 922.755 554.607 945.22L658.099 987.092L617.059 912.692Z" fill="url(#paint2_linear_1_9370)" fill-opacity="0.2"/>
<path d="M617.059 912.692C612.753 910.628 589.597 899.005 538.067 867.188C513.925 852.282 492.266 839.352 478.434 832.65C524.578 856.038 553.997 922.755 554.607 945.22L658.099 987.092L617.059 912.692Z" fill="url(#paint3_linear_1_9370)" fill-opacity="0.2"/>
<path d="M692.423 1097C700.063 999.049 679.421 954.158 639.997 912.498L510.005 842.287C577.424 898.645 577.252 1006.02 571.076 1041.55C600.578 1051.15 648.325 1075.93 692.423 1097Z" fill="#FFB1DB"/>
<path d="M692.423 1097C700.063 999.049 679.421 954.158 639.997 912.498L510.005 842.287C577.424 898.645 577.252 1006.02 571.076 1041.55C600.578 1051.15 648.325 1075.93 692.423 1097Z" fill="url(#paint4_linear_1_9370)"/>
<path d="M692.423 1097C700.063 999.049 679.421 954.158 639.997 912.498L510.005 842.287C577.424 898.645 577.252 1006.02 571.076 1041.55C600.578 1051.15 648.325 1075.93 692.423 1097Z" fill="url(#paint5_linear_1_9370)" fill-opacity="0.3"/>
<path d="M580.627 894.948C591.325 899.719 602.189 911.634 607.505 926.194C613.023 941.308 608.124 945.73 597.426 940.96C586.08 935.901 576.027 924.718 570.549 909.715C565.111 894.822 569.713 890.082 580.627 894.948ZM584.685 906.062C580.038 903.99 579.716 907.569 582.435 915.015C585.397 923.128 588.83 927.822 593.368 929.846C597.907 931.87 598.499 928.784 595.618 920.893C592.94 913.558 589.439 908.182 584.685 906.062ZM617.908 979.96L606.561 974.901L620.501 912.728L631.739 917.739L617.908 979.96ZM641.198 951.825C651.896 956.595 662.76 968.511 668.076 983.07C673.594 998.185 668.695 1002.61 657.997 997.836C646.651 992.777 636.598 981.595 631.12 966.591C625.682 951.699 630.284 946.958 641.198 951.825ZM645.256 962.939C640.609 960.867 640.287 964.445 643.006 971.891C645.968 980.005 649.401 984.699 653.94 986.722C658.478 988.746 659.07 985.661 656.189 977.77C653.511 970.435 650.011 965.059 645.256 962.939Z" fill="#FF5C88"/>
<path d="M705.351 1001.64L574.32 933.034C598.97 1015.06 573.179 1123.51 533.662 1189.18C583.546 1211.3 610.819 1220.21 666.179 1244.83C725.267 1123.43 713.04 1026.88 705.351 1001.64Z" fill="#F5BCEC"/>
<path d="M705.351 1001.64L574.32 933.034C598.97 1015.06 573.179 1123.51 533.662 1189.18C583.546 1211.3 610.819 1220.21 666.179 1244.83C725.267 1123.43 713.04 1026.88 705.351 1001.64Z" fill="#FF83BB" fill-opacity="0.6"/>
<path d="M705.351 1001.64L574.32 933.034C598.97 1015.06 573.179 1123.51 533.662 1189.18C583.546 1211.3 610.819 1220.21 666.179 1244.83C725.267 1123.43 713.04 1026.88 705.351 1001.64Z" fill="#FD74BD"/>
<path d="M705.351 1001.64L574.32 933.034C598.97 1015.06 573.179 1123.51 533.662 1189.18C583.546 1211.3 610.819 1220.21 666.179 1244.83C725.267 1123.43 713.04 1026.88 705.351 1001.64Z" fill="url(#paint6_linear_1_9370)" fill-opacity="0.2"/>
<path d="M592.277 1057.22C574.133 1147.47 537.206 1226.66 456.285 1298.55C476.866 1305.38 530.124 1327.53 589.052 1347.32C676.656 1298.36 714.505 1167.89 719.289 1119.32C690.501 1105.34 624.806 1073.59 592.277 1057.22Z" fill="#CC8AFF"/>
<path d="M592.277 1057.22C574.133 1147.47 537.206 1226.66 456.285 1298.55C476.866 1305.38 530.124 1327.53 589.052 1347.32C676.656 1298.36 714.505 1167.89 719.289 1119.32C690.501 1105.34 624.806 1073.59 592.277 1057.22Z" fill="url(#paint7_linear_1_9370)" fill-opacity="0.3"/>
<path d="M592.277 1057.22C574.133 1147.47 537.206 1226.66 456.285 1298.55C476.866 1305.38 530.124 1327.53 589.052 1347.32C676.656 1298.36 714.505 1167.89 719.289 1119.32C690.501 1105.34 624.806 1073.59 592.277 1057.22Z" fill="url(#paint8_linear_1_9370)" fill-opacity="0.2"/>
<path d="M627.328 1224.71L611.358 1215.72L637.017 1142.43C639.202 1136.19 645.764 1133.69 651.502 1136.92C657.241 1140.15 659.877 1147.82 657.322 1153.86L627.328 1224.71ZM615.322 1262.22L595.281 1250.95L603.369 1230L623.41 1241.27L615.322 1262.22Z" fill="#A64EF3"/>
<path d="M682.367 1260.28L553.376 1205.09C503.882 1293.06 425.009 1345.73 360.303 1361.53C371.701 1367.69 409.308 1387.92 468.552 1419.56C608.807 1398.1 667.401 1281.99 682.367 1260.28Z" fill="#B380E5"/>
<path d="M682.367 1260.28L553.376 1205.09C503.882 1293.06 425.009 1345.73 360.303 1361.53C371.701 1367.69 409.308 1387.92 468.552 1419.56C608.807 1398.1 667.401 1281.99 682.367 1260.28Z" fill="#8466FF"/>
<path d="M682.367 1260.28L553.376 1205.09C503.882 1293.06 425.009 1345.73 360.303 1361.53C371.701 1367.69 409.308 1387.92 468.552 1419.56C608.807 1398.1 667.401 1281.99 682.367 1260.28Z" fill="url(#paint9_linear_1_9370)" fill-opacity="0.3"/>
<path d="M314.775 1022.88L200.233 968.454C163.058 1027.49 142.181 1086.52 137.058 1188.72C153.893 1190.31 206.07 1215 256.514 1227.99C257.46 1169.22 282.532 1068.83 314.775 1022.88Z" fill="#C9A6F6"/>
<path d="M314.775 1022.88L200.233 968.454C163.058 1027.49 142.181 1086.52 137.058 1188.72C153.893 1190.31 206.07 1215 256.514 1227.99C257.46 1169.22 282.532 1068.83 314.775 1022.88Z" fill="#B3A0FF"/>
<path d="M314.775 1022.88L200.233 968.454C163.058 1027.49 142.181 1086.52 137.058 1188.72C153.893 1190.31 206.07 1215 256.514 1227.99C257.46 1169.22 282.532 1068.83 314.775 1022.88Z" fill="url(#paint10_linear_1_9370)" fill-opacity="0.2"/>
<path d="M288.532 1113.17L159.101 1064.98C132.837 1157.89 135.701 1263.81 181.562 1321.25C223.025 1325.18 257.548 1334.31 300.396 1334.23C276.427 1302.98 259.746 1210.53 288.532 1113.17Z" fill="#988FFF"/>
<path d="M281.712 1243.42L151.719 1191.95C154.313 1313.11 208.188 1343.61 243.216 1359.33C271.221 1367.58 321.212 1384.2 371.116 1403.18C334.021 1365.18 284.283 1342.74 281.712 1243.42Z" fill="#7F8CFD"/>
<path d="M281.712 1243.42L151.719 1191.95C154.313 1313.11 208.188 1343.61 243.216 1359.33C271.221 1367.58 321.212 1384.2 371.116 1403.18C334.021 1365.18 284.283 1342.74 281.712 1243.42Z" fill="url(#paint11_linear_1_9370)" fill-opacity="0.2"/>
<path d="M311.667 1336.49L182.633 1294.8C214.544 1361.97 267.149 1372.37 293.292 1379.55C314.206 1385.3 373.366 1398.98 398.847 1408.98C332.97 1383.12 311.667 1336.49 311.667 1336.49Z" fill="#6978FF"/>
<path d="M311.667 1336.49L182.633 1294.8C214.544 1361.97 267.149 1372.37 293.292 1379.55C314.206 1385.3 373.366 1398.98 398.847 1408.98C332.97 1383.12 311.667 1336.49 311.667 1336.49Z" fill="url(#paint12_linear_1_9370)" fill-opacity="0.2"/>
<path d="M590.282 1378.66L460.895 1325.16C378.598 1385.8 328.997 1387.26 267.617 1372.36C318.712 1392.54 415.862 1422.16 450.67 1428.98C494.633 1430.03 550.099 1409.74 590.282 1378.66Z" fill="#6850FF"/>
<path d="M590.282 1378.66L460.895 1325.16C378.598 1385.8 328.997 1387.26 267.617 1372.36C318.712 1392.54 415.862 1422.16 450.67 1428.98C494.633 1430.03 550.099 1409.74 590.282 1378.66Z" fill="#4763F6" fill-opacity="0.8"/>
<path d="M590.282 1378.66L460.895 1325.16C378.598 1385.8 328.997 1387.26 267.617 1372.36C318.712 1392.54 415.862 1422.16 450.67 1428.98C494.633 1430.03 550.099 1409.74 590.282 1378.66Z" fill="url(#paint13_linear_1_9370)" fill-opacity="0.1"/>
<path fill-rule="evenodd" clip-rule="evenodd" d="M441.86 1426.83C449.321 1417.34 448.533 1404.75 438.995 1395.15C426.842 1382.94 407.082 1381.53 393.452 1390.84C385.765 1396.1 381.939 1403.34 381.965 1410.77C387.079 1412.3 392.071 1413.76 396.893 1415.15C395.063 1409.74 396.969 1403.99 402.662 1400.1C410.301 1394.89 421.175 1395.45 428.21 1402.52C434.708 1409.06 434.188 1417.71 426.62 1423.25C432.42 1424.72 437.559 1425.93 441.86 1426.83Z" fill="#2E3CD6"/>
<path d="M607.992 978.189L687.18 1014.34" stroke="#FFE6F7" stroke-width="2.09965" stroke-linecap="round"/>
<path d="M609.648 997.584L688.836 1033.73" stroke="#FFE6F7" stroke-width="2.09965" stroke-linecap="round"/>
<path d="M612.297 1019.71L690.131 1053.41" stroke="#FFE6F7" stroke-width="2.09965" stroke-linecap="round"/>
<path d="M610.664 1039.13L655.656 1058.61" stroke="#FFE6F7" stroke-width="2.09965" stroke-linecap="round"/>
<path d="M547.676 1256.65L637.1 1293.8" stroke="#D3ACFF" stroke-width="3" stroke-linecap="round"/>
<path d="M535.27 1275.23L624.694 1312.38" stroke="#D3ACFF" stroke-width="3" stroke-linecap="round"/>
<path d="M521.09 1293.8L608.838 1328.04" stroke="#D3ACFF" stroke-width="3" stroke-linecap="round"/>
<path d="M504.149 1310.45L554.871 1330.23" stroke="#D3ACFF" stroke-width="3" stroke-linecap="round"/>
<path d="M344.216 1119.76C343.314 1117.06 343.996 1114.59 346.021 1113.24L355.683 1106.77C356.906 1105.95 359.209 1107.12 359.561 1108.73L389.64 1246.82C389.692 1247.06 389.591 1247.26 389.376 1247.35C388.326 1247.77 386.733 1246.92 386.335 1245.73L344.216 1119.76Z" fill="#A570E6"/>
<path d="M340.291 1118.77C339.388 1116.07 340.07 1113.61 342.095 1112.25L351.757 1105.78C352.98 1104.97 355.283 1106.13 355.635 1107.75L385.714 1245.83C385.767 1246.08 385.665 1246.28 385.45 1246.37C384.401 1246.79 382.808 1245.94 382.409 1244.75L340.291 1118.77Z" fill="#C097F2"/>
<path d="M350.114 1121.46C346.673 1124.98 342.233 1124.22 340.39 1119.79L339.276 1117.11C337.472 1112.78 338.874 1106.65 342.382 1103.53L467.48 992.25C469.178 990.739 471.208 990.612 472.673 991.924C473.713 992.856 473.589 995.1 472.432 996.284L350.114 1121.46Z" fill="#6285FF"/>
<path d="M350.114 1121.46C346.673 1124.98 342.233 1124.22 340.39 1119.79L339.276 1117.11C337.472 1112.78 338.874 1106.65 342.382 1103.53L467.48 992.25C469.178 990.739 471.208 990.612 472.673 991.924C473.713 992.856 473.589 995.1 472.432 996.284L350.114 1121.46Z" fill="#7A5BFF"/>
<path d="M347.415 1118.59C343.974 1122.11 339.534 1121.35 337.69 1116.92L336.625 1114.36C334.803 1109.99 336.254 1103.79 339.822 1100.7L467.568 990.189C468.538 989.35 469.679 989.225 470.563 989.86C471.288 990.381 471.25 991.864 470.492 992.639L347.415 1118.59Z" fill="#6285FF"/>
<path d="M347.415 1118.59C343.974 1122.11 339.534 1121.35 337.69 1116.92L336.625 1114.36C334.803 1109.99 336.254 1103.79 339.822 1100.7L467.568 990.189C468.538 989.35 469.679 989.225 470.563 989.86C471.288 990.381 471.25 991.864 470.492 992.639L347.415 1118.59Z" fill="#8C72F9"/>
<ellipse cx="346.048" cy="1107.31" rx="4.35464" ry="6.00359" transform="rotate(41.0226 346.048 1107.31)" fill="#F5F1FF"/>
<ellipse cx="346.048" cy="1107.31" rx="4.35464" ry="6.00359" transform="rotate(41.0226 346.048 1107.31)" fill="#FFBC2A"/>
<circle cx="683.443" cy="1295.77" r="73.1187" transform="rotate(23.7099 683.443 1295.77)" fill="#DECDFF"/>
<circle cx="683.443" cy="1295.77" r="73.1187" transform="rotate(23.7099 683.443 1295.77)" fill="#98BBFF"/>
<circle cx="693.522" cy="1297.54" r="73.1187" transform="rotate(23.7099 693.522 1297.54)" fill="#F5F1FF"/>
<circle cx="693.522" cy="1297.54" r="73.1187" transform="rotate(23.7099 693.522 1297.54)" fill="white"/>
<g clip-path="url(#clip2_1_9370)">
<path d="M702.73 1284.26L712.699 1264.03C715.765 1259.66 722.034 1260.21 724.041 1265.03L736.061 1293.88C738.068 1298.7 734.328 1304.21 729.294 1303.86L708.765 1298.74L702.73 1284.26Z" fill="#90F0E5"/>
<path d="M702.73 1284.26L712.699 1264.03C715.765 1259.66 722.034 1260.21 724.041 1265.03L736.061 1293.88C738.068 1298.7 734.328 1304.21 729.294 1303.86L708.765 1298.74L702.73 1284.26Z" fill="#A8D5FF"/>
<path d="M648.284 1294.33C646.653 1290.42 648.052 1285.9 651.407 1284.23L693.938 1263.15C697.294 1261.49 701.336 1263.31 702.967 1267.23L720.681 1309.75C722.311 1313.66 720.913 1318.18 717.557 1319.85L675.026 1340.93C671.671 1342.59 667.629 1340.77 665.998 1336.85L648.284 1294.33Z" fill="#17D4BE"/>
<path d="M648.284 1294.33C646.653 1290.42 648.052 1285.9 651.407 1284.23L693.938 1263.15C697.294 1261.49 701.336 1263.31 702.967 1267.23L720.681 1309.75C722.311 1313.66 720.913 1318.18 717.557 1319.85L675.026 1340.93C671.671 1342.59 667.629 1340.77 665.998 1336.85L648.284 1294.33Z" fill="#68B6FF"/>
<path d="M648.284 1294.33C646.653 1290.42 648.052 1285.9 651.407 1284.23L693.938 1263.15C697.294 1261.49 701.336 1263.31 702.967 1267.23L720.681 1309.75C722.311 1313.66 720.913 1318.18 717.557 1319.85L675.026 1340.93C671.671 1342.59 667.629 1340.77 665.998 1336.85L648.284 1294.33Z" fill="#859DFF"/>
<path d="M668.81 1290.81C665.454 1292.47 663.909 1296.64 665.358 1300.12C666.808 1303.6 670.703 1305.07 674.058 1303.41C677.414 1301.74 678.959 1297.58 677.51 1294.1C676.061 1290.62 672.165 1289.15 668.81 1290.81Z" fill="white"/>
</g>
</g>
<defs>
<linearGradient id="paint0_linear_1_9370" x1="375" y1="-176" x2="375" y2="1055.4" gradientUnits="userSpaceOnUse">
<stop stop-color="#6B5BF7"/>
<stop offset="1" stop-color="#9874FF"/>
</linearGradient>
<linearGradient id="paint1_linear_1_9370" x1="528.401" y1="871.428" x2="483.578" y2="844.412" gradientUnits="userSpaceOnUse">
<stop stop-color="#9C0808"/>
<stop offset="1" stop-color="#FE9E9E"/>
</linearGradient>
<linearGradient id="paint2_linear_1_9370" x1="571.148" y1="951.022" x2="543.267" y2="887.799" gradientUnits="userSpaceOnUse">
<stop offset="0.336606" stop-color="#FD9E9E"/>
<stop offset="1" stop-color="#FFC5D6"/>
</linearGradient>
<linearGradient id="paint3_linear_1_9370" x1="574.864" y1="923.474" x2="542.728" y2="890.931" gradientUnits="userSpaceOnUse">
<stop stop-color="#CB5353"/>
<stop offset="1" stop-color="#FFC4D6"/>
</linearGradient>
<linearGradient id="paint4_linear_1_9370" x1="613.989" y1="1041.76" x2="601.214" y2="952.925" gradientUnits="userSpaceOnUse">
<stop stop-color="#FC81C3"/>
<stop offset="1" stop-color="#FFB1DC"/>
</linearGradient>
<linearGradient id="paint5_linear_1_9370" x1="591.571" y1="895.521" x2="653.774" y2="1003.46" gradientUnits="userSpaceOnUse">
<stop stop-color="#FFB513"/>
<stop offset="1" stop-color="#FEAFBF" stop-opacity="0"/>
</linearGradient>
<linearGradient id="paint6_linear_1_9370" x1="636.285" y1="1089.63" x2="643.781" y2="1059.69" gradientUnits="userSpaceOnUse">
<stop stop-color="#A83673"/>
<stop offset="1" stop-color="#E277B0"/>
</linearGradient>
<linearGradient id="paint7_linear_1_9370" x1="494.196" y1="1304.16" x2="593.747" y2="1162.23" gradientUnits="userSpaceOnUse">
<stop stop-color="#7D5DFF"/>
<stop offset="1" stop-color="#C89AFF"/>
</linearGradient>
<linearGradient id="paint8_linear_1_9370" x1="661.533" y1="1089.33" x2="641.019" y2="1160.19" gradientUnits="userSpaceOnUse">
<stop stop-color="white"/>
<stop offset="1" stop-color="#D6AAFE"/>
</linearGradient>
<linearGradient id="paint9_linear_1_9370" x1="504.955" y1="1360.4" x2="515.71" y2="1313.32" gradientUnits="userSpaceOnUse">
<stop stop-color="#420295"/>
<stop offset="1" stop-color="#31006F" stop-opacity="0"/>
</linearGradient>
<linearGradient id="paint10_linear_1_9370" x1="230.78" y1="1074.72" x2="218.096" y2="1117" gradientUnits="userSpaceOnUse">
<stop stop-color="#BC95FF"/>
<stop offset="1" stop-color="#2F20A3"/>
</linearGradient>
<linearGradient id="paint11_linear_1_9370" x1="203.475" y1="1290.75" x2="216.812" y2="1375.44" gradientUnits="userSpaceOnUse">
<stop stop-color="#8F80FD"/>
<stop offset="1" stop-color="#3925EE"/>
</linearGradient>
<linearGradient id="paint12_linear_1_9370" x1="337.867" y1="1385.49" x2="284.706" y2="1351.89" gradientUnits="userSpaceOnUse">
<stop stop-color="#2137AB"/>
<stop offset="1" stop-color="#8471FF"/>
</linearGradient>
<linearGradient id="paint13_linear_1_9370" x1="367.931" y1="1404.35" x2="419.55" y2="1385.27" gradientUnits="userSpaceOnUse">
<stop stop-color="#1B1188"/>
<stop offset="1" stop-color="#5647F6"/>
</linearGradient>
<clipPath id="clip0_1_9370">
<rect width="750" height="1624" fill="white"/>
</clipPath>
<clipPath id="clip1_1_9370">
<rect width="43.5072" height="42.1888" fill="white" transform="matrix(0.974862 0.222811 -0.582324 0.812957 636.137 815.388)"/>
</clipPath>
<clipPath id="clip2_1_9370">
<rect width="81.5198" height="61.6369" fill="white" transform="matrix(0.895969 -0.444116 0.384566 0.923098 645.148 1287.18)"/>
</clipPath>
</defs>
</svg>
