<svg width="750" height="1624" viewBox="0 0 750 1624" fill="none" xmlns="http://www.w3.org/2000/svg">
<g clip-path="url(#clip0_8_906)">
<rect width="750" height="1624" fill="white"/>
<rect width="750" height="1624" fill="#2667FF"/>
<path d="M748.226 0.765625H6.07538V1624.77H377.151C377.151 1624.77 572.593 1642.79 712.335 1571.28C766.376 1474.12 748.226 1190.44 748.226 1190.44V0.765625Z" fill="#E6E9FF"/>
<path d="M748.226 0.765625H6.07538V1624.77H377.151C377.151 1624.77 572.593 1642.79 712.335 1571.28C766.376 1474.12 748.226 1190.44 748.226 1190.44V0.765625Z" fill="#E6E9FF"/>
<path d="M748.226 0.765625H6.07538V1624.77H377.151C377.151 1624.77 572.593 1642.79 712.335 1571.28C766.376 1474.12 748.226 1190.44 748.226 1190.44V0.765625Z" fill="#C0C8FF"/>
<path d="M748.226 0.765625H6.07538V1624.77H377.151C377.151 1624.77 572.593 1642.79 712.335 1571.28C766.376 1474.12 748.226 1190.44 748.226 1190.44V0.765625Z" fill="#4F86FF"/>
<path d="M749.555 36.2266H3.07568V1626.98C3.07568 1626.98 225.361 1621.24 376.062 1626.98C483.223 1631.06 596.621 1621 667.314 1549.77C764.277 1454.43 749.555 1355.86 749.555 1267.68C749.555 773.43 749.555 36.2266 749.555 36.2266Z" fill="#ACD7FF"/>
<path d="M572.215 1606.67C668.26 1576.62 725.83 1495.17 741.52 1422.33C741.52 1422.33 716.865 1500.21 634.693 1508.88C633.837 1521.53 624.48 1578.56 572.215 1606.67Z" fill="#8C9BFF"/>
<path d="M572.215 1606.67C668.26 1576.62 725.83 1495.17 741.52 1422.33C741.52 1422.33 716.865 1500.21 634.693 1508.88C633.837 1521.53 624.48 1578.56 572.215 1606.67Z" fill="#83B5FF"/>
<path d="M750.171 -3H-1.54144V1624.77H411.975C411.975 1624.77 604.659 1638.35 592.977 1459C766.141 1476.94 750.171 1316.29 750.171 1316.29V-3Z" fill="url(#paint0_linear_8_906)"/>
<path d="M750.171 -3H-1.54144V1624.77H411.975C411.975 1624.77 604.659 1638.35 592.977 1459C766.141 1476.94 750.171 1316.29 750.171 1316.29V-3Z" fill="#D8EEFF"/>
<g opacity="0.5">
<path d="M-460.246 861.349C-445.953 840.829 -414.726 829.213 -390.498 835.402L655.987 1102.73C680.916 1109.09 688.596 1131.75 672.886 1152.59L99.4761 1913.12C84.7486 1932.65 54.7409 1943.45 31.2396 1937.67L-983.846 1687.97C-1008.37 1681.94 -1016.65 1660.17 -1002.26 1639.51L-460.246 861.349Z" fill="#59B9FF" fill-opacity="0.2"/>
<path d="M-460.246 861.349C-445.953 840.829 -414.726 829.213 -390.498 835.402L655.987 1102.73C680.916 1109.09 688.596 1131.75 672.886 1152.59L99.4761 1913.12C84.7486 1932.65 54.7409 1943.45 31.2396 1937.67L-983.846 1687.97C-1008.37 1681.94 -1016.65 1660.17 -1002.26 1639.51L-460.246 861.349Z" fill="#C3D3FE"/>
</g>
<path d="M690.763 1086.19V1030.34L571.411 1103.74L625.737 1146.83L690.763 1086.19Z" fill="#B3C7FD"/>
<path d="M-452.595 799.861C-438.293 779.328 -407.036 767.712 -382.806 773.925L670.731 1044.08C695.675 1050.47 703.307 1073.18 687.515 1094.03L110.115 1856.04C95.3188 1875.57 65.2683 1886.31 41.8002 1880.45L-976.411 1626.54C-1000.83 1620.45 -1009.02 1598.72 -994.671 1578.11L-452.595 799.861Z" fill="white"/>
<path d="M-452.595 799.861C-438.293 779.328 -407.036 767.712 -382.806 773.925L670.731 1044.08C695.675 1050.47 703.307 1073.18 687.515 1094.03L110.115 1856.04C95.3188 1875.57 65.2683 1886.31 41.8002 1880.45L-976.411 1626.54C-1000.83 1620.45 -1009.02 1598.72 -994.671 1578.11L-452.595 799.861Z" fill="#CCF1F4" fill-opacity="0.3"/>
<path d="M-319.768 930.273L613.65 1175.15" stroke="#C0DDFF" stroke-width="6"/>
<path d="M-320.768 1016.91L467.954 1236.26" stroke="#C0DDFF" stroke-width="5" stroke-linecap="round"/>
<path d="M-320.768 1070.08L430.722 1279.85" stroke="#C0DDFF" stroke-width="5" stroke-linecap="round"/>
<path d="M-320.768 1126.3L178.359 1264.65" stroke="#C0DDFF" stroke-width="5"/>
<g opacity="0.7">
<ellipse cx="13.6271" cy="11.4376" rx="13.6271" ry="11.4376" transform="matrix(0.998098 -0.0616515 -0.206809 0.978382 128.654 958.254)" fill="#53ACFF"/>
<path fill-rule="evenodd" clip-rule="evenodd" d="M147.177 1008.11C135.069 1012.51 121.619 1013.51 110.129 1010.05C98.9186 1006.67 91.7817 999.698 89.4183 991.273C97.7062 983.631 110.011 978.724 122.219 979.095C140.738 979.66 155.367 990.687 147.296 1007.85C147.257 1007.94 147.217 1008.02 147.177 1008.11Z" fill="#53ACFF"/>
</g>
<g style="mix-blend-mode:darken" opacity="0.3">
<ellipse cx="40.7728" cy="40.6307" rx="40.7728" ry="40.6307" transform="matrix(0.952032 0.305997 -0.618246 0.785985 120.956 933.746)" fill="#62D5F3"/>
</g>
<g style="mix-blend-mode:darken">
<ellipse cx="40.7728" cy="40.6307" rx="40.7728" ry="40.6307" transform="matrix(0.95164 0.307214 -0.619251 0.785193 228.445 964.09)" fill="#346DFF"/>
<ellipse cx="40.7728" cy="40.6307" rx="40.7728" ry="40.6307" transform="matrix(0.95164 0.307214 -0.619251 0.785193 228.445 964.09)" fill="#C5F0F9"/>
</g>
<g opacity="0.7">
<ellipse cx="13.6271" cy="11.4376" rx="13.6271" ry="11.4376" transform="matrix(0.998098 -0.0616515 -0.206809 0.978382 236.079 988.805)" fill="#346DFF"/>
<ellipse cx="13.6271" cy="11.4376" rx="13.6271" ry="11.4376" transform="matrix(0.998098 -0.0616515 -0.206809 0.978382 236.079 988.805)" fill="#78C4FB"/>
<path fill-rule="evenodd" clip-rule="evenodd" d="M254.596 1038.66C242.488 1043.06 229.038 1044.06 217.548 1040.6C206.338 1037.22 199.201 1030.25 196.837 1021.82C205.125 1014.18 217.43 1009.27 229.638 1009.65C248.157 1010.21 262.786 1021.24 254.715 1038.4C254.676 1038.49 254.636 1038.57 254.596 1038.66Z" fill="#346DFF"/>
<path fill-rule="evenodd" clip-rule="evenodd" d="M254.596 1038.66C242.488 1043.06 229.038 1044.06 217.548 1040.6C206.338 1037.22 199.201 1030.25 196.837 1021.82C205.125 1014.18 217.43 1009.27 229.638 1009.65C248.157 1010.21 262.786 1021.24 254.715 1038.4C254.676 1038.49 254.636 1038.57 254.596 1038.66Z" fill="#78C4FB"/>
</g>
<rect opacity="0.9" width="274.945" height="270.906" rx="11.6096" transform="matrix(0.959597 0.281379 -0.613955 0.789341 84.3066 1320.56)" fill="#58AEFF"/>
<rect width="274.945" height="277.595" rx="11.6096" transform="matrix(0.959597 0.281379 -0.613955 0.789341 84.3066 1271.57)" fill="#8FE8FF"/>
<rect width="274.945" height="277.595" rx="11.6096" transform="matrix(0.959597 0.281379 -0.613955 0.789341 84.3066 1271.57)" fill="#62D5F3"/>
<rect width="274.945" height="282.212" rx="11.6096" transform="matrix(0.959597 0.281379 -0.613955 0.789341 84.3066 1214.57)" fill="#9FE9FD"/>
<rect width="283.828" height="293.658" rx="11.6096" transform="matrix(0.959597 0.281379 -0.613955 0.789341 75.7832 1154.07)" fill="white"/>
<rect width="283.828" height="293.658" rx="11.6096" transform="matrix(0.959597 0.281379 -0.613955 0.789341 75.7832 1154.07)" fill="#9EE9FD" fill-opacity="0.05"/>
<rect width="283.828" height="293.658" rx="11.6096" transform="matrix(0.959597 0.281379 -0.613955 0.789341 75.7832 1154.07)" fill="#D4F6FF"/>
<g filter="url(#filter0_d_8_906)">
<path fill-rule="evenodd" clip-rule="evenodd" d="M315.275 947.291L698.368 1052C721.686 1058.37 729.311 1079.31 715.482 1099L632.713 1216.82L237.9 1108.92C219.79 1103.97 214.016 1087.61 225.001 1072.39L315.275 947.291Z" fill="white"/>
</g>
<rect width="552.638" height="314.805" rx="33.9927" transform="matrix(0.964619 0.263647 -0.585173 0.810908 389.32 844.679)" fill="white"/>
<path fill-rule="evenodd" clip-rule="evenodd" d="M906.013 1011.86L374.426 866.565C386.578 855.045 406.405 849.349 422.113 853.642L889.618 981.419C905.325 985.712 911.753 998.584 906.013 1011.86Z" fill="#DDFDE7"/>
<rect width="422.604" height="65.4855" rx="32.7427" transform="matrix(0.964619 0.263647 -0.585173 0.810908 335.142 1019.25)" fill="#E3F3FF"/>
<path d="M358.522 1040.37L332.863 1069.74" stroke="#5F95FF" stroke-width="2" stroke-linecap="round"/>
<ellipse cx="7.83248" cy="7.83248" rx="7.83248" ry="7.83248" transform="matrix(0.902462 0.43077 -0.606772 0.794876 383.82 1057.46)" fill="#346DFF"/>
<ellipse cx="7.83248" cy="7.83248" rx="7.83248" ry="7.83248" transform="matrix(0.873721 0.486427 -0.655348 0.755327 418.223 1066.03)" fill="#346DFF"/>
<ellipse cx="7.83248" cy="7.83248" rx="7.83248" ry="7.83248" transform="matrix(0.873721 0.486427 -0.655348 0.755327 452.176 1075.91)" fill="#346DFF"/>
<ellipse cx="45.8994" cy="45.7394" rx="45.8994" ry="45.7394" transform="matrix(0.952841 0.303469 -0.616158 0.787623 410.762 913.289)" fill="#93E863"/>
<ellipse cx="45.8994" cy="45.7394" rx="45.8994" ry="45.7394" transform="matrix(0.952841 0.303469 -0.616158 0.787623 407.762 907.289)" fill="#D8FFC2"/>
<g opacity="0.7">
<ellipse cx="15.7494" cy="13.2189" rx="15.7494" ry="13.2189" transform="matrix(0.998098 -0.0616515 -0.206809 0.978382 417.235 933.691)" fill="#346DFF"/>
<ellipse cx="15.7494" cy="13.2189" rx="15.7494" ry="13.2189" transform="matrix(0.998098 -0.0616515 -0.206809 0.978382 417.235 933.691)" fill="#3BD8B7"/>
<path fill-rule="evenodd" clip-rule="evenodd" d="M438.633 991.306C424.639 996.391 409.095 997.551 395.817 993.548C382.86 989.642 374.611 981.589 371.88 971.852C381.458 963.019 395.68 957.348 409.788 957.778C431.192 958.43 448.099 971.175 438.771 991.014C438.726 991.112 438.679 991.209 438.633 991.306Z" fill="#346DFF"/>
<path fill-rule="evenodd" clip-rule="evenodd" d="M438.633 991.306C424.639 996.391 409.095 997.551 395.817 993.548C382.86 989.642 374.611 981.589 371.88 971.852C381.458 963.019 395.68 957.348 409.788 957.778C431.192 958.43 448.099 971.175 438.771 991.014C438.726 991.112 438.679 991.209 438.633 991.306Z" fill="#3BD8B7"/>
</g>
<rect width="130.408" height="26.5078" rx="6" transform="matrix(0.967817 0.251657 -0.549979 0.835178 512.067 954.859)" fill="#E3F3FF"/>
<rect width="221.636" height="6.171" rx="3.0855" transform="matrix(0.96417 0.265286 -0.460571 0.887623 486.987 994.965)" fill="#E3F3FF"/>
<path d="M104.385 1244.49C105.965 1242.22 109.339 1241 111.92 1241.78L196.054 1266.92C197.294 1267.29 198.181 1268.08 198.521 1269.11C198.861 1270.15 198.625 1271.34 197.866 1272.43L186.42 1288.86C184.84 1291.13 181.466 1292.35 178.885 1291.58C176.303 1290.8 175.492 1288.34 177.072 1286.07L185.657 1273.74L152.938 1263.96L107.153 1329.71L121.175 1333.9C123.757 1334.67 124.568 1337.13 122.988 1339.4C121.407 1341.67 118.034 1342.89 115.452 1342.11L78.0593 1330.94C75.4779 1330.17 74.6664 1327.7 76.2468 1325.43C77.8272 1323.16 81.201 1321.95 83.7824 1322.72L97.8047 1326.91L143.59 1261.17L110.871 1251.39L102.286 1263.72C100.706 1265.99 97.3322 1267.2 94.7508 1266.43C92.1693 1265.66 91.3578 1263.19 92.9382 1260.92L104.385 1244.49Z" fill="#5F95FF"/>
<path d="M706.564 1077.03C709.398 1075.03 711.655 1072.3 713.05 1069.18C714.445 1066.07 714.918 1062.71 714.408 1059.52L688.378 896.546L549.308 994.862L687.864 1078.29C690.572 1079.92 693.791 1080.67 697.118 1080.45C700.444 1080.22 703.73 1079.04 706.564 1077.03Z" fill="url(#paint1_linear_8_906)"/>
<path d="M706.564 1077.03C709.398 1075.03 711.655 1072.3 713.05 1069.18C714.445 1066.07 714.918 1062.71 714.408 1059.52L688.378 896.546L549.308 994.862L687.864 1078.29C690.572 1079.92 693.791 1080.67 697.118 1080.45C700.444 1080.22 703.73 1079.04 706.564 1077.03Z" fill="url(#paint2_linear_8_906)"/>
<path d="M661.342 1062.33C670.24 1058.41 679.144 1053.32 687.719 1047.11C695.79 1041.27 703.051 1034.82 709.365 1028.01L706.377 1009.3C699.498 1018.5 690.483 1027.47 679.618 1035.33C668.362 1043.48 656.682 1049.3 645.579 1052.83L661.342 1062.33Z" fill="url(#paint3_linear_8_906)"/>
<path d="M661.342 1062.33C670.24 1058.41 679.144 1053.32 687.719 1047.11C695.79 1041.27 703.051 1034.82 709.365 1028.01L706.377 1009.3C699.498 1018.5 690.483 1027.47 679.618 1035.33C668.362 1043.48 656.682 1049.3 645.579 1052.83L661.342 1062.33Z" fill="url(#paint4_linear_8_906)"/>
<path d="M614.331 1034.02C629.968 1029.84 646.889 1021.68 662.959 1010.05C678.552 998.762 691.42 985.608 700.469 972.311L696.748 949.01C695.935 951.074 694.961 953.216 693.819 955.431C686.521 969.584 673.03 985.112 654.858 998.263C636.685 1011.41 617.901 1019.24 602.457 1021.55C599.743 1021.95 597.184 1022.18 594.784 1022.25L614.331 1034.02Z" fill="url(#paint5_linear_8_906)"/>
<path d="M614.331 1034.02C629.968 1029.84 646.889 1021.68 662.959 1010.05C678.552 998.762 691.42 985.608 700.469 972.311L696.748 949.01C695.935 951.074 694.961 953.216 693.819 955.431C686.521 969.584 673.03 985.112 654.858 998.263C636.685 1011.41 617.901 1019.24 602.457 1021.55C599.743 1021.95 597.184 1022.18 594.784 1022.25L614.331 1034.02Z" fill="url(#paint6_linear_8_906)"/>
<path d="M549.028 993.773C557.679 1006.36 595.599 994.192 633.725 966.602C671.851 939.011 695.745 906.444 687.094 893.86C678.443 881.277 640.523 893.442 602.397 921.032C564.271 948.623 540.377 981.19 549.028 993.773Z" fill="url(#paint7_linear_8_906)"/>
<path d="M549.028 993.773C557.679 1006.36 595.599 994.192 633.725 966.602C671.851 939.011 695.745 906.444 687.094 893.86C678.443 881.277 640.523 893.442 602.397 921.032C564.271 948.623 540.377 981.19 549.028 993.773Z" fill="url(#paint8_linear_8_906)"/>
<path d="M576.288 921.452C575.639 937.097 588.412 949.175 604.819 948.428C621.226 947.682 635.054 934.393 635.704 918.747C636.353 903.102 623.58 891.024 607.173 891.771C590.765 892.517 576.938 905.806 576.288 921.452Z" fill="#64E8D6"/>
<path d="M576.288 921.452C575.639 937.097 588.412 949.175 604.819 948.428C621.226 947.682 635.054 934.393 635.704 918.747C636.353 903.102 623.58 891.024 607.173 891.771C590.765 892.517 576.938 905.806 576.288 921.452Z" fill="url(#paint9_linear_8_906)"/>
<path d="M615.054 766.772C612.527 775.753 617.958 784.357 627.184 785.991C636.41 787.625 645.938 781.67 648.465 772.689C650.992 763.708 645.562 755.104 636.335 753.47C627.109 751.836 617.581 757.792 615.054 766.772Z" fill="url(#paint10_linear_8_906)"/>
<circle cx="524.069" cy="905.464" r="19.4551" transform="rotate(3.26107 524.069 905.464)" fill="#FCE65C"/>
<circle cx="604.162" cy="915.452" r="32.2891" transform="rotate(3.26107 604.162 915.452)" fill="#3CDEC8"/>
</g>
<defs>
<filter id="filter0_d_8_906" x="210.369" y="947.291" width="521.069" height="287.663" filterUnits="userSpaceOnUse" color-interpolation-filters="sRGB">
<feFlood flood-opacity="0" result="BackgroundImageFix"/>
<feColorMatrix in="SourceAlpha" type="matrix" values="0 0 0 0 0 0 0 0 0 0 0 0 0 0 0 0 0 0 127 0" result="hardAlpha"/>
<feOffset dy="9.06471"/>
<feGaussianBlur stdDeviation="4.53235"/>
<feComposite in2="hardAlpha" operator="out"/>
<feColorMatrix type="matrix" values="0 0 0 0 0.115963 0 0 0 0 0.328728 0 0 0 0 0.525127 0 0 0 0.1 0"/>
<feBlend mode="normal" in2="BackgroundImageFix" result="effect1_dropShadow_8_906"/>
<feBlend mode="normal" in="SourceGraphic" in2="effect1_dropShadow_8_906" result="shape"/>
</filter>
<linearGradient id="paint0_linear_8_906" x1="374.509" y1="-3" x2="374.509" y2="1585.56" gradientUnits="userSpaceOnUse">
<stop stop-color="#D8EEFF"/>
<stop offset="1" stop-color="#EAEFFE" stop-opacity="0"/>
<stop offset="1" stop-color="#F8F8F8"/>
</linearGradient>
<linearGradient id="paint1_linear_8_906" x1="698.249" y1="918.421" x2="579.307" y2="1062.06" gradientUnits="userSpaceOnUse">
<stop stop-color="#FFE928"/>
<stop offset="1" stop-color="#FFA338"/>
</linearGradient>
<linearGradient id="paint2_linear_8_906" x1="716.963" y1="1071.8" x2="605.941" y2="994.753" gradientUnits="userSpaceOnUse">
<stop stop-color="#FFAA17"/>
<stop offset="1" stop-color="#F0FF3F" stop-opacity="0"/>
</linearGradient>
<linearGradient id="paint3_linear_8_906" x1="696.546" y1="949.786" x2="662.315" y2="1058.81" gradientUnits="userSpaceOnUse">
<stop stop-color="#F54F49"/>
<stop offset="1" stop-color="#E02F28"/>
</linearGradient>
<linearGradient id="paint4_linear_8_906" x1="640.067" y1="951.341" x2="742.081" y2="1084.66" gradientUnits="userSpaceOnUse">
<stop stop-color="#FF7952"/>
<stop offset="1" stop-color="#AC68BD"/>
</linearGradient>
<linearGradient id="paint5_linear_8_906" x1="696.546" y1="949.786" x2="662.315" y2="1058.81" gradientUnits="userSpaceOnUse">
<stop stop-color="#F54F49"/>
<stop offset="1" stop-color="#E02F28"/>
</linearGradient>
<linearGradient id="paint6_linear_8_906" x1="640.067" y1="951.341" x2="742.081" y2="1084.66" gradientUnits="userSpaceOnUse">
<stop stop-color="#FF7952"/>
<stop offset="1" stop-color="#AC68BD"/>
</linearGradient>
<linearGradient id="paint7_linear_8_906" x1="643.659" y1="897.435" x2="606.278" y2="992.098" gradientUnits="userSpaceOnUse">
<stop stop-color="#B28900"/>
<stop offset="1" stop-color="#DB7500"/>
</linearGradient>
<linearGradient id="paint8_linear_8_906" x1="612.474" y1="895.855" x2="642.549" y2="970.07" gradientUnits="userSpaceOnUse">
<stop stop-color="#ED5C1E"/>
<stop offset="1" stop-color="#FE7903"/>
</linearGradient>
<linearGradient id="paint9_linear_8_906" x1="621.295" y1="895.258" x2="597.914" y2="949.388" gradientUnits="userSpaceOnUse">
<stop stop-color="#64E8D6"/>
<stop offset="1" stop-color="#03CEB2"/>
</linearGradient>
<linearGradient id="paint10_linear_8_906" x1="649.123" y1="767.708" x2="614.397" y2="771.753" gradientUnits="userSpaceOnUse">
<stop stop-color="#F76964"/>
<stop offset="1" stop-color="#F54A45"/>
</linearGradient>
<clipPath id="clip0_8_906">
<rect width="750" height="1624" fill="white"/>
</clipPath>
</defs>
</svg>
