<svg width="750" height="1624" viewBox="0 0 750 1624" fill="none" xmlns="http://www.w3.org/2000/svg">
<g clip-path="url(#clip0_8_285)">
<rect width="750" height="1624" fill="white"/>
<rect width="750" height="1624" fill="#394CF9"/>
<path d="M748.763 -0.03125H6.61249V1623.97H377.688C377.688 1623.97 573.13 1641.99 712.872 1570.49C766.913 1473.32 748.763 1189.64 748.763 1189.64V-0.03125Z" fill="#E6E9FF"/>
<path d="M748.763 -0.03125H6.61249V1623.97H377.688C377.688 1623.97 573.13 1641.99 712.872 1570.49C766.913 1473.32 748.763 1189.64 748.763 1189.64V-0.03125Z" fill="#E6E9FF"/>
<path d="M748.763 -0.03125H6.61249V1623.97H377.688C377.688 1623.97 573.13 1641.99 712.872 1570.49C766.913 1473.32 748.763 1189.64 748.763 1189.64V-0.03125Z" fill="#C0C8FF"/>
<path d="M748.763 -0.03125H6.61249V1623.97H377.688C377.688 1623.97 573.13 1641.99 712.872 1570.49C766.913 1473.32 748.763 1189.64 748.763 1189.64V-0.03125Z" fill="#4052F9" fill-opacity="0.7"/>
<path d="M750.092 35.4297H3.61279V1626.19C3.61279 1626.19 225.898 1620.44 376.599 1626.19C483.76 1630.27 597.158 1620.21 667.851 1548.97C764.814 1453.64 750.092 1355.07 750.092 1266.88C750.092 772.633 750.092 35.4297 750.092 35.4297Z" fill="#E6E9FF"/>
<path d="M750.092 35.4297H3.61279V1626.19C3.61279 1626.19 225.898 1620.44 376.599 1626.19C483.76 1630.27 597.158 1620.21 667.851 1548.97C764.814 1453.64 750.092 1355.07 750.092 1266.88C750.092 772.633 750.092 35.4297 750.092 35.4297Z" fill="#D6DCFF"/>
<path d="M572.753 1605.87C668.797 1575.82 726.367 1494.37 742.057 1421.54C742.057 1421.54 717.402 1499.42 635.231 1508.08C634.375 1520.74 625.018 1577.76 572.753 1605.87Z" fill="#8C9BFF"/>
<path d="M750.073 -0.03125H-1.00336V1623.97H412.163C412.163 1623.97 604.684 1637.52 593.012 1458.59C766.029 1476.48 750.073 1316.21 750.073 1316.21V-0.03125Z" fill="#E6E9FF"/>
<path d="M750.073 -0.03125H-1.00336V1623.97H412.163C412.163 1623.97 604.684 1637.52 593.012 1458.59C766.029 1476.48 750.073 1316.21 750.073 1316.21V-0.03125Z" fill="#E6E9FF"/>
<path d="M750.073 -0.03125H-1.00336V1623.97H412.163C412.163 1623.97 604.684 1637.52 593.012 1458.59C766.029 1476.48 750.073 1316.21 750.073 1316.21V-0.03125Z" fill="#F8F9FF"/>
<path d="M750.073 -0.03125H-1.00336V1623.97H412.163C412.163 1623.97 604.684 1637.52 593.012 1458.59C766.029 1476.48 750.073 1316.21 750.073 1316.21V-0.03125Z" fill="#EBF0FF"/>
<path d="M750.073 -0.03125H-1.00336V1623.97H412.163C412.163 1623.97 604.684 1637.52 593.012 1458.59C766.029 1476.48 750.073 1316.21 750.073 1316.21V-0.03125Z" fill="url(#paint0_linear_8_285)" fill-opacity="0.8"/>
<path d="M750.073 -0.03125H-1.00336V1623.97H412.163C412.163 1623.97 604.684 1637.52 593.012 1458.59C766.029 1476.48 750.073 1316.21 750.073 1316.21V-0.03125Z" fill="#DFE7FF"/>
<rect width="998.317" height="213.448" rx="106.724" transform="matrix(0.968731 0.248115 -0.549256 0.835654 -205.346 937.062)" fill="#D6DAFF"/>
<path fill-rule="evenodd" clip-rule="evenodd" d="M716.486 1257.27C713.678 1263.87 709.974 1270.49 705.338 1277.05C674.002 1321.4 610.655 1347.5 556.793 1339.89L559.99 1130.88L661.935 1156.69C689.441 1163.66 708.441 1179.09 717.382 1198.68L716.486 1257.27Z" fill="#BFC7FC"/>
<rect width="998.317" height="222.116" rx="111.058" transform="matrix(0.968731 0.248115 -0.549256 0.835654 -204.826 903.07)" fill="white"/>
<rect opacity="0.8" width="1559.7" height="1254.21" rx="82" transform="matrix(0.971522 0.236948 -0.539601 0.841921 60.1758 -301.352)" fill="#EBF0FF"/>
<g style="mix-blend-mode:multiply">
<path d="M589.859 1114.03L559.76 1267.48L716.546 1201.29V1256.13L785.14 1225.57L780.689 1080.24L589.859 1114.03Z" fill="#96A8FD" fill-opacity="0.8"/>
</g>
<path d="M405.16 1066.09L560.246 1103.6V1268.19L405.16 1227.36V1066.09Z" fill="#4E44FF"/>
<path d="M405.16 1066.09L560.246 1103.6V1268.19L405.16 1227.36V1066.09Z" fill="#4F5FFB"/>
<path d="M559.828 1103.28L659.624 1024.11L658.25 1187.54L559.828 1267.77V1103.28Z" fill="#5549FF"/>
<path d="M559.828 1103.28L659.624 1024.11L658.25 1187.54L559.828 1267.77V1103.28Z" fill="#2B38BA"/>
<path d="M507.699 987.102L659.503 1024.22L559.829 1103.46L405.16 1066.23L507.699 987.102Z" fill="#6457FF"/>
<path d="M507.699 987.102L659.503 1024.22L559.829 1103.46L405.16 1066.23L507.699 987.102Z" fill="#6775FF"/>
<path d="M489.062 1169.88L492.013 1153.68C489.447 1152.23 487.265 1151.55 485.084 1150.99C474.305 1148.26 464.681 1158.26 464.681 1169.51C464.681 1176 467.504 1180.16 473.278 1181.62C481.106 1183.61 487.394 1179.38 489.062 1169.88ZM496.376 1206.42L498.814 1215.65C491.372 1216.8 484.057 1216.8 476.23 1214.81C450.951 1208.39 435.809 1188.52 435.809 1159.53C435.809 1129.61 457.623 1112.77 483.544 1119.36C507.925 1125.55 523.58 1143.96 523.58 1170.17C523.58 1192.15 514.085 1200.59 500.739 1197.2C494.965 1195.74 490.987 1192.21 490.474 1184.4C485.084 1191.24 478.155 1191.47 471.739 1189.84C463.013 1187.62 455.955 1179.08 455.955 1167.29C455.955 1150.08 469.3 1138.25 487.522 1142.88C492.142 1144.05 498.301 1146.94 502.022 1150.53L497.66 1173.78C496.89 1177.69 494.965 1186.87 501.509 1188.79C508.439 1190.82 514.47 1183.21 514.47 1167.86C514.47 1147.87 503.177 1133.74 483.544 1128.76C461.858 1123.25 445.048 1138.71 445.048 1161.88C445.048 1185.05 456.597 1200.42 476.23 1205.41C483.672 1207.3 489.062 1207.21 496.376 1206.42Z" fill="white"/>
<path fill-rule="evenodd" clip-rule="evenodd" d="M593.283 1008L659.681 1024.2L611.689 1062.13C609.013 1064.23 606.732 1066.33 601.82 1069.9C555.778 1071.87 522.9 1057.74 522.035 1037.5C521.255 1019.24 538.723 1008.83 578.387 1004.35L593.283 1008Z" fill="#2B38BA" fill-opacity="0.6"/>
<path d="M-1433.18 1742.06C-1450.71 1756.38 -1448.21 1777.04 -1428.3 1782.49L-370.275 2072.1C-357.963 2075.47 -342.452 2071.8 -331.617 2062.94L408.085 1458.48C425.611 1444.16 423.116 1423.5 403.202 1418.05L-654.82 1128.43C-667.132 1125.06 -682.642 1128.74 -693.478 1137.59L-1433.18 1742.06Z" fill="white"/>
<path d="M-1433.18 1742.06C-1450.71 1756.38 -1448.21 1777.04 -1428.3 1782.49L-370.275 2072.1C-357.963 2075.47 -342.452 2071.8 -331.617 2062.94L408.085 1458.48C425.611 1444.16 423.116 1423.5 403.202 1418.05L-654.82 1128.43C-667.132 1125.06 -682.642 1128.74 -693.478 1137.59L-1433.18 1742.06Z" fill="#BFC7FC"/>
<path d="M-1433.18 1713.06C-1450.71 1727.38 -1448.21 1748.04 -1428.3 1753.49L-370.275 2043.1C-357.963 2046.47 -342.452 2042.8 -331.617 2033.94L408.085 1429.48C425.611 1415.16 423.116 1394.5 403.202 1389.05L-654.82 1099.43C-667.132 1096.06 -682.642 1099.74 -693.478 1108.59L-1433.18 1713.06Z" fill="#F9FAFE"/>
<path d="M-1410.9 1761.3C-1427.55 1774.9 -1425.18 1794.53 -1406.26 1799.71L-519.831 2042.35C-508.135 2045.55 -493.4 2042.06 -483.106 2033.65L134.929 1528.61C151.579 1515 149.209 1495.38 130.291 1490.2L-756.139 1247.55C-767.835 1244.35 -782.57 1247.84 -792.864 1256.26L-1410.9 1761.3Z" stroke="url(#paint1_linear_8_285)" stroke-width="3"/>
<path d="M-1410.9 1761.3C-1427.55 1774.9 -1425.18 1794.53 -1406.26 1799.71L-519.831 2042.35C-508.135 2045.55 -493.4 2042.06 -483.106 2033.65L134.929 1528.61C151.579 1515 149.209 1495.38 130.291 1490.2L-756.139 1247.55C-767.835 1244.35 -782.57 1247.84 -792.864 1256.26L-1410.9 1761.3Z" stroke="#DAE3FF" stroke-width="3"/>
<path d="M-1410.9 1761.3C-1427.55 1774.9 -1425.18 1794.53 -1406.26 1799.71L-519.831 2042.35C-508.135 2045.55 -493.4 2042.06 -483.106 2033.65L134.929 1528.61C151.579 1515 149.209 1495.38 130.291 1490.2L-756.139 1247.55C-767.835 1244.35 -782.57 1247.84 -792.864 1256.26L-1410.9 1761.3Z" stroke="#BFC7FC" stroke-width="3"/>
<path d="M360.006 1471.14L-144.173 1330.96" stroke="#A5B4FE" stroke-width="3"/>
<path d="M360.006 1471.14L-144.173 1330.96" stroke="#DAE3FF" stroke-width="3"/>
<path d="M360.006 1471.14L-144.173 1330.96" stroke="#BFC7FC" stroke-width="3"/>
<ellipse cx="7.83248" cy="7.83248" rx="7.83248" ry="7.83248" transform="matrix(0.89633 0.443387 -0.617862 0.786286 227.357 1374.27)" fill="#9AADFA"/>
<ellipse cx="7.83248" cy="7.83248" rx="7.83248" ry="7.83248" transform="matrix(0.866812 0.498636 -0.665879 0.74606 261.43 1383.32)" fill="#9AADFA"/>
<ellipse cx="7.83248" cy="7.83248" rx="7.83248" ry="7.83248" transform="matrix(0.866812 0.498636 -0.665879 0.74606 295.029 1393.68)" fill="#9AADFA"/>
<g opacity="0.6">
<g opacity="0.8">
<path d="M29.1735 1095.54L32.2982 1078.39L32.2372 1078.37L8.10344 1072.22L8.04323 1072.2L-9.20574 1085.76C-10.8667 1087.06 -13.3509 1087.29 -14.7543 1086.27C-16.1578 1085.26 -15.9491 1083.37 -14.2882 1082.07L36.5143 1042.15C40.654 1038.9 46.9252 1040.5 46.1752 1044.62L36.9723 1095.14C36.6714 1096.79 34.6817 1098.22 32.5281 1098.33C30.3745 1098.44 28.8726 1097.19 29.1735 1095.54ZM37.664 1048.93L14.4822 1067.15L33.4646 1071.99L37.664 1048.93Z" fill="#2B2F36"/>
<path d="M63.2071 1079.91C61.1824 1079.4 58.8316 1079.49 56.5599 1080.16L55.0978 1080.59C53.175 1081.17 51.3208 1080.51 50.9564 1079.14C50.592 1077.76 51.8553 1076.18 53.7781 1075.61L55.2402 1075.18C59.1327 1074.02 63.1607 1073.87 66.6298 1074.76L67.7577 1075.04C72.9176 1076.36 75.4518 1080.45 73.8851 1084.92C73.5983 1085.74 73.1898 1086.55 72.6682 1087.34L62.1947 1103.1C61.2486 1104.53 59.0928 1105.33 57.3797 1104.89C55.6665 1104.45 55.0448 1102.94 55.9909 1101.52L56.2391 1101.14C53.3447 1101.75 50.3585 1101.77 47.6281 1101.08L45.7893 1100.61C40.9879 1099.38 39.2422 1095.16 41.8904 1091.16C45.0181 1086.45 52.151 1083.8 57.822 1085.25L65.4994 1087.21L66.4643 1085.75C66.7167 1085.37 66.9143 1084.98 67.0531 1084.58C67.7481 1082.6 66.6239 1080.79 64.3349 1080.2L63.2071 1079.91ZM62.0112 1092.35L54.3993 1090.41C52.1557 1089.83 49.3336 1090.88 48.0962 1092.75C47.3383 1093.89 47.8379 1095.1 49.212 1095.45L51.0508 1095.92C54.8494 1096.89 59.5588 1095.3 62.0112 1092.35Z" fill="#2B2F36"/>
</g>
<g opacity="0.8">
<path d="M312.945 1136.39L318.65 1127.79C319.7 1126.21 322.095 1125.32 323.999 1125.8C325.903 1126.29 326.595 1127.97 325.545 1129.55L319.841 1138.15L330.184 1140.78C332.088 1141.27 332.78 1142.95 331.73 1144.53C330.68 1146.11 328.285 1147 326.381 1146.52L316.038 1143.88L310.333 1152.48C309.283 1154.06 306.888 1154.95 304.984 1154.46C303.08 1153.98 302.388 1152.3 303.438 1150.72L309.142 1142.12L298.799 1139.48C296.895 1139 296.203 1137.32 297.253 1135.74C298.303 1134.15 300.698 1133.27 302.602 1133.75L312.945 1136.39ZM297.378 1165.92C314.515 1170.29 336.069 1162.29 345.521 1148.05C354.972 1133.8 348.742 1118.71 331.605 1114.34C314.468 1109.97 292.914 1117.98 283.462 1132.22C274.011 1146.46 280.241 1161.55 297.378 1165.92ZM293.575 1171.66C272.63 1166.31 265.015 1147.87 276.567 1130.46C288.119 1113.05 314.463 1103.27 335.408 1108.61C356.353 1113.95 363.968 1132.39 352.416 1149.8C340.864 1167.21 314.52 1177 293.575 1171.66Z" fill="#2B2F36"/>
</g>
<path d="M154.74 1073.53C154.124 1072.07 155.298 1070.25 157.364 1069.47C159.429 1068.68 161.604 1069.23 162.22 1070.69L173.194 1096.67L209.951 1082.68C212.016 1081.9 214.19 1082.44 214.807 1083.9C215.424 1085.36 214.249 1087.18 212.183 1087.97L175.427 1101.96L179.865 1112.47C182.988 1111.8 186.214 1111.77 189.176 1112.51C197.396 1114.58 200.46 1121.84 196.019 1128.72C191.579 1135.6 181.315 1139.51 173.095 1137.44C164.875 1135.38 161.811 1128.12 166.251 1121.24C167.748 1118.92 169.906 1116.94 172.425 1115.41L167.947 1104.81L152.933 1110.52C153.049 1112.71 152.405 1115.07 150.91 1117.38C146.47 1124.27 136.206 1128.17 127.986 1126.11C119.766 1124.04 116.702 1116.79 121.142 1109.9C125.583 1103.02 135.847 1099.11 144.067 1101.18C147.032 1101.92 149.326 1103.34 150.839 1105.18L165.714 1099.52L154.74 1073.53ZM144.042 1115.66C146.434 1111.95 144.784 1108.04 140.357 1106.93C135.93 1105.82 130.402 1107.92 128.01 1111.63C125.619 1115.34 127.269 1119.24 131.696 1120.36C136.123 1121.47 141.651 1119.37 144.042 1115.66ZM189.151 1126.99C191.543 1123.29 189.893 1119.38 185.465 1118.27C181.038 1117.15 175.511 1119.26 173.119 1122.96C170.728 1126.67 172.378 1130.58 176.805 1131.69C181.232 1132.8 186.76 1130.7 189.151 1126.99Z" fill="#55595E"/>
<path d="M212.869 1109.03L218.157 1121.12L233.633 1114.26" stroke="#55595E" stroke-width="5" stroke-linecap="round" stroke-linejoin="round"/>
</g>
<g style="mix-blend-mode:multiply">
<path d="M685.274 1294.14L666.307 1361.28L720.399 1333.13H735.791L784.347 1315.85L784.349 1266.31L685.274 1294.14Z" fill="#B6C3FF"/>
</g>
<path d="M616.914 1280.58L624.171 1259.02L741.946 1313.55L736.842 1331.14L695.578 1329.64L647.952 1371.96L616.914 1280.58Z" fill="#FEBA15"/>
<path d="M616.914 1280.58L624.171 1259.02L741.946 1313.55L736.842 1331.14L695.578 1329.64L647.952 1371.96L616.914 1280.58Z" fill="#45CAFF"/>
<path d="M616.914 1280.58L624.171 1259.02L741.946 1313.55L736.842 1331.14L695.578 1329.64L647.952 1371.96L616.914 1280.58Z" fill="#3FC99A"/>
<path d="M734.315 1324.29L630.924 1280.48C627.07 1278.85 623.035 1282.39 624.156 1286.43L647.694 1371.11C648.706 1374.75 653.233 1376 655.965 1373.39L697.027 1334.16C698.001 1333.23 699.31 1332.74 700.656 1332.78L732.19 1333.89C737.733 1334.08 739.422 1326.45 734.315 1324.29Z" fill="#FEBA15"/>
<path d="M734.315 1324.29L630.924 1280.48C627.07 1278.85 623.035 1282.39 624.156 1286.43L647.694 1371.11C648.706 1374.75 653.233 1376 655.965 1373.39L697.027 1334.16C698.001 1333.23 699.31 1332.74 700.656 1332.78L732.19 1333.89C737.733 1334.08 739.422 1326.45 734.315 1324.29Z" fill="#45CAFF"/>
<path d="M734.315 1324.29L630.924 1280.48C627.07 1278.85 623.035 1282.39 624.156 1286.43L647.694 1371.11C648.706 1374.75 653.233 1376 655.965 1373.39L697.027 1334.16C698.001 1333.23 699.31 1332.74 700.656 1332.78L732.19 1333.89C737.733 1334.08 739.422 1326.45 734.315 1324.29Z" fill="#3FC99A"/>
<path d="M734.315 1324.29L630.924 1280.48C627.07 1278.85 623.035 1282.39 624.156 1286.43L647.694 1371.11C648.706 1374.75 653.233 1376 655.965 1373.39L697.027 1334.16C698.001 1333.23 699.31 1332.74 700.656 1332.78L732.19 1333.89C737.733 1334.08 739.422 1326.45 734.315 1324.29Z" stroke="#BFC7FC"/>
<path d="M739.513 1307.68L630.606 1256.87C626.64 1255.02 622.378 1258.8 623.741 1262.96L651.934 1349.03C653.1 1352.59 657.619 1353.65 660.247 1350.98L691.459 1319.32C692.381 1318.38 693.634 1317.85 694.948 1317.83L737.471 1317.21C742.781 1317.14 744.325 1309.93 739.513 1307.68Z" fill="white"/>
<path d="M739.513 1307.68L630.606 1256.87C626.64 1255.02 622.378 1258.8 623.741 1262.96L651.934 1349.03C653.1 1352.59 657.619 1353.65 660.247 1350.98L691.459 1319.32C692.381 1318.38 693.634 1317.85 694.948 1317.83L737.471 1317.21C742.781 1317.14 744.325 1309.93 739.513 1307.68Z" fill="#FFD521"/>
<path d="M739.513 1307.68L630.606 1256.87C626.64 1255.02 622.378 1258.8 623.741 1262.96L651.934 1349.03C653.1 1352.59 657.619 1353.65 660.247 1350.98L691.459 1319.32C692.381 1318.38 693.634 1317.85 694.948 1317.83L737.471 1317.21C742.781 1317.14 744.325 1309.93 739.513 1307.68Z" fill="#98E1FE"/>
<path d="M739.513 1307.68L630.606 1256.87C626.64 1255.02 622.378 1258.8 623.741 1262.96L651.934 1349.03C653.1 1352.59 657.619 1353.65 660.247 1350.98L691.459 1319.32C692.381 1318.38 693.634 1317.85 694.948 1317.83L737.471 1317.21C742.781 1317.14 744.325 1309.93 739.513 1307.68Z" fill="#9BFFDD"/>
<circle cx="495.86" cy="850.493" r="12.2291" fill="url(#paint2_linear_8_285)"/>
<circle cx="506.445" cy="802.202" r="10.6648" transform="rotate(31.2157 506.445 802.202)" fill="url(#paint3_linear_8_285)"/>
<g filter="url(#filter0_i_8_285)">
<circle cx="585.775" cy="873.524" r="100.475" transform="rotate(1.88019 585.775 873.524)" fill="#FFD521"/>
<circle cx="585.775" cy="873.524" r="100.475" transform="rotate(1.88019 585.775 873.524)" fill="#FDE040"/>
</g>
<g style="mix-blend-mode:multiply">
<circle cx="585.775" cy="873.524" r="100.475" transform="rotate(1.88019 585.775 873.524)" fill="url(#paint4_radial_8_285)" fill-opacity="0.6"/>
</g>
<g style="mix-blend-mode:multiply">
<circle cx="585.775" cy="873.524" r="100.475" transform="rotate(1.88019 585.775 873.524)" fill="url(#paint5_radial_8_285)" fill-opacity="0.5"/>
</g>
<g style="mix-blend-mode:multiply">
<path fill-rule="evenodd" clip-rule="evenodd" d="M557.124 961.268C612.584 963.089 659.02 919.605 660.841 864.144C662.01 828.512 644.48 796.605 617.086 777.862C658.716 791.244 688.209 830.945 686.703 876.821C684.882 932.282 638.446 975.766 582.986 973.946C563.157 973.295 544.86 966.941 529.616 956.511C538.313 959.306 547.539 960.953 557.124 961.268Z" fill="url(#paint6_linear_8_285)" fill-opacity="0.6"/>
</g>
<g filter="url(#filter1_d_8_285)">
<path fill-rule="evenodd" clip-rule="evenodd" d="M530.43 814.736C524.919 813.911 519.029 816.247 516.348 821.796C515.314 823.935 512.743 824.831 510.604 823.798C508.465 822.765 507.569 820.193 508.602 818.054C513.216 808.504 523.182 804.953 531.704 806.229C540.318 807.52 548.489 813.974 548.487 825.007C548.487 827.383 546.561 829.308 544.186 829.308C541.81 829.307 539.885 827.381 539.885 825.006C539.886 819.185 535.849 815.548 530.43 814.736Z" fill="url(#paint7_linear_8_285)" shape-rendering="crispEdges"/>
</g>
<g filter="url(#filter2_d_8_285)">
<path fill-rule="evenodd" clip-rule="evenodd" d="M609.086 824.451C600.388 821.91 590.86 824.323 586.451 832.13C585.283 834.198 582.659 834.928 580.591 833.759C578.523 832.591 577.793 829.968 578.961 827.899C585.919 815.58 600.235 812.903 611.499 816.194C622.842 819.508 633.053 829.518 630.474 844.142C630.062 846.482 627.831 848.044 625.492 847.631C623.153 847.219 621.59 844.988 622.003 842.649C623.578 833.713 617.706 826.969 609.086 824.451Z" fill="url(#paint8_linear_8_285)" shape-rendering="crispEdges"/>
</g>
<path d="M555.817 916.056C581.033 920.884 605.388 904.356 610.215 879.14C610.822 875.969 611.05 872.159 610.969 868.471C610.862 863.557 606.845 859.849 601.937 859.594C588.123 858.877 572.186 859.207 560.956 857.057C547.266 854.436 540.943 851.511 531.855 848.497C526.807 846.823 521.624 849.476 520.399 854.651C519.766 857.327 519.23 859.939 518.901 861.658C514.074 886.874 530.602 911.229 555.817 916.056Z" fill="#731007"/>
<path fill-rule="evenodd" clip-rule="evenodd" d="M597.756 903.362C587.222 914.083 571.693 919.503 555.824 916.465C540.026 913.441 527.638 902.752 521.776 888.989C527.419 882.061 536.33 878.018 545.884 878.998C551.205 879.543 556.015 881.574 559.944 884.637C564.123 882.863 568.796 882.089 573.632 882.585C585.556 883.808 594.946 892.39 597.756 903.362Z" fill="#F24817"/>
<path fill-rule="evenodd" clip-rule="evenodd" d="M602.479 897.725C592.263 912.097 574.274 919.997 555.824 916.465C540.026 913.441 527.638 902.752 521.776 888.989C527.419 882.061 536.33 878.018 545.884 878.998C552.224 879.648 557.838 882.406 562.101 886.506C567.267 883.106 573.593 881.398 580.224 882.078C590.214 883.102 598.425 889.292 602.479 897.725Z" fill="url(#paint9_linear_8_285)"/>
<circle cx="461.031" cy="863.071" r="27.5114" transform="rotate(1.89486 461.031 863.071)" fill="#FFCC3F"/>
<circle cx="461.031" cy="863.071" r="27.5114" transform="rotate(1.89486 461.031 863.071)" fill="url(#paint10_radial_8_285)"/>
<g filter="url(#filter3_di_8_285)">
<path d="M609.531 899.056C616.184 859.426 578.261 852.284 578.261 852.284C552.02 846.516 536.799 872.272 536.799 872.272C536.799 872.272 533.262 843.869 503.714 840.271C503.714 840.271 465.719 833.783 459.334 874.853C459.334 874.853 448.168 914.222 513.873 959.028C518.998 962.514 525.481 963.559 531.441 961.859C607.803 939.912 609.564 899.061 609.564 899.061L609.531 899.056Z" fill="url(#paint11_radial_8_285)"/>
<path d="M609.531 899.056C616.184 859.426 578.261 852.284 578.261 852.284C552.02 846.516 536.799 872.272 536.799 872.272C536.799 872.272 533.262 843.869 503.714 840.271C503.714 840.271 465.719 833.783 459.334 874.853C459.334 874.853 448.168 914.222 513.873 959.028C518.998 962.514 525.481 963.559 531.441 961.859C607.803 939.912 609.564 899.061 609.564 899.061L609.531 899.056Z" fill="#FF450F"/>
<path d="M609.531 899.056C616.184 859.426 578.261 852.284 578.261 852.284C552.02 846.516 536.799 872.272 536.799 872.272C536.799 872.272 533.262 843.869 503.714 840.271C503.714 840.271 465.719 833.783 459.334 874.853C459.334 874.853 448.168 914.222 513.873 959.028C518.998 962.514 525.481 963.559 531.441 961.859C607.803 939.912 609.564 899.061 609.564 899.061L609.531 899.056Z" fill="#F93A36" fill-opacity="0.5"/>
</g>
<path d="M487.613 841.475C513.294 849.67 525.056 854.337 526.013 883.474C526.206 889.361 528.711 886.872 529.072 886.038C531.88 879.559 533.855 875.594 538.333 869.825C537.598 865.517 530.411 843.948 503.536 840.682C503.536 840.682 496.167 839.361 487.645 841.48L487.613 841.475Z" fill="url(#paint12_radial_8_285)"/>
<path d="M531.823 961.699C529.171 962.469 526.409 962.689 523.703 962.352C555.03 944.389 574.951 921.262 580.346 902.844C588.694 874.361 570.401 856.017 559.072 853.06C568.012 850.411 574.742 851.362 578.638 852.156C578.638 852.156 616.555 859.33 609.908 898.929C609.908 898.929 608.147 939.78 531.79 961.694L531.823 961.699Z" fill="url(#paint13_radial_8_285)"/>
<g filter="url(#filter4_dii_8_285)">
<circle cx="628.83" cy="896.032" r="27.5114" transform="rotate(1.89486 628.83 896.032)" fill="#FFD031"/>
<circle cx="628.83" cy="896.032" r="27.5114" transform="rotate(1.89486 628.83 896.032)" fill="url(#paint14_radial_8_285)"/>
</g>
<circle cx="632.219" cy="850.493" r="12.2291" fill="url(#paint15_linear_8_285)"/>
<circle cx="531.71" cy="754.04" r="6.04033" fill="url(#paint16_linear_8_285)"/>
</g>
<defs>
<filter id="filter0_i_8_285" x="470.633" y="765.715" width="215.618" height="208.285" filterUnits="userSpaceOnUse" color-interpolation-filters="sRGB">
<feFlood flood-opacity="0" result="BackgroundImageFix"/>
<feBlend mode="normal" in="SourceGraphic" in2="BackgroundImageFix" result="shape"/>
<feColorMatrix in="SourceAlpha" type="matrix" values="0 0 0 0 0 0 0 0 0 0 0 0 0 0 0 0 0 0 127 0" result="hardAlpha"/>
<feOffset dx="-14.6665" dy="-7.33323"/>
<feGaussianBlur stdDeviation="7.33323"/>
<feComposite in2="hardAlpha" operator="arithmetic" k2="-1" k3="1"/>
<feColorMatrix type="matrix" values="0 0 0 0 0.994124 0 0 0 0 0.896635 0 0 0 0 0.570877 0 0 0 1 0"/>
<feBlend mode="normal" in2="shape" result="effect1_innerShadow_8_285"/>
</filter>
<filter id="filter1_d_8_285" x="508.173" y="805.979" width="40.3145" height="25.1624" filterUnits="userSpaceOnUse" color-interpolation-filters="sRGB">
<feFlood flood-opacity="0" result="BackgroundImageFix"/>
<feColorMatrix in="SourceAlpha" type="matrix" values="0 0 0 0 0 0 0 0 0 0 0 0 0 0 0 0 0 0 127 0" result="hardAlpha"/>
<feOffset dy="1.83331"/>
<feComposite in2="hardAlpha" operator="out"/>
<feColorMatrix type="matrix" values="0 0 0 0 0.123031 0 0 0 0 0.0670077 0 0 0 0 0 0 0 0 0.8 0"/>
<feBlend mode="normal" in2="BackgroundImageFix" result="effect1_dropShadow_8_285"/>
<feBlend mode="normal" in="SourceGraphic" in2="effect1_dropShadow_8_285" result="shape"/>
</filter>
<filter id="filter2_d_8_285" x="578.404" y="814.902" width="52.4727" height="34.629" filterUnits="userSpaceOnUse" color-interpolation-filters="sRGB">
<feFlood flood-opacity="0" result="BackgroundImageFix"/>
<feColorMatrix in="SourceAlpha" type="matrix" values="0 0 0 0 0 0 0 0 0 0 0 0 0 0 0 0 0 0 127 0" result="hardAlpha"/>
<feOffset dy="1.83331"/>
<feComposite in2="hardAlpha" operator="out"/>
<feColorMatrix type="matrix" values="0 0 0 0 0.123031 0 0 0 0 0.0670077 0 0 0 0 0 0 0 0 0.8 0"/>
<feBlend mode="normal" in2="BackgroundImageFix" result="effect1_dropShadow_8_285"/>
<feBlend mode="normal" in="SourceGraphic" in2="effect1_dropShadow_8_285" result="shape"/>
</filter>
<filter id="filter3_di_8_285" x="455.848" y="837.13" width="162.769" height="140.194" filterUnits="userSpaceOnUse" color-interpolation-filters="sRGB">
<feFlood flood-opacity="0" result="BackgroundImageFix"/>
<feColorMatrix in="SourceAlpha" type="matrix" values="0 0 0 0 0 0 0 0 0 0 0 0 0 0 0 0 0 0 127 0" result="hardAlpha"/>
<feOffset dx="2.76751" dy="2.76751"/>
<feGaussianBlur stdDeviation="2.76751"/>
<feColorMatrix type="matrix" values="0 0 0 0 0.784314 0 0 0 0 0.152941 0 0 0 0 0 0 0 0 0.5 0"/>
<feBlend mode="normal" in2="BackgroundImageFix" result="effect1_dropShadow_8_285"/>
<feBlend mode="normal" in="SourceGraphic" in2="effect1_dropShadow_8_285" result="shape"/>
<feColorMatrix in="SourceAlpha" type="matrix" values="0 0 0 0 0 0 0 0 0 0 0 0 0 0 0 0 0 0 127 0" result="hardAlpha"/>
<feOffset dy="14.6665"/>
<feGaussianBlur stdDeviation="7.33323"/>
<feComposite in2="hardAlpha" operator="arithmetic" k2="-1" k3="1"/>
<feColorMatrix type="matrix" values="0 0 0 0 1 0 0 0 0 0.841616 0 0 0 0 0.534163 0 0 0 0.5 0"/>
<feBlend mode="normal" in2="shape" result="effect2_innerShadow_8_285"/>
</filter>
<filter id="filter4_dii_8_285" x="586.652" y="861.187" width="84.3559" height="91.6896" filterUnits="userSpaceOnUse" color-interpolation-filters="sRGB">
<feFlood flood-opacity="0" result="BackgroundImageFix"/>
<feColorMatrix in="SourceAlpha" type="matrix" values="0 0 0 0 0 0 0 0 0 0 0 0 0 0 0 0 0 0 127 0" result="hardAlpha"/>
<feOffset dy="14.6665"/>
<feGaussianBlur stdDeviation="7.33323"/>
<feComposite in2="hardAlpha" operator="out"/>
<feColorMatrix type="matrix" values="0 0 0 0 0.927002 0 0 0 0 0.479081 0 0 0 0 0 0 0 0 1 0"/>
<feBlend mode="normal" in2="BackgroundImageFix" result="effect1_dropShadow_8_285"/>
<feBlend mode="normal" in="SourceGraphic" in2="effect1_dropShadow_8_285" result="shape"/>
<feColorMatrix in="SourceAlpha" type="matrix" values="0 0 0 0 0 0 0 0 0 0 0 0 0 0 0 0 0 0 127 0" result="hardAlpha"/>
<feOffset dy="-7.33323"/>
<feGaussianBlur stdDeviation="3.66661"/>
<feComposite in2="hardAlpha" operator="arithmetic" k2="-1" k3="1"/>
<feColorMatrix type="matrix" values="0 0 0 0 1 0 0 0 0 0.584233 0 0 0 0 0.0961589 0 0 0 1 0"/>
<feBlend mode="normal" in2="shape" result="effect2_innerShadow_8_285"/>
<feColorMatrix in="SourceAlpha" type="matrix" values="0 0 0 0 0 0 0 0 0 0 0 0 0 0 0 0 0 0 127 0" result="hardAlpha"/>
<feOffset dy="1.83331"/>
<feGaussianBlur stdDeviation="2.95447"/>
<feComposite in2="hardAlpha" operator="arithmetic" k2="-1" k3="1"/>
<feColorMatrix type="matrix" values="0 0 0 0 1 0 0 0 0 1 0 0 0 0 1 0 0 0 1 0"/>
<feBlend mode="normal" in2="effect2_innerShadow_8_285" result="effect3_innerShadow_8_285"/>
</filter>
<linearGradient id="paint0_linear_8_285" x1="374.728" y1="-0.03125" x2="374.728" y2="1584.85" gradientUnits="userSpaceOnUse">
<stop stop-color="#D8E0FF"/>
<stop offset="1" stop-color="#EAEFFE" stop-opacity="0"/>
</linearGradient>
<linearGradient id="paint1_linear_8_285" x1="-151.004" y1="1424.32" x2="-343.369" y2="1190.67" gradientUnits="userSpaceOnUse">
<stop stop-color="#A4B4FD"/>
<stop offset="1" stop-color="#AFBDFF" stop-opacity="0"/>
</linearGradient>
<linearGradient id="paint2_linear_8_285" x1="483.631" y1="850.493" x2="508.09" y2="850.493" gradientUnits="userSpaceOnUse">
<stop stop-color="#FF4C4C"/>
<stop offset="1" stop-color="#F42C26"/>
</linearGradient>
<linearGradient id="paint3_linear_8_285" x1="502.676" y1="802.747" x2="515.059" y2="802.917" gradientUnits="userSpaceOnUse">
<stop stop-color="#FC504A"/>
<stop offset="1" stop-color="#F5302B"/>
<stop offset="1" stop-color="#EC241E"/>
</linearGradient>
<radialGradient id="paint4_radial_8_285" cx="0" cy="0" r="1" gradientUnits="userSpaceOnUse" gradientTransform="translate(644.903 946.858) rotate(-134.999) scale(83.621 236.506)">
<stop stop-color="#FFBC2A"/>
<stop offset="1" stop-color="#FFCC5D" stop-opacity="0.33"/>
</radialGradient>
<radialGradient id="paint5_radial_8_285" cx="0" cy="0" r="1" gradientUnits="userSpaceOnUse" gradientTransform="translate(644.903 946.858) rotate(-134.999) scale(83.621 236.506)">
<stop stop-color="#FF9D2A"/>
<stop offset="1" stop-color="#FFCC5D" stop-opacity="0.33"/>
</radialGradient>
<linearGradient id="paint6_linear_8_285" x1="674.607" y1="936.29" x2="633.498" y2="914.179" gradientUnits="userSpaceOnUse">
<stop stop-color="#FF9D2A"/>
<stop offset="1" stop-color="#FFCC5D" stop-opacity="0"/>
</linearGradient>
<linearGradient id="paint7_linear_8_285" x1="550.382" y1="827.714" x2="510.382" y2="807.169" gradientUnits="userSpaceOnUse">
<stop stop-color="#731007"/>
<stop offset="1" stop-color="#731007" stop-opacity="0.77"/>
</linearGradient>
<linearGradient id="paint8_linear_8_285" x1="632.344" y1="846.335" x2="581.297" y2="820.804" gradientUnits="userSpaceOnUse">
<stop stop-color="#731007"/>
<stop offset="1" stop-color="#731007" stop-opacity="0.8"/>
</linearGradient>
<linearGradient id="paint9_linear_8_285" x1="581.238" y1="912.674" x2="550.622" y2="879.633" gradientUnits="userSpaceOnUse">
<stop stop-color="#DA3100"/>
<stop offset="1" stop-color="#F24817" stop-opacity="0"/>
</linearGradient>
<radialGradient id="paint10_radial_8_285" cx="0" cy="0" r="1" gradientUnits="userSpaceOnUse" gradientTransform="translate(450.4 835.559) rotate(44.1446) scale(62.8873)">
<stop stop-color="#FFE600" stop-opacity="0"/>
<stop offset="1" stop-color="#FFA20D"/>
</radialGradient>
<radialGradient id="paint11_radial_8_285" cx="0" cy="0" r="1" gradientUnits="userSpaceOnUse" gradientTransform="translate(-6075.13 -3426.04) rotate(33.314) scale(128.016 186.797)">
<stop stop-color="#FE140E"/>
<stop offset="0.15" stop-color="#FF3E35"/>
<stop offset="0.37" stop-color="#FE372B"/>
<stop offset="0.57" stop-color="#FB100E"/>
</radialGradient>
<radialGradient id="paint12_radial_8_285" cx="0" cy="0" r="1" gradientUnits="userSpaceOnUse" gradientTransform="translate(478.876 846.848) rotate(30.6507) scale(67.1029 67.1029)">
<stop offset="0.47948" stop-color="#FF1F11" stop-opacity="0"/>
<stop offset="0.83" stop-color="#EC2C11"/>
</radialGradient>
<radialGradient id="paint13_radial_8_285" cx="0" cy="0" r="1" gradientUnits="userSpaceOnUse" gradientTransform="translate(515.551 867.662) rotate(10.7332) scale(121.935 121.935)">
<stop offset="0.61" stop-color="#FF4009" stop-opacity="0"/>
<stop offset="0.81" stop-color="#E12114"/>
</radialGradient>
<radialGradient id="paint14_radial_8_285" cx="0" cy="0" r="1" gradientUnits="userSpaceOnUse" gradientTransform="translate(618.134 880.047) rotate(47.9108) scale(50.3359)">
<stop offset="0.0824919" stop-color="#FDCF31" stop-opacity="0"/>
<stop offset="0.728462" stop-color="#FFA928"/>
<stop offset="1" stop-color="#FFA61F"/>
</radialGradient>
<linearGradient id="paint15_linear_8_285" x1="619.99" y1="850.493" x2="644.448" y2="850.493" gradientUnits="userSpaceOnUse">
<stop stop-color="#FF4C4C"/>
<stop offset="1" stop-color="#F42C26"/>
</linearGradient>
<linearGradient id="paint16_linear_8_285" x1="529.39" y1="751.933" x2="535.461" y2="757.677" gradientUnits="userSpaceOnUse">
<stop stop-color="#F3514B"/>
<stop offset="1" stop-color="#F03C36"/>
</linearGradient>
<clipPath id="clip0_8_285">
<rect width="750" height="1624" fill="white"/>
</clipPath>
</defs>
</svg>
