<svg width="750" height="1631" viewBox="0 0 750 1631" fill="none" xmlns="http://www.w3.org/2000/svg">
<g clip-path="url(#clip0_8_1422)">
<rect width="750" height="1631" fill="white"/>
<rect y="-169" width="750" height="1800" fill="url(#paint0_linear_8_1422)"/>
<rect x="-54.1953" y="784.609" width="695.736" height="687.312" transform="rotate(15.624 -54.1953 784.609)" fill="#6799FF"/>
<path opacity="0.8" d="M425.63 1042.99L-141.051 1401.2L163.603 1654.78L964.065 1666.26C965.386 1426.68 1103.6 757.86 1100.43 701.558C1063.97 699.83 1052.44 666.91 1027.76 661.477C982.417 651.497 774.071 600.568 676.977 579.82C752.844 698.027 694.073 790.076 658.563 853.67C633.909 897.824 532.271 984.903 425.63 1042.99Z" fill="#4F86FF"/>
<path d="M383.318 1052.85L-183.363 1411.07L121.291 1664.64L921.752 1676.13C923.073 1436.55 1061.29 767.727 1058.12 711.425C1021.66 709.698 1009.58 684.222 985.102 677.914C919.969 661.127 731.956 611.438 634.665 589.688C710.531 707.894 651.761 799.943 616.251 863.538C591.596 907.691 489.959 994.77 383.318 1052.85Z" fill="#69A4FC"/>
<path d="M347.974 1061.48L-218.707 1419.69L85.9469 1673.27L886.408 1684.75C887.729 1445.18 1025.95 776.353 1022.78 720.051C909.897 675.9 719.085 634.727 593.575 607.734C669.442 725.941 616.417 808.57 580.907 872.164C556.252 916.318 454.615 1003.4 347.974 1061.48Z" fill="#8AC7FF"/>
<path d="M305.877 1084.48L-260.805 1442.69L43.8492 1696.27L844.311 1707.75C845.632 1468.18 986.3 787.104 983.129 730.802C866.979 698.954 676.987 657.727 551.477 630.734C627.344 748.941 574.319 831.57 538.809 895.164C514.155 939.318 412.518 1026.4 305.877 1084.48Z" fill="#ACD7FF"/>
<path d="M270.938 1054.29L-303.246 1462.52L27.0634 1734.07L827.525 1745.56C828.846 1505.98 967.065 837.159 963.894 780.857C927.429 779.13 898.818 709.053 876.621 721.143C854.425 733.232 615.859 676.816 500.075 652.648C560.964 733.125 545.026 824.952 455.525 910.617C425.206 939.636 370.28 981.248 270.938 1054.29Z" fill="#D8EEFF"/>
<g style="mix-blend-mode:multiply">
<path d="M577.137 1493.95L975.511 1407.57L923.936 1302.7L539.203 1328.75L577.137 1493.95Z" fill="#97BDF1"/>
</g>
<rect x="381.316" y="1072.78" width="273.806" height="50.4559" fill="#D9D9D9"/>
<rect x="381.316" y="1072.78" width="273.806" height="50.4559" fill="#989898"/>
<rect x="381.316" y="1072.78" width="273.806" height="50.4559" fill="black" fill-opacity="0.3"/>
<path d="M427.411 1027.25L754.371 1121.77L680.95 1228.77L381.801 1124.71L427.411 1027.25Z" fill="#104ABA"/>
<path d="M226.074 1181.38L427.092 1023.46L544.833 1292.14L226.074 1428.19V1181.38Z" fill="#93B5E7"/>
<path d="M440.918 901.374C440.918 895.141 446.558 890.427 452.692 891.533L700.09 936.129C704.852 936.987 708.316 941.132 708.316 945.97V1323.9C708.316 1330.13 702.676 1334.85 696.542 1333.74L449.144 1289.15C444.382 1288.29 440.918 1284.14 440.918 1279.31V901.374Z" fill="#8CBAFF"/>
<path d="M434.918 905.374C434.918 899.141 440.558 894.427 446.692 895.533L694.09 940.129C698.852 940.987 702.316 945.132 702.316 949.97V1327.9C702.316 1334.13 696.676 1338.85 690.542 1337.74L443.144 1293.15C438.382 1292.29 434.918 1288.14 434.918 1283.31V905.374Z" fill="#CCE3FF"/>
<path d="M434.918 905.374C434.918 899.141 440.558 894.427 446.692 895.533L694.09 940.129C698.852 940.987 702.316 945.132 702.316 949.97V1327.9C702.316 1334.13 696.676 1338.85 690.542 1337.74L443.144 1293.15C438.382 1292.29 434.918 1288.14 434.918 1283.31V905.374Z" fill="#99C2FF"/>
<path d="M434.918 905.374C434.918 899.141 440.558 894.427 446.692 895.533L694.09 940.129C698.852 940.987 702.316 945.132 702.316 949.97V1327.9C702.316 1334.13 696.676 1338.85 690.542 1337.74L443.144 1293.15C438.382 1292.29 434.918 1288.14 434.918 1283.31V905.374Z" fill="#346DFF"/>
<path d="M702.285 950.532L708.298 947L708.363 1240.53H702.376L702.285 950.532Z" fill="#8BBFFF"/>
<path d="M702.285 950.532L708.298 947L708.363 1240.53H702.376L702.285 950.532Z" fill="#1953EB"/>
<path d="M702.008 936.648L695.633 940.518C698.033 941.448 702.292 943.961 702.292 950.529C703.712 949.653 706.368 948.239 708.316 947.017C708.533 941.54 705.547 938.105 702.008 936.648Z" fill="#5E9FFF"/>
<path d="M410.918 869.374C410.918 863.141 416.558 858.427 422.692 859.533L670.09 904.129C674.852 904.987 678.316 909.132 678.316 913.97V1291.9C678.316 1298.13 672.676 1302.85 666.542 1301.74L419.144 1257.15C414.382 1256.29 410.918 1252.14 410.918 1247.31V869.374Z" fill="#CCE3FF"/>
<path d="M410.918 869.374C410.918 863.141 416.558 858.427 422.692 859.533L670.09 904.129C674.852 904.987 678.316 909.132 678.316 913.97V1291.9C678.316 1298.13 672.676 1302.85 666.542 1301.74L419.144 1257.15C414.382 1256.29 410.918 1252.14 410.918 1247.31V869.374Z" fill="#A2C7FF"/>
<path d="M404.918 873.374C404.918 867.141 410.558 862.427 416.692 863.533L664.09 908.129C668.852 908.987 672.316 913.132 672.316 917.97V1295.9C672.316 1302.13 666.676 1306.85 660.542 1305.74L413.144 1261.15C408.382 1260.29 404.918 1256.14 404.918 1251.31V873.374Z" fill="#CCE3FF"/>
<path d="M404.918 873.374C404.918 867.141 410.558 862.427 416.692 863.533L664.09 908.129C668.852 908.987 672.316 913.132 672.316 917.97V1295.9C672.316 1302.13 666.676 1306.85 660.542 1305.74L413.144 1261.15C408.382 1260.29 404.918 1256.14 404.918 1251.31V873.374Z" fill="#5F95FF"/>
<path d="M672.348 918.503L678.352 914.918V1208.53H672.348V918.503Z" fill="#8BBFFF"/>
<path d="M672.348 918.503L678.352 914.918V1208.53H672.348V918.503Z" fill="#2E67EB"/>
<path d="M671.925 904.605L665.723 908.539C668.124 909.405 672.173 912.033 672.337 918.668C673.758 917.792 676.399 916.162 678.346 914.94C678.346 909.394 675.778 906.488 671.925 904.605Z" fill="#7EB1FE"/>
<path d="M378.613 837.964C378.613 831.731 384.253 827.017 390.387 828.122L637.785 872.719C642.547 873.577 646.011 877.722 646.011 882.56V1260.49C646.011 1266.72 640.371 1271.44 634.237 1270.33L386.839 1225.74C382.077 1224.88 378.613 1220.73 378.613 1215.89V837.964Z" fill="#9EC9FF"/>
<path d="M639.62 873.195L633.418 877.129C635.819 877.995 639.868 880.622 640.033 887.258C641.453 886.382 644.094 884.752 646.042 883.53C646.191 877.671 643.473 875.078 639.62 873.195Z" fill="#94BFFF"/>
<path d="M372.613 841.964C372.613 835.731 378.253 831.017 384.387 832.122L631.785 876.719C636.547 877.577 640.011 881.722 640.011 886.56V1264.49C640.011 1270.72 634.371 1275.44 628.237 1274.33L380.839 1229.74C376.077 1228.88 372.613 1224.73 372.613 1219.89V841.964Z" fill="#CCE3FF"/>
<path d="M372.613 841.964C372.613 835.731 378.253 831.017 384.387 832.122L631.785 876.719C636.547 877.577 640.011 881.722 640.011 886.56V1264.49C640.011 1270.72 634.371 1275.44 628.237 1274.33L380.839 1229.74C376.077 1228.88 372.613 1224.73 372.613 1219.89V841.964Z" fill="#53ACFF"/>
<path d="M639.852 886.66L646.045 882.316V1217.28H639.852L639.852 886.66Z" fill="#8BBFFF"/>
<path d="M639.852 886.66L646.045 882.316V1217.28H639.852L639.852 886.66Z" fill="#427CFF"/>
<path d="M347.309 900.964C347.309 894.731 352.949 890.017 359.083 891.122L606.481 935.719C611.242 936.577 614.707 940.722 614.707 945.56V1323.49C614.707 1329.72 609.067 1334.44 602.933 1333.33L355.535 1288.74C350.773 1287.88 347.309 1283.73 347.309 1278.89V900.964Z" fill="#C1E5FF"/>
<path d="M341.309 904.964C341.309 898.731 346.949 894.017 353.083 895.122L600.481 939.719C605.242 940.577 608.707 944.722 608.707 949.56V1327.49C608.707 1333.72 603.067 1338.44 596.933 1337.33L349.535 1292.74C344.773 1291.88 341.309 1287.73 341.309 1282.89V904.964Z" fill="#CCE3FF"/>
<path d="M341.309 904.964C341.309 898.731 346.949 894.017 353.083 895.122L600.481 939.719C605.242 940.577 608.707 944.722 608.707 949.56V1327.49C608.707 1333.72 603.067 1338.44 596.933 1337.33L349.535 1292.74C344.773 1291.88 341.309 1287.73 341.309 1282.89V904.964Z" fill="#C5EAFF"/>
<path d="M341.309 904.964C341.309 898.731 346.949 894.017 353.083 895.122L600.481 939.719C605.242 940.577 608.707 944.722 608.707 949.56V1327.49C608.707 1333.72 603.067 1338.44 596.933 1337.33L349.535 1292.74C344.773 1291.88 341.309 1287.73 341.309 1282.89V904.964Z" fill="#81CAFF"/>
<path d="M341.309 904.964C341.309 898.731 346.949 894.017 353.083 895.122L600.481 939.719C605.242 940.577 608.707 944.722 608.707 949.56V1327.49C608.707 1333.72 603.067 1338.44 596.933 1337.33L349.535 1292.74C344.773 1291.88 341.309 1287.73 341.309 1282.89V904.964Z" fill="#43E1E8" fill-opacity="0.5"/>
<path d="M608.711 950.252L614.775 946.48V1240.12H608.711L608.711 950.252Z" fill="#8BBFFF"/>
<path d="M608.711 950.252L614.775 946.48V1240.12H608.711L608.711 950.252Z" fill="#3C82EB"/>
<path d="M608.311 936.195L602.109 940.129C604.511 940.995 608.56 943.622 608.724 950.258C610.145 949.382 612.785 947.752 614.733 946.53C614.883 940.671 612.165 938.078 608.311 936.195Z" fill="#95D1FF"/>
<path d="M316.055 930.905C316.055 924.672 321.695 919.958 327.829 921.064L575.227 965.66C579.988 966.519 583.453 970.663 583.453 975.502V1353.43C583.453 1359.67 577.813 1364.38 571.679 1363.27L324.281 1318.68C319.519 1317.82 316.055 1313.67 316.055 1308.84V930.905Z" fill="#CCE3FF"/>
<path d="M316.055 930.905C316.055 924.672 321.695 919.958 327.829 921.064L575.227 965.66C579.988 966.519 583.453 970.663 583.453 975.502V1353.43C583.453 1359.67 577.813 1364.38 571.679 1363.27L324.281 1318.68C319.519 1317.82 316.055 1313.67 316.055 1308.84V930.905Z" fill="white"/>
<path d="M316.055 930.905C316.055 924.672 321.695 919.958 327.829 921.064L575.227 965.66C579.988 966.519 583.453 970.663 583.453 975.502V1353.43C583.453 1359.67 577.813 1364.38 571.679 1363.27L324.281 1318.68C319.519 1317.82 316.055 1313.67 316.055 1308.84V930.905Z" fill="#DBF2FF"/>
<path d="M310.863 934.905C310.863 928.672 316.503 923.958 322.637 925.064L570.035 969.66C574.797 970.519 578.261 974.663 578.261 979.502V1357.43C578.261 1363.67 572.621 1368.38 566.487 1367.27L319.089 1322.68C314.327 1321.82 310.863 1317.67 310.863 1312.84V934.905Z" fill="#CCE3FF"/>
<path d="M310.863 934.905C310.863 928.672 316.503 923.958 322.637 925.064L570.035 969.66C574.797 970.519 578.261 974.663 578.261 979.502V1357.43C578.261 1363.67 572.621 1368.38 566.487 1367.27L319.089 1322.68C314.327 1321.82 310.863 1317.67 310.863 1312.84V934.905Z" fill="#BAE6FF"/>
<path d="M310.863 934.905C310.863 928.672 316.503 923.958 322.637 925.064L570.035 969.66C574.797 970.519 578.261 974.663 578.261 979.502V1357.43C578.261 1363.67 572.621 1368.38 566.487 1367.27L319.089 1322.68C314.327 1321.82 310.863 1317.67 310.863 1312.84V934.905Z" fill="#A6E0FF"/>
<path d="M310.863 934.905C310.863 928.672 316.503 923.958 322.637 925.064L570.035 969.66C574.797 970.519 578.261 974.663 578.261 979.502V1357.43C578.261 1363.67 572.621 1368.38 566.487 1367.27L319.089 1322.68C314.327 1321.82 310.863 1317.67 310.863 1312.84V934.905Z" fill="#3EE796" fill-opacity="0.5"/>
<path d="M578.234 978.828L583.454 975.445V1270.06H578.258L578.234 978.828Z" fill="#8BBFFF"/>
<path d="M578.234 978.828L583.454 975.445V1270.06H578.258L578.234 978.828Z" fill="#489CFF" fill-opacity="0.8"/>
<path d="M578.011 966.512L571.715 970.073C574.761 971.004 577.983 974.581 578.23 978.75C579.349 978.037 581.965 976.463 583.454 975.378C583.299 969.908 579.849 967.576 578.011 966.512Z" fill="#AFDCFF"/>
<path d="M577.332 1247.59L867.773 1046V1292.81L577.332 1494.4V1247.59Z" fill="#D9D9D9"/>
<path d="M577.332 1247.59L867.773 1046V1292.81L577.332 1494.4V1247.59Z" fill="black" fill-opacity="0.2"/>
<path d="M577.332 1247.59L867.773 1046V1292.81L577.332 1494.4V1247.59Z" fill="#D1D7FF"/>
<path d="M577.332 1247.59L867.773 1046V1292.81L577.332 1494.4V1247.59Z" fill="#BFC7FC"/>
<path d="M577.332 1247.59L867.773 1046V1292.81L577.332 1494.4V1247.59Z" fill="#98C6FF" fill-opacity="0.3"/>
<path d="M299.215 1268.65C299.215 1254.34 312.047 1243.95 326.158 1246.84L452.984 1272.81C464.167 1275.1 472.369 1285.1 472.369 1296.44V1296.44C472.369 1310.76 459.536 1321.14 445.426 1318.26L318.599 1292.28C307.417 1289.99 299.215 1279.99 299.215 1268.65V1268.65Z" fill="white"/>
<path d="M299.215 1268.65C299.215 1254.34 312.047 1243.95 326.158 1246.84L452.984 1272.81C464.167 1275.1 472.369 1285.1 472.369 1296.44V1296.44C472.369 1310.76 459.536 1321.14 445.426 1318.26L318.599 1292.28C307.417 1289.99 299.215 1279.99 299.215 1268.65V1268.65Z" fill="#3845B5"/>
<path d="M299.215 1268.65C299.215 1254.34 312.047 1243.95 326.158 1246.84L452.984 1272.81C464.167 1275.1 472.369 1285.1 472.369 1296.44V1296.44C472.369 1310.76 459.536 1321.14 445.426 1318.26L318.599 1292.28C307.417 1289.99 299.215 1279.99 299.215 1268.65V1268.65Z" fill="#1D51D7"/>
<path d="M299.215 1268.65C299.215 1254.34 312.047 1243.95 326.158 1246.84L452.984 1272.81C464.167 1275.1 472.369 1285.1 472.369 1296.44V1296.44C472.369 1310.76 459.536 1321.14 445.426 1318.26L318.599 1292.28C307.417 1289.99 299.215 1279.99 299.215 1268.65V1268.65Z" fill="black" fill-opacity="0.2"/>
<path fill-rule="evenodd" clip-rule="evenodd" d="M313.341 1247.94C310.109 1251.77 308.148 1256.77 308.148 1262.36C308.148 1273.71 316.35 1283.71 327.533 1286L464.175 1313.98C459.225 1317.88 452.584 1319.68 445.633 1318.26L318.806 1292.29C307.624 1290 299.422 1280 299.422 1268.65C299.422 1259.02 305.236 1251.16 313.341 1247.94Z" fill="white"/>
<path fill-rule="evenodd" clip-rule="evenodd" d="M313.341 1247.94C310.109 1251.77 308.148 1256.77 308.148 1262.36C308.148 1273.71 316.35 1283.71 327.533 1286L464.175 1313.98C459.225 1317.88 452.584 1319.68 445.633 1318.26L318.806 1292.29C307.624 1290 299.422 1280 299.422 1268.65C299.422 1259.02 305.236 1251.16 313.341 1247.94Z" fill="#7E9AFF"/>
<path fill-rule="evenodd" clip-rule="evenodd" d="M313.951 1247.7C310.564 1251.42 308.484 1256.4 308.484 1262.02C308.484 1272.79 316.275 1282.29 326.896 1284.46L447.361 1309.13C459.05 1311.53 469.815 1304.33 472.377 1293.43C472.506 1294.42 472.572 1295.43 472.572 1296.45C472.572 1310.76 459.739 1321.15 445.629 1318.26L318.802 1292.29C307.62 1290 299.418 1280 299.418 1268.65C299.418 1258.78 305.527 1250.77 313.951 1247.7Z" fill="white"/>
<path fill-rule="evenodd" clip-rule="evenodd" d="M313.951 1247.7C310.564 1251.42 308.484 1256.4 308.484 1262.02C308.484 1272.79 316.275 1282.29 326.896 1284.46L447.361 1309.13C459.05 1311.53 469.815 1304.33 472.377 1293.43C472.506 1294.42 472.572 1295.43 472.572 1296.45C472.572 1310.76 459.739 1321.15 445.629 1318.26L318.802 1292.29C307.62 1290 299.418 1280 299.418 1268.65C299.418 1258.78 305.527 1250.77 313.951 1247.7Z" fill="url(#paint1_linear_8_1422)"/>
<path d="M282.688 971.374C282.688 965.141 288.327 960.427 294.462 961.533L541.859 1006.13C546.621 1006.99 550.085 1011.13 550.085 1015.97V1393.9C550.085 1400.13 544.445 1404.85 538.311 1403.74L290.913 1359.15C286.152 1358.29 282.688 1354.14 282.688 1349.31V971.374Z" fill="#F2FAFF"/>
<path d="M276.613 971.885C276.613 966.901 281.121 963.13 286.027 964.011L538.476 1009.34C542.288 1010.02 545.062 1013.34 545.062 1017.21V1399.21C545.062 1404.2 540.554 1407.97 535.648 1407.09L283.199 1361.76C279.388 1361.07 276.613 1357.76 276.613 1353.88V971.885Z" fill="#C1F1D1"/>
<path d="M545.07 1016.82L550.084 1015.12L550.084 1271.97H545.07V1016.82Z" fill="url(#paint2_linear_8_1422)"/>
<path d="M545.07 1016.82L550.084 1015.12L550.084 1271.97H545.07V1016.82Z" fill="#59B9FF"/>
<g style="mix-blend-mode:multiply" opacity="0.5">
<path d="M312.82 1020.07L503.111 1054.17" stroke="#83B0E7" stroke-width="3" stroke-linecap="round"/>
<path d="M312.82 1046.3L503.111 1080.4" stroke="#83B0E7" stroke-width="3" stroke-linecap="round"/>
<path d="M312.82 1070.3L503.111 1104.4" stroke="#83B0E7" stroke-width="3" stroke-linecap="round"/>
<path d="M312.82 1094.31L503.111 1128.4" stroke="#83B0E7" stroke-width="3" stroke-linecap="round"/>
<path d="M312.82 1118.31L503.111 1152.41" stroke="#83B0E7" stroke-width="3" stroke-linecap="round"/>
<path d="M312.82 1142.32L503.111 1176.41" stroke="#83B0E7" stroke-width="3" stroke-linecap="round"/>
<path d="M312.82 1166.32L503.111 1200.42" stroke="#83B0E7" stroke-width="3" stroke-linecap="round"/>
<path d="M312.82 1190.32L503.111 1224.42" stroke="#83B0E7" stroke-width="3" stroke-linecap="round"/>
</g>
<path d="M543.782 1006.72L538.422 1009.32C543.217 1010.45 545.069 1013.77 545.069 1018.08C546.29 1017.37 549.063 1016 550.125 1015.26C549.922 1010.4 545.711 1007.25 543.782 1006.72Z" fill="#B2DDFF"/>
<path d="M226.074 1181.39L577.337 1248.34V1495.15L226.074 1428.2V1181.39Z" fill="#D9D9D9"/>
<path d="M226.074 1181.39L577.337 1248.34V1495.15L226.074 1428.2V1181.39Z" fill="black" fill-opacity="0.2"/>
<path d="M226.074 1181.39L577.337 1248.34V1495.15L226.074 1428.2V1181.39Z" fill="#FBFBFB"/>
<path fill-rule="evenodd" clip-rule="evenodd" d="M139.634 1393.64C137.353 1392.99 134.903 1393.55 133.123 1395.11L79.2388 1442.4L55.5832 1445.75L56.9495 1463.25C55.7779 1466.88 57.7419 1471.15 61.9055 1472.21L184.178 1503.08C186.309 1503.61 188.568 1503.12 190.281 1501.74L266.136 1440.68C268.392 1438.87 269.124 1436.14 268.577 1433.7L266.896 1415.84L234.792 1420.38L139.634 1393.64Z" fill="#BCDDFF"/>
<path fill-rule="evenodd" clip-rule="evenodd" d="M186.464 1503.27L178.819 1405.3L231.239 1420.87L266.904 1415.82L268.84 1436.8L268.838 1436.8C268.986 1438.98 268.139 1441.23 266.149 1442.78L190.263 1501.81C189.156 1502.67 187.831 1503.17 186.464 1503.27Z" fill="#9EC0F3"/>
<path d="M135.202 1381.32C137.125 1379.85 139.609 1379.34 141.959 1379.91L260.91 1409.01C267.44 1410.61 269.207 1419.06 263.865 1423.14L187.261 1481.65C185.338 1483.12 182.854 1483.63 180.504 1483.06L61.5529 1453.96C55.023 1452.36 53.2557 1443.91 58.5981 1439.83L135.202 1381.32Z" fill="#FBFBFB"/>
<g clip-path="url(#clip1_8_1422)">
<path d="M159.034 1396.1C155.304 1395.06 149.884 1396.28 146.927 1398.82L101.422 1438.03C98.4653 1440.58 99.0916 1443.49 102.821 1444.54L156.844 1459.64L207.703 1415.82C210.66 1413.27 210.033 1410.36 206.303 1409.31L159.034 1396.1Z" fill="#2667FF"/>
<path d="M149.725 1411.83C151.203 1410.55 153.914 1409.94 155.778 1410.46L175.361 1415.94C177.226 1416.46 177.539 1417.91 176.061 1419.19C174.583 1420.46 171.873 1421.07 170.008 1420.55L150.425 1415.08C148.56 1414.56 148.247 1413.1 149.725 1411.83Z" fill="white"/>
<path d="M145.071 1419.69C143.206 1419.17 140.496 1419.78 139.018 1421.05C137.54 1422.33 137.853 1423.78 139.718 1424.3L145.795 1426C147.66 1426.52 150.37 1425.91 151.848 1424.64C153.327 1423.37 153.014 1421.91 151.149 1421.39L145.071 1419.69Z" fill="white"/>
<path d="M156.01 1459.85L159.14 1460.73C164.981 1462.36 173.501 1460.42 178.17 1456.4C182.57 1452.61 181.88 1448.29 176.991 1446.47C182.361 1441.05 181.32 1435.36 173.472 1433.16C167.024 1431.36 158.061 1432.5 151.247 1435.73C144.319 1434.09 134.646 1436.37 129.296 1440.98C123.778 1445.74 124.948 1451.17 131.907 1453.12C131.989 1453.14 132.07 1453.16 132.152 1453.18L132.149 1453.19L156.007 1459.86L156.01 1459.85Z" fill="#9AB8FC"/>
</g>
<ellipse cx="256.25" cy="1084.32" rx="47.8637" ry="55.6555" transform="rotate(-14.7892 256.25 1084.32)" fill="#53ACFF"/>
<ellipse cx="247.245" cy="1087.28" rx="47.3072" ry="56.2121" transform="rotate(-14.7892 247.245 1087.28)" fill="white"/>
<path d="M269.47 1076.93C270.143 1075.24 270.277 1073.4 269.824 1071.69C269.107 1068.97 266.893 1066.91 264.043 1066.31C263.31 1066.15 262.33 1066.27 261.797 1066.45L246.308 1071.64L244.711 1064.08C244.322 1062.25 243.351 1060.24 242.22 1059.61C241.439 1059.17 240.807 1058.9 239.896 1058.83C238.985 1058.75 238.055 1058.87 237.164 1059.17C233.984 1060.24 231.731 1063.3 231.688 1066.62L231.405 1087.21L231.387 1087.22L238.228 1113.13L267.11 1103.44C267.673 1103.25 268.194 1102.96 268.644 1102.57C271.231 1100.36 272.365 1096.92 271.54 1093.8C271.339 1093.03 271.031 1092.32 270.619 1091.67C271.291 1089.98 271.425 1088.14 270.973 1086.43C270.772 1085.66 270.463 1084.95 270.051 1084.3C270.724 1082.61 270.858 1080.77 270.406 1079.06C270.192 1078.3 269.882 1077.58 269.47 1076.93ZM222.053 1092.45L227.871 1114.49C228.154 1115.56 229.257 1116.13 230.339 1115.77L234.314 1114.44L227.473 1088.53L223.498 1089.86C222.416 1090.22 221.77 1091.38 222.053 1092.45Z" fill="#53ACFF"/>
<path opacity="0.5" d="M152.472 1263.9C138.137 1240.11 36.8405 1174.51 -62.1413 1179.22C-95.1755 1186.24 -154.57 1190.01 -114.022 1243.36C-73.0051 1236.41 41.1233 1289.06 75.8146 1333.42C107.672 1341.7 145.377 1309.67 152.472 1263.9Z" fill="url(#paint3_linear_8_1422)"/>
<circle cx="111.729" cy="1296.22" r="52.2886" transform="rotate(142.997 111.729 1296.22)" fill="url(#paint4_linear_8_1422)"/>
<circle cx="111.729" cy="1296.22" r="52.2886" transform="rotate(142.997 111.729 1296.22)" fill="white" fill-opacity="0.1"/>
<g style="mix-blend-mode:multiply" opacity="0.6">
<path d="M136.054 911.369L-1.41152 875.129L-9.44141 1014.28L136.952 916.767C139.105 915.333 138.555 912.028 136.054 911.369Z" fill="#86B6FE"/>
</g>
<path d="M120.681 917.226L120.702 917.231V896.996L103.626 910.623L-0.807013 978.869L-14.0625 1007.88L-0.807013 999.122L119.334 919.76C120.267 919.144 120.695 918.178 120.681 917.226Z" fill="#448EFF"/>
<path d="M120.681 917.226L120.702 917.231V896.996L103.626 910.623L-0.807013 978.869L-14.0625 1007.88L-0.807013 999.122L119.334 919.76C120.267 919.144 120.695 918.178 120.681 917.226Z" fill="url(#paint5_linear_8_1422)" fill-opacity="0.3"/>
<path d="M118.752 895.69L-7.78519 861.964L-14.7533 987.754L119.606 901.11C121.794 899.698 121.269 896.36 118.752 895.69Z" fill="#97C1FF"/>
<g style="mix-blend-mode:multiply" opacity="0.7">
<path d="M125.76 999.853L-5.6721 1092.48L-19.3212 1071.68L110.545 983.791L139.533 977.489C141.387 977.086 142.707 979.249 141.502 980.714L125.76 999.853Z" fill="#ACCAFF"/>
</g>
<path d="M81.2039 983.66L-9.79419 1044.33L-16.1797 1091.16L97.7012 1011.33L127.787 973.727C129.009 972.199 127.537 970.006 125.66 970.559L81.2039 983.66Z" fill="#A3C8FF"/>
<path d="M98.504 1010.33C102.493 995.998 96.5064 982.392 80.9728 983.813L-4.86938 1041.04C-5.27498 1043.71 -5.77084 1046.55 -6.27752 1049.45C-8.74289 1063.57 -11.4642 1079.16 -5.28724 1083.52L97.6982 1011.33L98.504 1010.33Z" fill="#D6E9FF"/>
<path d="M98.504 1010.33C102.493 995.998 96.5064 982.392 80.9728 983.813L-4.86938 1041.04C-5.27498 1043.71 -5.77084 1046.55 -6.27752 1049.45C-8.74289 1063.57 -11.4642 1079.16 -5.28724 1083.52L97.6982 1011.33L98.504 1010.33Z" fill="url(#paint6_linear_8_1422)"/>
<path d="M103 977.236C107.033 977.598 109.783 979.342 111.628 981.675C113.496 984.036 114.546 987.155 113.798 991.209L116.078 988.359C116.096 985.204 115.2 982.435 113.465 980.242C111.919 978.286 109.76 976.857 107.127 976.02L103 977.236Z" fill="#E9F3FF"/>
<path d="M-64.2617 941.984L-1.19937 899.951L18.378 904.75L-44.6844 946.784L-64.2617 941.984Z" fill="#CAE2FE"/>
</g>
<defs>
<linearGradient id="paint0_linear_8_1422" x1="375" y1="-169" x2="375" y2="836.85" gradientUnits="userSpaceOnUse">
<stop stop-color="#2466FF"/>
<stop offset="1" stop-color="#457DFF"/>
</linearGradient>
<linearGradient id="paint1_linear_8_1422" x1="380.428" y1="1300.81" x2="471.852" y2="1311.71" gradientUnits="userSpaceOnUse">
<stop stop-color="#7E9AFF"/>
<stop offset="1" stop-color="#7E9AFF" stop-opacity="0.55"/>
</linearGradient>
<linearGradient id="paint2_linear_8_1422" x1="547.577" y1="1026.9" x2="547.577" y2="1271.97" gradientUnits="userSpaceOnUse">
<stop stop-color="#F2FAFF"/>
<stop offset="1" stop-color="#E4F0FF"/>
</linearGradient>
<linearGradient id="paint3_linear_8_1422" x1="97.9302" y1="1289.91" x2="-44.6611" y2="1210.44" gradientUnits="userSpaceOnUse">
<stop stop-color="#FFC2E1"/>
<stop offset="0.8125" stop-color="#FFD1BE" stop-opacity="0"/>
</linearGradient>
<linearGradient id="paint4_linear_8_1422" x1="136.564" y1="1243.94" x2="96.48" y2="1364.67" gradientUnits="userSpaceOnUse">
<stop stop-color="#FEC69A"/>
<stop offset="0.671875" stop-color="#FE76E0"/>
<stop offset="0.984375" stop-color="#C67EFF"/>
</linearGradient>
<linearGradient id="paint5_linear_8_1422" x1="76.2743" y1="924.08" x2="79.9367" y2="932.904" gradientUnits="userSpaceOnUse">
<stop stop-color="#7380FF"/>
<stop offset="1" stop-color="#98A6FF"/>
</linearGradient>
<linearGradient id="paint6_linear_8_1422" x1="46.9379" y1="1035.97" x2="51.8156" y2="1043.45" gradientUnits="userSpaceOnUse">
<stop stop-color="#B9D6FF"/>
<stop offset="1" stop-color="#89BDFB"/>
</linearGradient>
<clipPath id="clip0_8_1422">
<rect width="750" height="1631" fill="white"/>
</clipPath>
<clipPath id="clip1_8_1422">
<rect width="76.9226" height="74.7248" fill="white" transform="matrix(0.963071 0.269246 -0.757558 0.652768 152.281 1394.21)"/>
</clipPath>
</defs>
</svg>
