<svg width="750" height="1624" viewBox="0 0 750 1624" fill="none" xmlns="http://www.w3.org/2000/svg">
<g clip-path="url(#clip0_8_1577)">
<rect width="750" height="1624" fill="white"/>
<rect y="-176" width="750" height="1800" fill="url(#paint0_linear_8_1577)"/>
<rect x="-54.1953" y="777.609" width="695.736" height="687.312" transform="rotate(15.624 -54.1953 777.609)" fill="#CCEDC1"/>
<rect x="-54.1953" y="777.609" width="695.736" height="687.312" transform="rotate(15.624 -54.1953 777.609)" fill="black" fill-opacity="0.05"/>
<rect x="-54.1953" y="777.609" width="695.736" height="687.312" transform="rotate(15.624 -54.1953 777.609)" fill="#A8CFB4" fill-opacity="0.7"/>
<rect x="-54.1953" y="777.609" width="695.736" height="687.312" transform="rotate(15.624 -54.1953 777.609)" fill="#0F5D45"/>
<rect x="-54.1953" y="777.609" width="695.736" height="687.312" transform="rotate(15.624 -54.1953 777.609)" fill="#5AB107" fill-opacity="0.5"/>
<rect x="-54.1953" y="777.609" width="695.736" height="687.312" transform="rotate(15.624 -54.1953 777.609)" fill="#B1E865"/>
<path d="M425.63 1045.99L-141.051 1404.2L163.603 1657.78L964.065 1669.26C965.386 1429.68 1103.6 760.86 1100.43 704.558C1063.97 702.83 1052.44 669.91 1027.76 664.477C982.417 654.497 774.071 603.568 676.977 582.82C752.844 701.027 694.073 793.076 658.563 856.67C633.909 900.824 532.271 987.903 425.63 1045.99Z" fill="#50A202"/>
<path d="M383.318 1055.85L-183.363 1414.07L121.291 1667.64L921.752 1679.13C923.073 1439.55 1061.29 770.727 1058.12 714.425C1021.66 712.698 1009.58 687.222 985.102 680.914C919.969 664.127 731.956 614.438 634.665 592.688C710.531 710.894 651.761 802.943 616.251 866.538C591.596 910.691 489.959 997.77 383.318 1055.85Z" fill="#71C026"/>
<path d="M347.974 1064.48L-218.707 1422.69L85.9469 1676.27L886.408 1687.75C887.729 1448.18 1025.95 779.353 1022.78 723.051C909.897 678.9 719.085 637.727 593.575 610.734C669.442 728.941 616.417 811.57 580.907 875.164C556.252 919.318 454.615 1006.4 347.974 1064.48Z" fill="#94DA51"/>
<path d="M305.877 1087.48L-260.805 1445.69L43.8492 1699.27L844.311 1710.75C845.632 1471.18 986.3 790.104 983.129 733.802C866.979 701.954 676.987 660.727 551.477 633.734C627.344 751.941 574.319 834.57 538.809 898.164C514.155 942.318 412.518 1029.4 305.877 1087.48Z" fill="#CBEBAB"/>
<path d="M270.938 1057.29L-303.246 1465.52L27.0634 1737.07L827.525 1748.56C828.846 1508.98 967.065 840.159 963.894 783.857C927.429 782.13 898.818 712.053 876.621 724.143C854.425 736.232 615.859 679.816 500.075 655.648C560.964 736.125 545.026 827.952 455.525 913.617C425.206 942.636 370.28 984.248 270.938 1057.29Z" fill="#D8EEFF"/>
<g style="mix-blend-mode:multiply" opacity="0.6">
<path d="M136.526 904.045L-0.938868 867.805L-8.96875 1006.96L137.425 909.442C139.578 908.008 139.028 904.704 136.526 904.045Z" fill="#64AB00"/>
</g>
<path d="M121.154 909.901L121.174 909.906V889.672L104.099 903.299L-0.334356 971.545L-13.5898 1000.55L-0.334356 991.798L119.807 912.436C120.739 911.82 121.168 910.854 121.154 909.901Z" fill="#7BCD09"/>
<path d="M121.154 909.901L121.174 909.906V889.672L104.099 903.299L-0.334356 971.545L-13.5898 1000.55L-0.334356 991.798L119.807 912.436C120.739 911.82 121.168 910.854 121.154 909.901Z" fill="url(#paint1_linear_8_1577)" fill-opacity="0.2"/>
<path d="M119.225 888.358L-7.31253 854.632L-14.2806 980.422L120.078 893.778C122.267 892.366 121.741 889.028 119.225 888.358Z" fill="#ABDEA7"/>
<path d="M119.225 888.358L-7.31253 854.632L-14.2806 980.422L120.078 893.778C122.267 892.366 121.741 889.028 119.225 888.358Z" fill="#5AB107" fill-opacity="0.8"/>
<path d="M119.225 888.358L-7.31253 854.632L-14.2806 980.422L120.078 893.778C122.267 892.366 121.741 889.028 119.225 888.358Z" fill="#D5FAA2"/>
<path d="M-61.3359 934.656L1.72641 892.623L21.3038 897.422L-41.7586 939.456L-61.3359 934.656Z" fill="#8DD09C"/>
<g style="mix-blend-mode:multiply" opacity="0.6">
<path d="M126.232 992.524L-5.19944 1085.15L-18.8485 1064.36L111.018 976.463L140.006 970.161C141.859 969.758 143.18 971.921 141.975 973.386L126.232 992.524Z" fill="#67B12C"/>
</g>
<path d="M81.6765 976.336L-9.32153 1037L-15.707 1083.83L98.1738 1004.01L128.259 966.403C129.482 964.875 128.009 962.682 126.132 963.235L81.6765 976.336Z" fill="#9CDE84"/>
<path d="M98.9766 1003C102.966 988.669 96.979 975.064 81.4455 976.485L-4.39673 1033.72C-4.80232 1036.38 -5.29819 1039.22 -5.80486 1042.12C-8.27024 1056.24 -10.9915 1071.83 -4.81458 1076.19L98.1709 1004.01L98.9766 1003Z" fill="#E0FFDF"/>
<path d="M98.9766 1003C102.966 988.669 96.979 975.064 81.4455 976.485L-4.39673 1033.72C-4.80232 1036.38 -5.29819 1039.22 -5.80486 1042.12C-8.27024 1056.24 -10.9915 1071.83 -4.81458 1076.19L98.1709 1004.01L98.9766 1003Z" fill="url(#paint2_linear_8_1577)"/>
<path d="M103.473 969.912C107.505 970.274 110.256 972.018 112.101 974.35C113.968 976.712 115.019 979.831 114.271 983.885L116.551 981.035C116.569 977.879 115.673 975.111 113.938 972.918C112.392 970.962 110.233 969.533 107.6 968.695L103.473 969.912Z" fill="#C8F5BD"/>
<path d="M825.197 1299.38C778.049 1314.96 759.137 1316.12 694.828 1338.1C646.67 1282.95 579.191 1292.55 558.086 1271.44C558.086 1245.23 589.952 1220.34 668.216 1217.18C1019.28 1202.98 865.832 1285.96 825.197 1299.38Z" fill="#A3D1FE"/>
<path d="M441.185 1189.86L689.492 1338.08L583.524 1310.3L327.445 1166.67L441.185 1189.86Z" fill="#158BFF"/>
<rect width="326.493" height="198.062" rx="7.02563" transform="matrix(0.891286 0.453442 -0.735325 0.677714 378.98 1247.76)" fill="#90C1F2"/>
<rect width="326.493" height="198.062" rx="7.02563" transform="matrix(0.891286 0.453442 -0.735325 0.677714 378.545 1239.73)" fill="white"/>
<path d="M366.043 1251.74L656.204 1399.36" stroke="#E8E8E8" stroke-width="1.75641"/>
<path d="M372.926 1292.12L631.347 1423.59" stroke="#E8E8E8" stroke-width="0.878204"/>
<path d="M347.016 1316L604.603 1447.05" stroke="#E8E8E8" stroke-width="0.878204"/>
<path d="M321.105 1339.89L578.885 1471.03" stroke="#E8E8E8" stroke-width="0.878204"/>
<path d="M296.219 1362.82L553.998 1493.96" stroke="#E8E8E8" stroke-width="0.878204"/>
<path d="M470.422 1294.42L334.209 1419.96" stroke="#E8E8E8" stroke-width="0.878204"/>
<path d="M406.541 1261.7L270.178 1387.38" stroke="#E8E8E8" stroke-width="0.878204"/>
<line y1="-0.439102" x2="176.107" y2="-0.439102" transform="matrix(-0.735325 0.677714 -0.891286 -0.453442 525.356 1331.97)" stroke="#E8E8E8" stroke-width="0.878204"/>
<line y1="-0.439102" x2="176.107" y2="-0.439102" transform="matrix(-0.735325 0.677714 -0.891286 -0.453442 589.611 1364.66)" stroke="#E8E8E8" stroke-width="0.878204"/>
<ellipse cx="6.32212" cy="6.30008" rx="6.32212" ry="6.30008" transform="matrix(0.891286 0.453442 -0.735325 0.677714 355.22 1301.69)" fill="#FF4C47"/>
<path d="M358.088 1309.26L613.441 1439.18" stroke="#FF4C47" stroke-width="0.878204"/>
<path d="M350.816 1279.2L351.367 1279.48L347.678 1282.88L346.946 1282.51L349.906 1279.78C349.435 1279.83 348.947 1279.8 348.436 1279.68L349.035 1279.12C349.277 1279.19 349.562 1279.23 349.891 1279.25C350.23 1279.26 350.536 1279.24 350.816 1279.2ZM353.882 1280.66C354.402 1280.92 354.633 1281.29 354.566 1281.77C354.501 1282.23 354.179 1282.72 353.6 1283.26C353.021 1283.79 352.424 1284.14 351.807 1284.32C351.157 1284.5 350.569 1284.46 350.049 1284.19C349.523 1283.92 349.297 1283.55 349.365 1283.07C349.431 1282.62 349.753 1282.13 350.331 1281.59C350.91 1281.06 351.508 1280.71 352.124 1280.53C352.774 1280.35 353.356 1280.39 353.882 1280.66ZM353.371 1281.13C353.014 1280.95 352.603 1280.97 352.129 1281.2C351.806 1281.35 351.451 1281.61 351.064 1281.97C350.682 1282.32 350.427 1282.62 350.3 1282.88C350.118 1283.26 350.204 1283.54 350.561 1283.72C350.911 1283.9 351.327 1283.87 351.803 1283.65C352.13 1283.49 352.485 1283.24 352.867 1282.88C353.255 1282.53 353.51 1282.22 353.632 1281.96C353.812 1281.58 353.722 1281.31 353.371 1281.13ZM355.547 1283.03C355.685 1283.1 355.761 1283.2 355.779 1283.32C355.795 1283.44 355.747 1283.56 355.634 1283.66C355.52 1283.77 355.377 1283.83 355.2 1283.86C355.028 1283.87 354.874 1283.85 354.736 1283.78C354.598 1283.71 354.52 1283.61 354.505 1283.5C354.488 1283.37 354.537 1283.27 354.65 1283.16C354.764 1283.06 354.906 1282.99 355.084 1282.97C355.254 1282.94 355.409 1282.96 355.547 1283.03ZM353.656 1284.78C353.794 1284.85 353.87 1284.94 353.888 1285.07C353.904 1285.18 353.856 1285.3 353.743 1285.4C353.629 1285.51 353.486 1285.57 353.309 1285.6C353.137 1285.61 352.983 1285.59 352.845 1285.52C352.707 1285.45 352.63 1285.36 352.614 1285.24C352.597 1285.12 352.646 1285.01 352.76 1284.9C352.873 1284.8 353.015 1284.73 353.193 1284.71C353.363 1284.68 353.518 1284.71 353.656 1284.78ZM359.361 1283.45C359.881 1283.71 360.113 1284.08 360.045 1284.56C359.98 1285.02 359.658 1285.51 359.079 1286.04C358.501 1286.58 357.903 1286.93 357.287 1287.1C356.636 1287.28 356.048 1287.24 355.528 1286.98C355.002 1286.71 354.776 1286.34 354.844 1285.86C354.91 1285.41 355.232 1284.91 355.81 1284.38C356.389 1283.85 356.987 1283.49 357.603 1283.32C358.253 1283.13 358.835 1283.18 359.361 1283.45ZM358.85 1283.92C358.493 1283.74 358.082 1283.76 357.608 1283.99C357.285 1284.14 356.931 1284.4 356.543 1284.75C356.161 1285.11 355.906 1285.41 355.779 1285.67C355.598 1286.05 355.683 1286.33 356.04 1286.51C356.39 1286.69 356.806 1286.66 357.282 1286.44C357.609 1286.28 357.964 1286.02 358.347 1285.67C358.734 1285.31 358.989 1285.01 359.111 1284.75C359.291 1284.37 359.201 1284.1 358.85 1283.92ZM363.116 1285.36C363.636 1285.62 363.867 1285.99 363.8 1286.47C363.734 1286.93 363.412 1287.42 362.834 1287.95C362.255 1288.49 361.658 1288.84 361.041 1289.01C360.39 1289.19 359.803 1289.15 359.283 1288.89C358.757 1288.62 358.531 1288.25 358.599 1287.77C358.665 1287.32 358.987 1286.82 359.565 1286.29C360.144 1285.76 360.741 1285.4 361.358 1285.23C362.007 1285.04 362.59 1285.09 363.116 1285.36ZM362.605 1285.83C362.248 1285.65 361.837 1285.67 361.362 1285.9C361.04 1286.05 360.685 1286.31 360.298 1286.66C359.915 1287.02 359.661 1287.32 359.534 1287.58C359.352 1287.96 359.437 1288.24 359.794 1288.42C360.145 1288.6 360.561 1288.57 361.037 1288.35C361.364 1288.19 361.719 1287.93 362.101 1287.58C362.489 1287.22 362.743 1286.92 362.865 1286.66C363.046 1286.28 362.955 1286.01 362.605 1285.83Z" fill="#656565"/>
<path d="M372.919 1259.43C373.439 1259.7 373.671 1260.07 373.603 1260.55C373.538 1261 373.216 1261.5 372.637 1262.03C372.059 1262.56 371.461 1262.92 370.845 1263.09C370.194 1263.27 369.606 1263.23 369.086 1262.97C368.56 1262.7 368.334 1262.32 368.402 1261.85C368.468 1261.4 368.79 1260.9 369.369 1260.37C369.947 1259.84 370.545 1259.48 371.161 1259.31C371.811 1259.12 372.393 1259.17 372.919 1259.43ZM372.408 1259.9C372.051 1259.72 371.64 1259.74 371.166 1259.97C370.844 1260.13 370.489 1260.38 370.101 1260.74C369.719 1261.09 369.464 1261.4 369.337 1261.66C369.156 1262.03 369.241 1262.31 369.598 1262.49C369.948 1262.67 370.364 1262.65 370.84 1262.42C371.167 1262.27 371.522 1262.01 371.905 1261.66C372.292 1261.3 372.547 1261 372.669 1260.74C372.849 1260.36 372.759 1260.08 372.408 1259.9ZM376.674 1261.34C377.15 1261.59 377.429 1261.88 377.505 1262.22C377.569 1262.52 377.468 1262.8 377.189 1263.05C377.003 1263.23 376.793 1263.35 376.564 1263.42C376.317 1263.48 376.046 1263.5 375.754 1263.45L375.744 1263.46C375.904 1263.61 375.982 1263.8 375.972 1264.02C375.966 1264.27 375.852 1264.5 375.625 1264.71C375.294 1265.02 374.88 1265.18 374.386 1265.23C373.89 1265.26 373.373 1265.15 372.841 1264.88C372.302 1264.6 371.992 1264.3 371.906 1263.96C371.818 1263.62 371.938 1263.31 372.268 1263C372.496 1262.79 372.778 1262.65 373.129 1262.58C373.44 1262.51 373.719 1262.5 373.978 1262.57L373.988 1262.56C373.835 1262.37 373.781 1262.19 373.809 1262.01C373.838 1261.84 373.948 1261.67 374.134 1261.5C374.413 1261.24 374.77 1261.09 375.213 1261.05C375.707 1261 376.192 1261.1 376.674 1261.34ZM376.194 1261.79C375.931 1261.65 375.661 1261.6 375.386 1261.63C375.145 1261.65 374.952 1261.73 374.802 1261.87C374.631 1262.03 374.553 1262.18 374.568 1262.33C374.587 1262.51 374.744 1262.67 375.057 1262.83C375.364 1262.99 375.651 1263.05 375.908 1263.01C376.119 1262.97 376.31 1262.88 376.48 1262.72C376.63 1262.58 376.685 1262.44 376.65 1262.27C376.607 1262.08 376.457 1261.92 376.194 1261.79ZM374.608 1263.25C374.295 1263.09 373.995 1263.02 373.708 1263.06C373.426 1263.08 373.191 1263.19 372.995 1263.37C372.809 1263.54 372.74 1263.72 372.796 1263.91C372.845 1264.1 373.02 1264.27 373.326 1264.43C373.627 1264.58 373.927 1264.65 374.216 1264.63C374.486 1264.61 374.712 1264.51 374.898 1264.34C375.095 1264.16 375.173 1263.97 375.137 1263.79C375.097 1263.59 374.921 1263.41 374.608 1263.25ZM378.339 1263.72C378.476 1263.79 378.553 1263.88 378.571 1264.01C378.587 1264.13 378.539 1264.24 378.425 1264.35C378.312 1264.45 378.169 1264.51 377.992 1264.54C377.819 1264.56 377.665 1264.54 377.528 1264.47C377.39 1264.4 377.312 1264.3 377.297 1264.19C377.279 1264.06 377.329 1263.95 377.442 1263.85C377.556 1263.74 377.698 1263.67 377.876 1263.65C378.046 1263.62 378.201 1263.65 378.339 1263.72ZM376.448 1265.46C376.586 1265.53 376.662 1265.62 376.68 1265.75C376.696 1265.87 376.648 1265.99 376.534 1266.09C376.421 1266.2 376.278 1266.26 376.101 1266.28C375.929 1266.3 375.775 1266.28 375.637 1266.21C375.499 1266.14 375.421 1266.04 375.406 1265.93C375.389 1265.8 375.438 1265.7 375.551 1265.59C375.665 1265.49 375.807 1265.42 375.985 1265.4C376.155 1265.37 376.31 1265.39 376.448 1265.46ZM382.153 1264.13C382.673 1264.4 382.904 1264.76 382.837 1265.25C382.772 1265.7 382.45 1266.2 381.871 1266.73C381.292 1267.26 380.695 1267.62 380.078 1267.79C379.428 1267.97 378.84 1267.93 378.32 1267.66C377.794 1267.4 377.568 1267.02 377.636 1266.55C377.702 1266.09 378.024 1265.6 378.602 1265.07C379.181 1264.53 379.778 1264.18 380.395 1264.01C381.045 1263.82 381.627 1263.86 382.153 1264.13ZM381.642 1264.6C381.285 1264.42 380.874 1264.44 380.4 1264.67C380.077 1264.83 379.722 1265.08 379.335 1265.44C378.953 1265.79 378.698 1266.1 378.571 1266.36C378.389 1266.73 378.475 1267.01 378.831 1267.19C379.182 1267.37 379.598 1267.35 380.074 1267.12C380.401 1266.96 380.756 1266.71 381.138 1266.36C381.526 1266 381.78 1265.69 381.902 1265.44C382.083 1265.06 381.992 1264.78 381.642 1264.6ZM385.908 1266.04C386.428 1266.31 386.659 1266.67 386.592 1267.16C386.526 1267.61 386.204 1268.11 385.626 1268.64C385.047 1269.17 384.449 1269.53 383.833 1269.7C383.182 1269.88 382.594 1269.84 382.075 1269.57C381.549 1269.31 381.322 1268.93 381.391 1268.46C381.456 1268 381.778 1267.51 382.357 1266.98C382.936 1266.44 383.533 1266.09 384.15 1265.92C384.799 1265.73 385.382 1265.77 385.908 1266.04ZM385.396 1266.51C385.04 1266.33 384.629 1266.35 384.154 1266.58C383.832 1266.74 383.477 1266.99 383.09 1267.35C382.707 1267.7 382.453 1268.01 382.325 1268.27C382.144 1268.64 382.229 1268.92 382.586 1269.1C382.937 1269.28 383.353 1269.26 383.828 1269.03C384.156 1268.87 384.511 1268.62 384.893 1268.27C385.28 1267.91 385.535 1267.6 385.657 1267.35C385.837 1266.97 385.747 1266.69 385.396 1266.51Z" fill="#656565"/>
<path d="M409.738 1264.82L410.289 1265.1L406.601 1268.5L405.868 1268.13L408.828 1265.4C408.357 1265.45 407.87 1265.41 407.358 1265.29L407.957 1264.74C408.199 1264.8 408.484 1264.85 408.813 1264.87C409.152 1264.88 409.459 1264.86 409.738 1264.82ZM412.805 1266.28C413.324 1266.54 413.556 1266.91 413.488 1267.39C413.423 1267.85 413.101 1268.34 412.522 1268.87C411.944 1269.41 411.346 1269.76 410.73 1269.93C410.079 1270.11 409.491 1270.07 408.971 1269.81C408.445 1269.54 408.219 1269.17 408.288 1268.69C408.353 1268.24 408.675 1267.74 409.254 1267.21C409.832 1266.68 410.43 1266.32 411.046 1266.15C411.696 1265.96 412.279 1266.01 412.805 1266.28ZM412.293 1266.75C411.936 1266.56 411.526 1266.59 411.051 1266.82C410.729 1266.97 410.374 1267.23 409.986 1267.58C409.604 1267.94 409.349 1268.24 409.222 1268.5C409.041 1268.88 409.126 1269.16 409.483 1269.34C409.834 1269.52 410.249 1269.49 410.725 1269.27C411.053 1269.11 411.407 1268.85 411.79 1268.5C412.177 1268.14 412.432 1267.84 412.554 1267.58C412.734 1267.2 412.644 1266.92 412.293 1266.75Z" fill="#656565"/>
<path d="M472.366 1296.68L472.917 1296.96L469.228 1300.36L468.495 1299.99L471.456 1297.26C470.985 1297.31 470.497 1297.27 469.986 1297.15L470.585 1296.6C470.827 1296.66 471.112 1296.71 471.44 1296.72C471.78 1296.73 472.086 1296.72 472.366 1296.68ZM474.934 1297.98L475.485 1298.26L471.796 1301.66L471.064 1301.29L474.024 1298.56C473.553 1298.61 473.065 1298.58 472.554 1298.46L473.153 1297.91C473.395 1297.97 473.68 1298.01 474.009 1298.03C474.348 1298.04 474.655 1298.03 474.934 1297.98Z" fill="#656565"/>
<path d="M534.073 1328.08L534.624 1328.36L530.935 1331.76L530.203 1331.38L533.163 1328.66C532.692 1328.7 532.204 1328.67 531.693 1328.55L532.292 1328C532.534 1328.06 532.819 1328.1 533.148 1328.12C533.487 1328.13 533.793 1328.12 534.073 1328.08ZM537.208 1329.57C537.64 1329.79 537.894 1330.06 537.969 1330.4C538.038 1330.73 537.912 1331.04 537.581 1331.35C537.261 1331.64 536.822 1331.83 536.27 1331.93C535.94 1331.98 535.43 1332 534.749 1332C534.044 1332 533.552 1332.06 533.265 1332.18L535.47 1333.3L534.937 1333.79L531.819 1332.21C532.196 1331.86 532.666 1331.63 533.245 1331.53C533.563 1331.47 534.135 1331.43 534.949 1331.43C535.402 1331.42 535.742 1331.39 535.976 1331.36C536.351 1331.29 536.647 1331.16 536.854 1330.97C537.055 1330.78 537.136 1330.61 537.109 1330.46C537.076 1330.3 536.928 1330.16 536.672 1330.03C536.396 1329.89 536.112 1329.85 535.819 1329.93C535.537 1329.99 535.239 1330.16 534.938 1330.42L534.205 1330.04C534.625 1329.67 535.099 1329.43 535.64 1329.35C536.203 1329.25 536.726 1329.32 537.208 1329.57Z" fill="#656565"/>
<path d="M596.883 1360.03L597.434 1360.31L593.746 1363.71L593.013 1363.34L595.973 1360.61C595.503 1360.66 595.015 1360.62 594.503 1360.5L595.102 1359.95C595.344 1360.01 595.629 1360.06 595.958 1360.08C596.297 1360.09 596.604 1360.07 596.883 1360.03ZM599.994 1361.51C600.444 1361.74 600.726 1362.01 600.821 1362.31C600.909 1362.62 600.799 1362.92 600.479 1363.21C600.076 1363.58 599.557 1363.7 598.928 1363.57C599.123 1363.77 599.232 1363.97 599.235 1364.16C599.246 1364.36 599.14 1364.57 598.924 1364.77C598.583 1365.08 598.16 1365.27 597.655 1365.32C597.132 1365.37 596.624 1365.28 596.135 1365.03C595.672 1364.79 595.394 1364.51 595.309 1364.19C595.213 1363.83 595.358 1363.44 595.733 1363.04L596.479 1363.42C596.253 1363.65 596.155 1363.86 596.201 1364.07C596.239 1364.26 596.384 1364.42 596.64 1364.55C596.922 1364.7 597.215 1364.75 597.507 1364.71C597.77 1364.68 597.989 1364.58 598.165 1364.42C598.377 1364.23 598.45 1364.04 598.398 1363.87C598.351 1363.7 598.179 1363.55 597.891 1363.4L597.578 1363.24L598.032 1362.82L598.345 1362.98C598.608 1363.12 598.855 1363.18 599.086 1363.16C599.31 1363.14 599.519 1363.05 599.7 1362.88C599.88 1362.71 599.952 1362.56 599.926 1362.41C599.888 1362.26 599.74 1362.12 599.483 1361.99C599.22 1361.85 598.968 1361.8 598.716 1361.83C598.457 1361.85 598.204 1361.96 597.957 1362.15L597.237 1361.78C597.646 1361.46 598.098 1361.28 598.605 1361.24C599.094 1361.19 599.555 1361.29 599.994 1361.51Z" fill="#656565"/>
<path d="M325.2 1302.81L325.751 1303.09L322.062 1306.49L321.329 1306.11L324.29 1303.39C323.819 1303.43 323.331 1303.4 322.82 1303.28L323.419 1302.73C323.661 1302.79 323.946 1302.83 324.274 1302.85C324.614 1302.86 324.92 1302.85 325.2 1302.81ZM328.335 1304.3C328.767 1304.52 329.021 1304.8 329.096 1305.13C329.165 1305.46 329.039 1305.77 328.708 1306.08C328.388 1306.37 327.948 1306.56 327.397 1306.66C327.067 1306.71 326.557 1306.73 325.876 1306.74C325.171 1306.73 324.679 1306.79 324.392 1306.91L326.597 1308.03L326.064 1308.52L322.946 1306.94C323.323 1306.59 323.793 1306.36 324.372 1306.26C324.69 1306.2 325.262 1306.16 326.076 1306.16C326.529 1306.15 326.869 1306.12 327.103 1306.09C327.478 1306.02 327.774 1305.89 327.981 1305.7C328.182 1305.51 328.263 1305.34 328.236 1305.19C328.203 1305.03 328.055 1304.89 327.799 1304.76C327.523 1304.62 327.239 1304.58 326.946 1304.66C326.664 1304.72 326.366 1304.89 326.065 1305.15L325.332 1304.77C325.752 1304.4 326.226 1304.16 326.767 1304.08C327.33 1303.98 327.853 1304.05 328.335 1304.3ZM329.931 1306.64C330.068 1306.71 330.145 1306.8 330.163 1306.93C330.179 1307.05 330.131 1307.16 330.017 1307.27C329.904 1307.37 329.761 1307.43 329.584 1307.46C329.411 1307.48 329.257 1307.46 329.12 1307.39C328.982 1307.32 328.904 1307.22 328.889 1307.11C328.871 1306.98 328.921 1306.87 329.034 1306.77C329.148 1306.66 329.29 1306.59 329.468 1306.57C329.638 1306.54 329.793 1306.57 329.931 1306.64ZM328.04 1308.38C328.178 1308.45 328.254 1308.54 328.272 1308.67C328.288 1308.79 328.24 1308.91 328.126 1309.01C328.013 1309.12 327.87 1309.18 327.693 1309.2C327.521 1309.22 327.367 1309.2 327.229 1309.13C327.091 1309.06 327.013 1308.96 326.998 1308.85C326.981 1308.72 327.03 1308.62 327.143 1308.51C327.257 1308.41 327.399 1308.34 327.577 1308.32C327.747 1308.29 327.902 1308.31 328.04 1308.38ZM333.745 1307.05C334.265 1307.32 334.496 1307.68 334.429 1308.17C334.364 1308.62 334.042 1309.12 333.463 1309.65C332.884 1310.18 332.287 1310.54 331.67 1310.71C331.02 1310.89 330.432 1310.85 329.912 1310.58C329.386 1310.32 329.16 1309.94 329.228 1309.47C329.294 1309.01 329.616 1308.52 330.194 1307.99C330.773 1307.45 331.37 1307.1 331.987 1306.93C332.637 1306.74 333.219 1306.78 333.745 1307.05ZM333.234 1307.52C332.877 1307.34 332.466 1307.36 331.992 1307.59C331.669 1307.75 331.314 1308 330.927 1308.36C330.545 1308.71 330.29 1309.02 330.163 1309.28C329.981 1309.65 330.067 1309.93 330.423 1310.11C330.774 1310.29 331.19 1310.27 331.666 1310.04C331.993 1309.88 332.348 1309.63 332.73 1309.28C333.118 1308.92 333.372 1308.61 333.494 1308.36C333.675 1307.98 333.584 1307.7 333.234 1307.52ZM337.5 1308.96C338.02 1309.23 338.251 1309.59 338.184 1310.08C338.118 1310.53 337.796 1311.03 337.218 1311.56C336.639 1312.09 336.041 1312.45 335.425 1312.62C334.774 1312.8 334.186 1312.76 333.667 1312.49C333.141 1312.23 332.914 1311.85 332.983 1311.38C333.048 1310.92 333.37 1310.43 333.949 1309.9C334.528 1309.36 335.125 1309.01 335.742 1308.84C336.391 1308.65 336.974 1308.69 337.5 1308.96ZM336.988 1309.43C336.632 1309.25 336.221 1309.27 335.746 1309.5C335.424 1309.66 335.069 1309.91 334.682 1310.27C334.299 1310.62 334.045 1310.93 333.917 1311.19C333.736 1311.56 333.821 1311.84 334.178 1312.02C334.529 1312.2 334.945 1312.18 335.42 1311.95C335.748 1311.79 336.103 1311.54 336.485 1311.19C336.872 1310.83 337.127 1310.52 337.249 1310.27C337.429 1309.89 337.339 1309.61 336.988 1309.43Z" fill="#656565"/>
<path d="M298.346 1327.56L298.897 1327.84L295.208 1331.24L294.475 1330.86L297.436 1328.14C296.965 1328.18 296.477 1328.15 295.966 1328.03L296.565 1327.48C296.806 1327.54 297.092 1327.58 297.42 1327.6C297.76 1327.61 298.066 1327.6 298.346 1327.56ZM301.766 1329.3L302.436 1329.64L300.018 1331.87L300.682 1332.2L300.201 1332.65L299.537 1332.31L298.747 1333.04L298.052 1332.68L298.842 1331.96L296.682 1330.86L297.255 1330.33L301.766 1329.3ZM300.957 1329.98L297.757 1330.72L299.323 1331.51L300.976 1329.99L300.957 1329.98ZM303.077 1331.39C303.214 1331.46 303.291 1331.55 303.309 1331.68C303.325 1331.8 303.277 1331.91 303.163 1332.02C303.05 1332.12 302.907 1332.18 302.73 1332.21C302.557 1332.23 302.403 1332.21 302.266 1332.14C302.128 1332.07 302.05 1331.97 302.035 1331.86C302.017 1331.73 302.067 1331.62 302.18 1331.52C302.294 1331.41 302.436 1331.34 302.614 1331.32C302.784 1331.29 302.939 1331.32 303.077 1331.39ZM301.186 1333.13C301.324 1333.2 301.4 1333.29 301.418 1333.42C301.434 1333.54 301.386 1333.66 301.272 1333.76C301.159 1333.87 301.016 1333.93 300.839 1333.95C300.667 1333.97 300.513 1333.95 300.375 1333.88C300.237 1333.81 300.159 1333.71 300.144 1333.6C300.127 1333.47 300.176 1333.37 300.289 1333.26C300.403 1333.16 300.545 1333.09 300.723 1333.07C300.893 1333.04 301.048 1333.06 301.186 1333.13ZM306.891 1331.8C307.411 1332.07 307.642 1332.43 307.575 1332.92C307.51 1333.37 307.188 1333.87 306.609 1334.4C306.03 1334.93 305.433 1335.29 304.816 1335.46C304.166 1335.64 303.578 1335.6 303.058 1335.33C302.532 1335.07 302.306 1334.69 302.374 1334.22C302.44 1333.76 302.762 1333.27 303.34 1332.74C303.919 1332.2 304.516 1331.85 305.133 1331.67C305.783 1331.49 306.365 1331.53 306.891 1331.8ZM306.38 1332.27C306.023 1332.09 305.612 1332.11 305.138 1332.34C304.815 1332.5 304.46 1332.75 304.073 1333.11C303.691 1333.46 303.436 1333.77 303.309 1334.03C303.127 1334.4 303.213 1334.68 303.569 1334.86C303.92 1335.04 304.336 1335.02 304.812 1334.79C305.139 1334.63 305.494 1334.38 305.876 1334.03C306.264 1333.67 306.518 1333.36 306.64 1333.11C306.821 1332.73 306.73 1332.45 306.38 1332.27ZM310.646 1333.71C311.166 1333.98 311.397 1334.34 311.33 1334.83C311.264 1335.28 310.942 1335.78 310.364 1336.31C309.785 1336.84 309.187 1337.2 308.571 1337.37C307.92 1337.55 307.332 1337.51 306.813 1337.24C306.287 1336.98 306.06 1336.6 306.129 1336.13C306.194 1335.67 306.516 1335.18 307.095 1334.65C307.674 1334.11 308.271 1333.76 308.888 1333.59C309.537 1333.4 310.12 1333.44 310.646 1333.71ZM310.134 1334.18C309.778 1334 309.367 1334.02 308.892 1334.25C308.57 1334.41 308.215 1334.66 307.828 1335.02C307.445 1335.37 307.191 1335.68 307.063 1335.94C306.882 1336.31 306.967 1336.59 307.324 1336.77C307.675 1336.95 308.091 1336.93 308.566 1336.7C308.894 1336.54 309.249 1336.29 309.631 1335.94C310.018 1335.58 310.273 1335.27 310.395 1335.02C310.575 1334.64 310.485 1334.36 310.134 1334.18Z" fill="#656565"/>
<path d="M274.75 1349.3L275.301 1349.58L271.612 1352.98L270.88 1352.61L273.84 1349.88C273.369 1349.93 272.881 1349.9 272.37 1349.78L272.969 1349.22C273.211 1349.29 273.496 1349.33 273.825 1349.35C274.164 1349.36 274.471 1349.35 274.75 1349.3ZM277.816 1350.76C278.292 1351 278.571 1351.29 278.647 1351.63C278.712 1351.93 278.611 1352.21 278.332 1352.47C278.146 1352.64 277.936 1352.76 277.706 1352.83C277.459 1352.9 277.188 1352.92 276.896 1352.87L276.886 1352.88C277.046 1353.03 277.124 1353.22 277.115 1353.44C277.108 1353.69 276.994 1353.92 276.767 1354.13C276.436 1354.43 276.023 1354.6 275.528 1354.64C275.032 1354.68 274.515 1354.56 273.983 1354.29C273.445 1354.02 273.135 1353.71 273.048 1353.38C272.96 1353.04 273.08 1352.72 273.411 1352.42C273.638 1352.21 273.921 1352.07 274.272 1351.99C274.582 1351.92 274.861 1351.92 275.12 1351.98L275.131 1351.97C274.977 1351.79 274.923 1351.61 274.951 1351.43C274.98 1351.26 275.09 1351.09 275.276 1350.92C275.555 1350.66 275.913 1350.51 276.355 1350.47C276.849 1350.42 277.334 1350.51 277.816 1350.76ZM277.336 1351.2C277.073 1351.07 276.803 1351.01 276.528 1351.04C276.287 1351.07 276.094 1351.15 275.944 1351.28C275.774 1351.44 275.696 1351.59 275.71 1351.74C275.729 1351.92 275.886 1352.09 276.199 1352.25C276.506 1352.41 276.794 1352.46 277.05 1352.42C277.261 1352.39 277.452 1352.3 277.622 1352.14C277.772 1352 277.827 1351.85 277.793 1351.69C277.749 1351.49 277.599 1351.34 277.336 1351.2ZM275.75 1352.66C275.437 1352.5 275.137 1352.44 274.85 1352.47C274.569 1352.5 274.333 1352.61 274.137 1352.79C273.951 1352.96 273.883 1353.14 273.938 1353.33C273.987 1353.52 274.162 1353.69 274.469 1353.84C274.769 1354 275.069 1354.06 275.358 1354.05C275.628 1354.02 275.855 1353.93 276.041 1353.76C276.237 1353.58 276.316 1353.39 276.279 1353.21C276.239 1353 276.063 1352.82 275.75 1352.66ZM279.481 1353.14C279.619 1353.21 279.695 1353.3 279.713 1353.42C279.729 1353.54 279.681 1353.66 279.568 1353.76C279.454 1353.87 279.311 1353.93 279.134 1353.96C278.962 1353.97 278.808 1353.95 278.67 1353.88C278.532 1353.81 278.455 1353.71 278.439 1353.6C278.422 1353.48 278.471 1353.37 278.584 1353.26C278.698 1353.16 278.84 1353.09 279.018 1353.07C279.188 1353.04 279.343 1353.07 279.481 1353.14ZM277.59 1354.88C277.728 1354.95 277.805 1355.04 277.822 1355.17C277.839 1355.29 277.79 1355.4 277.677 1355.51C277.563 1355.61 277.42 1355.67 277.243 1355.7C277.071 1355.72 276.917 1355.7 276.779 1355.63C276.641 1355.56 276.564 1355.46 276.548 1355.35C276.531 1355.22 276.58 1355.11 276.694 1355.01C276.807 1354.9 276.949 1354.83 277.127 1354.81C277.297 1354.78 277.452 1354.81 277.59 1354.88ZM283.296 1353.55C283.815 1353.81 284.047 1354.18 283.979 1354.66C283.914 1355.12 283.592 1355.61 283.013 1356.14C282.435 1356.68 281.837 1357.03 281.221 1357.21C280.57 1357.38 279.982 1357.34 279.462 1357.08C278.936 1356.81 278.71 1356.44 278.778 1355.96C278.844 1355.51 279.166 1355.02 279.745 1354.48C280.323 1353.95 280.921 1353.6 281.537 1353.42C282.187 1353.23 282.77 1353.28 283.296 1353.55ZM282.784 1354.02C282.427 1353.84 282.017 1353.86 281.542 1354.09C281.22 1354.24 280.865 1354.5 280.477 1354.85C280.095 1355.21 279.84 1355.51 279.713 1355.77C279.532 1356.15 279.617 1356.43 279.974 1356.61C280.324 1356.79 280.74 1356.76 281.216 1356.54C281.543 1356.38 281.898 1356.12 282.281 1355.77C282.668 1355.42 282.923 1355.11 283.045 1354.85C283.225 1354.47 283.135 1354.2 282.784 1354.02ZM287.05 1355.46C287.57 1355.72 287.801 1356.09 287.734 1356.57C287.669 1357.03 287.347 1357.52 286.768 1358.06C286.189 1358.59 285.592 1358.94 284.975 1359.12C284.325 1359.29 283.737 1359.25 283.217 1358.99C282.691 1358.72 282.465 1358.35 282.533 1357.87C282.599 1357.42 282.921 1356.93 283.499 1356.39C284.078 1355.86 284.675 1355.51 285.292 1355.33C285.942 1355.14 286.524 1355.19 287.05 1355.46ZM286.539 1355.93C286.182 1355.75 285.771 1355.77 285.297 1356C284.974 1356.15 284.619 1356.41 284.232 1356.76C283.85 1357.12 283.595 1357.42 283.468 1357.68C283.286 1358.06 283.371 1358.34 283.728 1358.52C284.079 1358.7 284.495 1358.67 284.971 1358.45C285.298 1358.29 285.653 1358.03 286.035 1357.68C286.423 1357.33 286.677 1357.02 286.799 1356.76C286.98 1356.38 286.889 1356.11 286.539 1355.93Z" fill="#656565"/>
<rect width="68.5548" height="34.4969" rx="4.39102" transform="matrix(0.891286 0.453442 -0.735325 0.677714 463.278 1301.78)" fill="#ECECEC"/>
<rect width="71.4021" height="10.8884" rx="4.39102" transform="matrix(0.891286 0.453442 -0.735325 0.677714 296.604 1363.02)" fill="#ECECEC"/>
<rect width="70.7022" height="16.4251" rx="4.39102" transform="matrix(0.891286 0.453442 -0.735325 0.677714 347.577 1316.79)" fill="#66B3FF"/>
<rect width="70.2494" height="17.7699" rx="4.39102" transform="matrix(0.891286 0.453442 -0.735325 0.677714 500.458 1356.98)" fill="#C6E6FF"/>
<rect width="70.2494" height="17.7699" rx="4.39102" transform="matrix(0.891286 0.453442 -0.735325 0.677714 500.458 1356.98)" fill="#66B3FF"/>
<rect width="74.6877" height="69.282" rx="4.39102" transform="matrix(0.891286 0.453442 -0.735325 0.677714 538.423 1413.17)" fill="#C1E0FF"/>
<g style="mix-blend-mode:darken">
<rect width="69.8505" height="24.5554" rx="2.63461" transform="matrix(0.891286 0.453442 -0.735325 0.677714 385.199 1372.83)" fill="#F5F5F5"/>
</g>
<g filter="url(#filter0_d_8_1577)">
<g filter="url(#filter1_d_8_1577)">
<path fill-rule="evenodd" clip-rule="evenodd" d="M205.588 1418.82L167.69 1398.05C166.619 1397.47 166.499 1396.34 167.422 1395.54L182.34 1382.62L218.945 1402.68C220.73 1403.66 220.93 1405.53 219.391 1406.86L205.588 1418.82Z" fill="#C8FBD9"/>
</g>
<rect width="99.0736" height="136.626" rx="2.2112" transform="matrix(0.876964 0.480555 -0.755758 0.654851 269.003 1307.52)" fill="#C8FBD9"/>
<rect width="99.0736" height="136.626" rx="2.2112" transform="matrix(0.876964 0.480555 -0.755758 0.654851 269.003 1307.52)" fill="#E2E2E2" fill-opacity="0.2"/>
<rect width="99.0736" height="136.626" rx="2.2112" transform="matrix(0.876964 0.480555 -0.755758 0.654851 269.003 1307.52)" fill="white"/>
<path d="M267.332 1308.97C268.255 1308.17 269.871 1308 270.942 1308.58L353.948 1354.07C355.019 1354.66 355.139 1355.78 354.216 1356.58L329.821 1377.72L242.937 1330.11L267.332 1308.97Z" fill="#91EB94"/>
<path d="M267.332 1308.97C268.255 1308.17 269.871 1308 270.942 1308.58L353.948 1354.07C355.019 1354.66 355.139 1355.78 354.216 1356.58L329.821 1377.72L242.937 1330.11L267.332 1308.97Z" fill="#CCEDC1" fill-opacity="0.2"/>
<path d="M263.584 1327.34L293.966 1343.99" stroke="#2EB928" stroke-width="1.47413" stroke-linecap="round"/>
<path d="M269.735 1322.01L316.878 1347.84" stroke="#2EB928" stroke-width="1.47413" stroke-linecap="round"/>
<g style="mix-blend-mode:darken" opacity="0.3">
<ellipse cx="7.39422" cy="7.36844" rx="7.39422" ry="7.36844" transform="matrix(0.876964 0.480555 -0.755758 0.654851 194.336 1387.6)" fill="#6BC936"/>
</g>
<g style="mix-blend-mode:darken" opacity="0.3">
<ellipse cx="7.39422" cy="7.36844" rx="7.39422" ry="7.36844" transform="matrix(0.876964 0.480555 -0.755758 0.654851 214.013 1398.17)" fill="#6BC936"/>
</g>
<g style="mix-blend-mode:darken" opacity="0.3">
<ellipse cx="7.39422" cy="7.36844" rx="7.39422" ry="7.36844" transform="matrix(0.876964 0.480555 -0.755758 0.654851 233.213 1408.78)" fill="#6BC936"/>
</g>
</g>
<path fill-rule="evenodd" clip-rule="evenodd" d="M64.8824 1284.02L53.9574 1289.58L62.6629 1306.68C63.0193 1307.9 63.4672 1309.09 64.009 1310.24C64.7832 1311.9 65.7296 1313.44 66.8369 1314.88L67.106 1315.41L67.2112 1315.36C83.0791 1335.02 129.702 1334.18 176.452 1312.28C226.941 1288.62 258.459 1249.35 246.848 1224.57C246.252 1223.3 245.554 1222.09 244.759 1220.95L233.237 1198.31L217.312 1206.42C195.42 1202.91 164.94 1208.23 134.405 1222.54C99.511 1238.89 73.6788 1262.7 64.8824 1284.02Z" fill="#E3FEFD"/>
<path fill-rule="evenodd" clip-rule="evenodd" d="M64.8824 1284.02L53.9574 1289.58L62.6629 1306.68C63.0193 1307.9 63.4672 1309.09 64.009 1310.24C64.7832 1311.9 65.7296 1313.44 66.8369 1314.88L67.106 1315.41L67.2112 1315.36C83.0791 1335.02 129.702 1334.18 176.452 1312.28C226.941 1288.62 258.459 1249.35 246.848 1224.57C246.252 1223.3 245.554 1222.09 244.759 1220.95L233.237 1198.31L217.312 1206.42C195.42 1202.91 164.94 1208.23 134.405 1222.54C99.511 1238.89 73.6788 1262.7 64.8824 1284.02Z" fill="#C5F3B4"/>
<path fill-rule="evenodd" clip-rule="evenodd" d="M64.8824 1284.02L53.9574 1289.58L62.6629 1306.68C63.0193 1307.9 63.4672 1309.09 64.009 1310.24C64.7832 1311.9 65.7296 1313.44 66.8369 1314.88L67.106 1315.41L67.2112 1315.36C83.0791 1335.02 129.702 1334.18 176.452 1312.28C226.941 1288.62 258.459 1249.35 246.848 1224.57C246.252 1223.3 245.554 1222.09 244.759 1220.95L233.237 1198.31L217.312 1206.42C195.42 1202.91 164.94 1208.23 134.405 1222.54C99.511 1238.89 73.6788 1262.7 64.8824 1284.02Z" fill="#158BFF"/>
<ellipse cx="145.272" cy="1247.2" rx="49.5492" ry="100.957" transform="rotate(64.8941 145.272 1247.2)" fill="white"/>
<path d="M132.163 1269.58L123.4 1224.52C122.331 1219.01 126.549 1211.98 132.824 1208.82L132.883 1208.79C139.158 1205.62 145.112 1207.51 146.182 1213.01L154.945 1258.08C156.014 1263.58 151.795 1270.61 145.521 1273.78L145.461 1273.81C139.189 1276.98 133.236 1275.08 132.163 1269.58Z" fill="#BC98F9"/>
<path d="M163.973 1265.59L157.609 1232.87C156.774 1228.59 160.062 1223.11 164.949 1220.64L165.087 1220.57C169.974 1218.1 174.614 1219.58 175.449 1223.86L181.812 1256.58C182.647 1260.86 179.359 1266.34 174.472 1268.81L174.334 1268.88C169.444 1271.35 164.807 1269.87 163.973 1265.59Z" fill="#BC98F9"/>
<path d="M167.637 1259.55L183.753 1232.69C186.21 1228.59 191.014 1226.17 194.481 1227.27C197.949 1228.37 198.77 1232.58 196.314 1236.68L180.198 1263.54C177.741 1267.64 172.937 1270.06 169.47 1268.96C166.002 1267.86 165.181 1263.65 167.637 1259.55Z" fill="#6F77EC"/>
<path d="M136.173 1261.61L157.129 1226.68C160.405 1221.22 166.809 1217.99 171.432 1219.45C176.055 1220.92 177.149 1226.54 173.877 1232L152.921 1266.93C149.645 1272.39 143.241 1275.62 138.618 1274.15C133.992 1272.69 132.898 1267.07 136.173 1261.61Z" fill="#6F77EC"/>
<path d="M122.361 1259.51L144.178 1223.08C148.263 1216.26 146.892 1209.24 141.117 1207.41C135.333 1205.57 127.321 1209.62 123.229 1216.46L101.42 1252.87C100.195 1254.92 100.605 1257.02 102.339 1257.57L116.991 1262.22C118.731 1262.77 121.135 1261.56 122.361 1259.51Z" fill="#6F77EC"/>
<path d="M98.5319 1282.23L113.437 1272.71C115.502 1271.38 115.932 1268.68 114.167 1268.12L98.6774 1263.2C96.9066 1262.63 94.4655 1264.71 94.5486 1266.71L95.1336 1281.16C95.1947 1282.75 96.8841 1283.29 98.5319 1282.23Z" fill="#6F77EC"/>
<path d="M528.958 911.546L777.549 1068.11C785.086 1072.86 788.446 1082.11 785.71 1090.59L710.373 1324.02C706.532 1335.93 692.633 1341.18 681.878 1334.8L437.379 1189.68L528.958 911.546Z" fill="#00B037"/>
<path d="M528.958 911.546L777.549 1068.11C785.086 1072.86 788.446 1082.11 785.71 1090.59L710.373 1324.02C706.532 1335.93 692.633 1341.18 681.878 1334.8L437.379 1189.68L528.958 911.546Z" fill="url(#paint3_linear_8_1577)" fill-opacity="0.2"/>
<path d="M528.958 911.546L777.549 1068.11C785.086 1072.86 788.446 1082.11 785.71 1090.59L710.373 1324.02C706.532 1335.93 692.633 1341.18 681.878 1334.8L437.379 1189.68L528.958 911.546Z" fill="#66B3FF"/>
<path d="M334.518 1170.07C326.056 1168.03 321.24 1159.09 324.189 1150.91L413.774 902.115C416.163 895.482 422.947 891.498 429.904 892.645L523.151 908.01C532.162 909.495 537.621 918.788 534.529 927.381L442.676 1182.73C440.151 1189.74 432.748 1193.74 425.497 1191.99L334.518 1170.07Z" fill="#A8EDB7"/>
<path d="M334.518 1170.07C326.056 1168.03 321.24 1159.09 324.189 1150.91L413.774 902.115C416.163 895.482 422.947 891.498 429.904 892.645L523.151 908.01C532.162 909.495 537.621 918.788 534.529 927.381L442.676 1182.73C440.151 1189.74 432.748 1193.74 425.497 1191.99L334.518 1170.07Z" fill="white"/>
<path fill-rule="evenodd" clip-rule="evenodd" d="M494.72 1039.85L419.535 1075.85L369.835 1024.08L413.824 902.545C416.224 895.915 423.014 891.942 429.969 893.1L523.267 908.631C532.25 910.126 537.694 919.384 534.634 927.961L494.72 1039.85Z" fill="#D0E8FF" fill-opacity="0.5"/>
<ellipse cx="424.351" cy="1043.72" rx="22.6951" ry="35.8876" transform="rotate(31.2905 424.351 1043.72)" fill="#007E28"/>
<ellipse cx="424.351" cy="1043.72" rx="22.6951" ry="35.8876" transform="rotate(31.2905 424.351 1043.72)" fill="#158BFF"/>
<path fill-rule="evenodd" clip-rule="evenodd" d="M447.222 1021.07C445.621 1032.31 442.353 1042.41 437.442 1050.64C432.336 1059.2 424.085 1067.32 413.577 1074.42L263.178 1074.42L380.115 884.425L447.222 1021.07Z" fill="#65D562"/>
<path fill-rule="evenodd" clip-rule="evenodd" d="M447.222 1021.07C445.621 1032.31 442.353 1042.41 437.442 1050.64C432.336 1059.2 424.085 1067.32 413.577 1074.42L263.178 1074.42L380.115 884.425L447.222 1021.07Z" fill="#009478"/>
<path fill-rule="evenodd" clip-rule="evenodd" d="M447.222 1021.07C445.621 1032.31 442.353 1042.41 437.442 1050.64C432.336 1059.2 424.085 1067.32 413.577 1074.42L263.178 1074.42L380.115 884.425L447.222 1021.07Z" fill="#007769" fill-opacity="0.1"/>
<path fill-rule="evenodd" clip-rule="evenodd" d="M447.222 1021.07C445.621 1032.31 442.353 1042.41 437.442 1050.64C432.336 1059.2 424.085 1067.32 413.577 1074.42L263.178 1074.42L380.115 884.425L447.222 1021.07Z" fill="black" fill-opacity="0.2"/>
<path fill-rule="evenodd" clip-rule="evenodd" d="M447.222 1021.07C445.621 1032.31 442.353 1042.41 437.442 1050.64C432.336 1059.2 424.085 1067.32 413.577 1074.42L263.178 1074.42L380.115 884.425L447.222 1021.07Z" fill="#66B3FF"/>
<ellipse cx="52.5964" cy="114.662" rx="52.5964" ry="114.662" transform="matrix(0.860309 0.509773 -0.514804 0.857308 325.315 846.1)" fill="#B4E7C5"/>
<ellipse cx="52.5964" cy="114.662" rx="52.5964" ry="114.662" transform="matrix(0.860309 0.509773 -0.514804 0.857308 325.315 846.1)" fill="url(#paint4_radial_8_1577)" fill-opacity="0.5"/>
<path fill-rule="evenodd" clip-rule="evenodd" d="M252.748 1069.62C277.876 1084.51 324.675 1052.57 357.276 998.279C389.876 943.989 395.934 887.907 370.805 873.018C345.677 858.128 298.878 890.068 266.278 944.358C233.677 998.648 227.62 1054.73 252.748 1069.62ZM257.172 1057.81C278.477 1070.44 320.015 1040.26 349.95 990.408C379.885 940.557 386.882 889.91 365.577 877.286C344.273 864.662 302.735 894.841 272.799 944.693C242.864 994.544 235.867 1045.19 257.172 1057.81Z" fill="#DCFDE8"/>
<path fill-rule="evenodd" clip-rule="evenodd" d="M252.748 1069.62C277.876 1084.51 324.675 1052.57 357.276 998.279C389.876 943.989 395.934 887.907 370.805 873.018C345.677 858.128 298.878 890.068 266.278 944.358C233.677 998.648 227.62 1054.73 252.748 1069.62ZM257.172 1057.81C278.477 1070.44 320.015 1040.26 349.95 990.408C379.885 940.557 386.882 889.91 365.577 877.286C344.273 864.662 302.735 894.841 272.799 944.693C242.864 994.544 235.867 1045.19 257.172 1057.81Z" fill="#45FF6D"/>
<path fill-rule="evenodd" clip-rule="evenodd" d="M252.748 1069.62C277.876 1084.51 324.675 1052.57 357.276 998.279C389.876 943.989 395.934 887.907 370.805 873.018C345.677 858.128 298.878 890.068 266.278 944.358C233.677 998.648 227.62 1054.73 252.748 1069.62ZM257.172 1057.81C278.477 1070.44 320.015 1040.26 349.95 990.408C379.885 940.557 386.882 889.91 365.577 877.286C344.273 864.662 302.735 894.841 272.799 944.693C242.864 994.544 235.867 1045.19 257.172 1057.81Z" fill="url(#paint5_linear_8_1577)" fill-opacity="0.2"/>
<path fill-rule="evenodd" clip-rule="evenodd" d="M252.748 1069.62C277.876 1084.51 324.675 1052.57 357.276 998.279C389.876 943.989 395.934 887.907 370.805 873.018C345.677 858.128 298.878 890.068 266.278 944.358C233.677 998.648 227.62 1054.73 252.748 1069.62ZM257.172 1057.81C278.477 1070.44 320.015 1040.26 349.95 990.408C379.885 940.557 386.882 889.91 365.577 877.286C344.273 864.662 302.735 894.841 272.799 944.693C242.864 994.544 235.867 1045.19 257.172 1057.81Z" fill="white"/>
<path fill-rule="evenodd" clip-rule="evenodd" d="M615.958 1084.26C614.853 1084.11 613.765 1084.65 613.334 1085.87L591.789 1147.21C591.045 1149.33 592.847 1151.83 594.977 1151.67L605.396 1154.96L606.916 1150.49L652.226 1145.98C654.213 1145.78 655.064 1143.36 653.826 1141.43L625.18 1096.7L628.059 1088.22L615.979 1084.2L615.958 1084.26Z" fill="#2844DD"/>
<path d="M665.643 1144.96C666.881 1146.9 666.03 1149.32 664.043 1149.52L606.863 1155.2C604.704 1155.42 602.854 1152.88 603.606 1150.74L625.151 1089.41C625.904 1087.27 628.662 1087.22 630.008 1089.32L665.643 1144.96Z" fill="#E3EDDA"/>
<path d="M665.643 1144.96C666.881 1146.9 666.03 1149.32 664.043 1149.52L606.863 1155.2C604.704 1155.42 602.854 1152.88 603.606 1150.74L625.151 1089.41C625.904 1087.27 628.662 1087.22 630.008 1089.32L665.643 1144.96Z" fill="#E3EDDA"/>
<path d="M665.643 1144.96C666.881 1146.9 666.03 1149.32 664.043 1149.52L606.863 1155.2C604.704 1155.42 602.854 1152.88 603.606 1150.74L625.151 1089.41C625.904 1087.27 628.662 1087.22 630.008 1089.32L665.643 1144.96Z" fill="#B5F77B"/>
<path d="M665.643 1144.96C666.881 1146.9 666.03 1149.32 664.043 1149.52L606.863 1155.2C604.704 1155.42 602.854 1152.88 603.606 1150.74L625.151 1089.41C625.904 1087.27 628.662 1087.22 630.008 1089.32L665.643 1144.96Z" fill="#C7F169"/>
<path d="M665.643 1144.96C666.881 1146.9 666.03 1149.32 664.043 1149.52L606.863 1155.2C604.704 1155.42 602.854 1152.88 603.606 1150.74L625.151 1089.41C625.904 1087.27 628.662 1087.22 630.008 1089.32L665.643 1144.96Z" fill="#158BFF"/>
<g style="mix-blend-mode:multiply" opacity="0.5">
<rect x="491.49" y="1182.71" width="215.484" height="8.18005" rx="4.09003" transform="rotate(30.7125 491.49 1182.71)" fill="#158BFF"/>
</g>
<g style="mix-blend-mode:multiply" opacity="0.8">
<line x1="1" y1="-1" x2="15.5219" y2="-1" transform="matrix(-0.318125 0.948049 -0.973181 -0.230042 351.196 1140.24)" stroke="#158BFF" stroke-width="2" stroke-linecap="round"/>
<line x1="1" y1="-1" x2="15.5219" y2="-1" transform="matrix(-0.318125 0.948049 -0.973181 -0.230042 362.888 1143)" stroke="#158BFF" stroke-width="2" stroke-linecap="round"/>
<line x1="1" y1="-1" x2="15.5219" y2="-1" transform="matrix(-0.318125 0.948049 -0.973181 -0.230042 374.586 1145.77)" stroke="#158BFF" stroke-width="2" stroke-linecap="round"/>
<line x1="1" y1="-1" x2="15.5219" y2="-1" transform="matrix(-0.318125 0.948049 -0.973181 -0.230042 386.28 1148.53)" stroke="#158BFF" stroke-width="2" stroke-linecap="round"/>
<line x1="1" y1="-1" x2="15.5219" y2="-1" transform="matrix(-0.318125 0.948049 -0.973181 -0.230042 397.974 1151.3)" stroke="#158BFF" stroke-width="2" stroke-linecap="round"/>
<line x1="1" y1="-1" x2="15.5219" y2="-1" transform="matrix(-0.318125 0.948049 -0.973181 -0.230042 409.663 1154.06)" stroke="#158BFF" stroke-width="2" stroke-linecap="round"/>
<line x1="1" y1="-1" x2="15.5219" y2="-1" transform="matrix(-0.318125 0.948049 -0.973181 -0.230042 421.36 1156.82)" stroke="#158BFF" stroke-width="2" stroke-linecap="round"/>
</g>
<circle cx="170.391" cy="1030.88" r="59.3268" transform="rotate(147.689 170.391 1030.88)" fill="#E73001"/>
<circle cx="170.391" cy="1030.88" r="59.3268" transform="rotate(147.689 170.391 1030.88)" fill="#FEAA1F"/>
<path fill-rule="evenodd" clip-rule="evenodd" d="M146.195 1070.07C178.96 1070.07 205.522 1043.51 205.522 1010.74C205.522 998.151 201.598 986.474 194.907 976.87C215.441 986.199 229.72 1006.89 229.72 1030.91C229.72 1063.68 203.159 1090.24 170.393 1090.24C150.221 1090.24 132.4 1080.17 121.681 1064.78C129.153 1068.18 137.453 1070.07 146.195 1070.07Z" fill="url(#paint6_linear_8_1577)"/>
<path fill-rule="evenodd" clip-rule="evenodd" d="M336.637 1010.28C340.655 1004.87 344.578 999.141 348.355 993.139C349.112 991.936 349.856 990.732 350.588 989.529C351.304 977.392 342.916 966.317 330.653 963.986C317.328 961.454 304.473 970.203 301.94 983.528C299.408 996.853 308.157 1009.71 321.482 1012.24C326.82 1013.25 332.083 1012.46 336.637 1010.28Z" fill="#3370FF"/>
</g>
<defs>
<filter id="filter0_d_8_1577" x="165.797" y="1307.24" width="196.04" height="143.651" filterUnits="userSpaceOnUse" color-interpolation-filters="sRGB">
<feFlood flood-opacity="0" result="BackgroundImageFix"/>
<feColorMatrix in="SourceAlpha" type="matrix" values="0 0 0 0 0 0 0 0 0 0 0 0 0 0 0 0 0 0 127 0" result="hardAlpha"/>
<feOffset dx="3" dy="3"/>
<feGaussianBlur stdDeviation="2"/>
<feComposite in2="hardAlpha" operator="out"/>
<feColorMatrix type="matrix" values="0 0 0 0 0.120381 0 0 0 0 0.171097 0 0 0 0 0.234326 0 0 0 0.08 0"/>
<feBlend mode="normal" in2="BackgroundImageFix" result="effect1_dropShadow_8_1577"/>
<feBlend mode="normal" in="SourceGraphic" in2="effect1_dropShadow_8_1577" result="shape"/>
</filter>
<filter id="filter1_d_8_1577" x="163.853" y="1382.62" width="59.5206" height="42.0998" filterUnits="userSpaceOnUse" color-interpolation-filters="sRGB">
<feFlood flood-opacity="0" result="BackgroundImageFix"/>
<feColorMatrix in="SourceAlpha" type="matrix" values="0 0 0 0 0 0 0 0 0 0 0 0 0 0 0 0 0 0 127 0" result="hardAlpha"/>
<feOffset dy="2.94826"/>
<feGaussianBlur stdDeviation="1.47413"/>
<feComposite in2="hardAlpha" operator="out"/>
<feColorMatrix type="matrix" values="0 0 0 0 0.232937 0 0 0 0 0.392346 0 0 0 0 0.176928 0 0 0 0.1 0"/>
<feBlend mode="normal" in2="BackgroundImageFix" result="effect1_dropShadow_8_1577"/>
<feBlend mode="normal" in="SourceGraphic" in2="effect1_dropShadow_8_1577" result="shape"/>
</filter>
<linearGradient id="paint0_linear_8_1577" x1="375" y1="-176" x2="375" y2="831.512" gradientUnits="userSpaceOnUse">
<stop stop-color="#4DAE00"/>
<stop offset="1" stop-color="#70B007"/>
</linearGradient>
<linearGradient id="paint1_linear_8_1577" x1="76.7469" y1="916.756" x2="80.4094" y2="925.579" gradientUnits="userSpaceOnUse">
<stop stop-color="#01A985"/>
<stop offset="1" stop-color="#7DCCBC"/>
</linearGradient>
<linearGradient id="paint2_linear_8_1577" x1="47.4105" y1="1028.64" x2="52.2882" y2="1036.12" gradientUnits="userSpaceOnUse">
<stop stop-color="#90D877"/>
<stop offset="1" stop-color="#4AAA6A"/>
</linearGradient>
<linearGradient id="paint3_linear_8_1577" x1="531.883" y1="934.055" x2="631.665" y2="1067.97" gradientUnits="userSpaceOnUse">
<stop stop-color="#439D5F"/>
<stop offset="1" stop-color="#15A944" stop-opacity="0"/>
</linearGradient>
<radialGradient id="paint4_radial_8_1577" cx="0" cy="0" r="1" gradientUnits="userSpaceOnUse" gradientTransform="translate(49.7684 2.06193) rotate(64.6957) scale(141.73 66.3166)">
<stop stop-color="white"/>
<stop offset="1" stop-color="white" stop-opacity="0"/>
</radialGradient>
<linearGradient id="paint5_linear_8_1577" x1="336.43" y1="868.77" x2="291.688" y2="1038.24" gradientUnits="userSpaceOnUse">
<stop stop-color="#A8EDB7"/>
<stop offset="1" stop-color="#1F4D29" stop-opacity="0.8"/>
</linearGradient>
<linearGradient id="paint6_linear_8_1577" x1="180.638" y1="1044.22" x2="219.544" y2="1069.04" gradientUnits="userSpaceOnUse">
<stop stop-color="#FEAA1F"/>
<stop offset="1" stop-color="#FF8A00"/>
</linearGradient>
<clipPath id="clip0_8_1577">
<rect width="750" height="1624" fill="white"/>
</clipPath>
</defs>
</svg>
